if (_typeface_js && _typeface_js.loadFace) _typeface_js.loadFace({"glyphs":{"¦":{"x_min":299.4375,"x_max":382.46875,"ha":694,"o":"m 382 451 l 382 937 l 299 937 l 299 451 l 382 451 m 382 -243 l 382 243 l 299 243 l 299 -243 l 382 -243 "},"":{"x_min":55.8125,"x_max":1073.921875,"ha":1168,"o":"m 257 638 l 261 638 b 541 347 284 618 411 475 b 891 6 666 223 816 77 b 940 -18 903 -5 920 -18 b 959 19 950 -18 959 -6 l 973 763 b 1016 861 974 830 984 851 b 1053 865 1031 865 1041 865 b 1073 877 1067 865 1073 870 b 1046 888 1073 887 1063 888 b 929 886 988 888 943 886 b 777 888 903 886 839 888 b 747 877 759 888 747 887 b 766 865 747 870 751 865 b 828 858 782 865 811 865 b 869 754 857 847 868 826 l 882 229 l 876 229 b 617 494 858 245 699 412 b 249 870 443 668 264 855 b 197 909 228 891 212 909 b 176 869 185 909 176 893 l 166 169 b 129 26 164 66 160 34 b 74 20 112 22 91 20 b 55 8 63 20 55 15 b 83 -4 55 -2 66 -4 b 212 0 144 -4 201 0 b 367 -4 234 0 289 -4 b 394 8 383 -4 394 -1 b 374 20 394 15 387 20 b 311 29 355 20 332 22 b 270 156 288 37 273 65 l 257 638 "},"":{"x_min":65.328125,"x_max":899.703125,"ha":979,"o":"m 626 -19 b 842 6 703 -19 794 -12 b 873 41 862 15 868 20 b 899 198 886 81 899 184 b 886 219 899 208 894 219 b 871 195 876 219 873 213 b 830 116 867 173 850 140 b 617 54 782 62 724 54 b 245 468 457 54 245 187 b 355 775 245 583 266 697 b 581 841 409 822 476 841 b 812 772 691 841 771 812 b 858 662 842 741 857 700 b 871 637 858 647 861 637 b 887 666 882 637 886 650 b 891 794 888 690 888 755 b 896 859 894 836 896 850 b 879 873 896 866 892 872 b 759 893 843 877 804 886 b 585 905 705 900 660 905 b 205 780 406 905 292 858 b 65 456 91 676 65 537 b 215 108 65 343 96 209 b 626 -19 323 15 462 -19 "},"Ő":{"x_min":74.859375,"x_max":1186.890625,"ha":1288,"o":"m 623 -23 b 1186 545 969 -23 1186 227 b 637 1065 1186 863 975 1065 b 74 520 228 1065 74 758 b 623 -23 74 275 232 -23 m 680 45 b 262 563 419 45 262 275 b 597 998 262 909 441 998 b 996 494 820 998 996 805 b 680 45 996 93 775 45 m 598 1334 b 449 1166 579 1312 455 1180 b 455 1152 446 1161 447 1152 b 485 1169 464 1152 470 1156 b 671 1283 532 1208 617 1258 b 724 1302 700 1297 714 1300 b 721 1322 729 1305 730 1313 b 658 1362 703 1337 679 1354 b 632 1368 647 1366 641 1368 b 598 1334 626 1368 617 1356 m 834 1334 b 684 1166 815 1312 691 1180 b 691 1152 681 1161 683 1152 b 721 1169 699 1152 706 1156 b 906 1283 767 1208 853 1258 b 959 1302 936 1297 950 1300 b 956 1322 965 1305 966 1313 b 894 1362 939 1337 917 1352 b 868 1368 883 1366 876 1368 b 834 1334 861 1368 853 1356 "},"":{"x_min":-61.25,"x_max":871.109375,"ha":819,"o":"m 325 205 b 321 87 325 185 325 137 b 284 24 318 52 308 30 b 242 20 273 21 258 20 b 223 8 228 20 223 13 b 249 -4 223 -1 232 -4 b 404 0 294 -4 374 0 b 592 -4 436 0 517 -4 b 617 8 608 -4 617 0 b 597 20 617 13 611 20 b 537 24 581 20 555 21 b 488 87 502 30 491 52 b 485 205 485 137 485 185 l 485 299 b 500 417 485 338 483 374 b 733 795 522 467 694 748 b 796 851 759 827 770 838 b 847 865 813 859 835 865 b 871 878 861 865 871 870 b 849 888 871 885 862 888 b 721 885 826 888 747 885 b 604 888 686 885 643 888 b 583 877 590 888 583 885 b 605 863 583 867 594 866 b 631 837 626 859 631 848 b 613 774 631 821 626 801 b 435 458 596 738 450 485 b 236 803 415 491 258 767 b 221 844 227 820 221 834 b 238 862 221 853 228 859 b 265 877 257 867 265 867 b 247 888 265 885 258 888 b 111 885 193 888 137 885 b -38 888 72 885 -17 888 b -61 877 -53 888 -61 885 b -43 865 -61 869 -53 865 b 6 849 -28 865 -8 858 b 84 766 29 837 54 809 b 298 426 126 703 289 444 b 325 302 314 391 325 366 l 325 205 m 588 1194 b 568 1210 581 1206 578 1210 b 541 1198 564 1210 555 1208 b 322 1023 519 1184 377 1076 b 310 1005 315 1016 310 1010 b 318 996 310 999 315 996 b 341 1008 321 996 330 1002 b 574 1090 392 1035 499 1080 b 620 1090 601 1092 613 1090 b 627 1110 627 1090 635 1094 b 588 1194 611 1148 598 1174 "},"Ž":{"x_min":79.96875,"x_max":902.03125,"ha":986,"o":"m 301 76 b 888 1004 493 375 700 693 b 899 1030 893 1013 899 1022 b 876 1041 899 1037 889 1041 l 461 1041 b 210 1045 405 1041 339 1040 b 156 1055 176 1047 168 1055 b 139 1029 148 1055 142 1048 b 112 829 133 987 112 861 b 123 805 112 812 114 805 b 139 830 131 805 137 811 b 213 938 143 862 168 913 b 409 968 256 963 339 968 l 676 968 b 100 55 493 675 292 361 b 79 13 84 30 79 23 b 103 0 79 4 88 0 b 833 -6 378 0 606 -6 b 874 29 858 -6 868 4 b 902 198 884 63 902 154 b 888 241 902 231 899 241 b 874 219 880 241 877 233 b 850 152 870 200 862 175 b 636 76 828 111 775 76 l 301 76 m 282 1312 b 275 1298 278 1308 275 1302 b 295 1279 275 1294 280 1290 b 456 1154 315 1263 446 1163 b 481 1138 471 1143 477 1138 b 510 1155 489 1138 496 1143 b 689 1327 529 1172 674 1311 b 701 1348 697 1336 701 1343 b 689 1362 701 1356 696 1362 b 659 1344 682 1362 676 1358 b 518 1241 621 1312 556 1265 b 497 1236 511 1237 503 1236 b 480 1244 492 1236 486 1238 b 360 1347 466 1254 386 1320 b 337 1362 348 1359 342 1362 b 322 1352 333 1362 327 1358 l 282 1312 "},"Á":{"x_min":-87.0625,"x_max":1033.046875,"ha":972,"o":"m 581 358 b 594 348 587 358 592 355 l 703 54 b 691 22 710 37 700 25 b 672 9 677 21 672 18 b 713 -1 672 0 688 0 b 970 -4 822 -4 921 -4 b 1033 9 1020 -4 1033 -1 b 1015 21 1033 19 1026 21 b 958 26 999 21 978 22 b 838 177 929 33 890 52 b 500 1032 751 389 533 955 b 466 1076 487 1064 479 1076 b 428 1021 453 1076 445 1061 l 87 148 b -28 23 59 79 34 32 b -70 21 -39 22 -58 21 b -87 9 -81 21 -87 18 b -61 -4 -87 -1 -78 -4 b 99 0 9 -4 84 0 b 243 -4 141 0 200 -4 b 266 9 258 -4 266 -1 b 246 21 266 18 262 21 l 225 21 b 171 64 183 21 171 39 b 191 148 171 80 178 114 l 265 347 b 277 358 268 355 270 358 l 581 358 m 304 427 b 299 437 299 427 298 432 l 424 779 b 432 791 426 784 428 791 b 439 779 436 791 438 784 l 562 436 b 555 427 563 432 562 427 l 304 427 m 662 1350 b 643 1366 656 1362 653 1366 b 616 1354 639 1366 630 1364 b 397 1179 594 1340 451 1232 b 385 1161 390 1172 385 1166 b 393 1152 385 1155 390 1152 b 416 1164 396 1152 405 1158 b 649 1246 466 1191 574 1236 b 695 1246 676 1248 688 1246 b 702 1266 702 1246 710 1250 b 662 1350 685 1304 673 1330 "},"Î":{"x_min":95.28125,"x_max":543.078125,"ha":628,"o":"m 223 398 b 216 95 223 263 223 154 b 176 26 212 55 204 31 b 127 20 164 23 148 20 b 106 9 111 20 106 16 b 133 -4 106 0 115 -4 b 304 0 187 -4 273 0 b 517 -4 341 0 427 -4 b 543 9 532 -4 543 0 b 521 20 543 16 536 20 b 451 26 500 20 470 23 b 397 94 411 31 401 56 b 392 398 392 154 392 263 l 392 643 b 394 937 392 854 392 893 b 445 1016 397 986 408 1009 b 485 1020 461 1019 472 1020 b 507 1034 499 1020 507 1023 b 479 1045 507 1043 496 1045 b 313 1041 427 1045 347 1041 b 136 1045 273 1041 187 1045 b 103 1034 114 1045 103 1043 b 125 1020 103 1023 111 1020 b 174 1015 141 1020 159 1019 b 220 937 204 1008 217 984 b 223 643 223 893 223 854 l 223 398 m 315 1362 b 287 1345 307 1362 300 1358 b 107 1173 268 1329 122 1190 b 95 1152 100 1165 95 1158 b 107 1138 95 1144 100 1138 b 134 1155 114 1138 121 1143 b 279 1258 175 1191 240 1236 b 299 1265 287 1262 294 1265 b 317 1256 304 1265 310 1262 b 436 1154 330 1247 412 1180 b 457 1138 447 1143 451 1138 b 475 1148 464 1138 469 1143 l 514 1188 b 521 1202 518 1193 521 1198 b 502 1222 521 1206 517 1211 b 340 1347 481 1237 351 1337 b 315 1362 325 1358 319 1362 "},"":{"x_min":68.046875,"x_max":794.953125,"ha":868,"o":"m 273 70 b 788 854 442 319 622 588 b 794 876 792 862 794 866 b 774 886 794 881 786 886 l 405 886 b 185 888 356 886 299 884 b 137 897 155 890 148 897 b 123 875 130 897 125 891 b 99 704 117 838 99 731 b 111 684 99 690 103 684 b 126 705 118 684 123 688 b 190 795 129 733 151 773 b 360 816 228 816 299 816 l 586 816 b 83 47 426 573 251 306 b 68 12 69 26 68 19 b 88 0 68 4 74 0 b 733 -5 330 0 533 -5 b 770 25 755 -5 763 4 b 793 169 778 54 793 130 b 781 205 793 197 790 205 b 767 186 773 205 770 198 b 745 131 763 169 755 150 b 560 70 725 95 683 70 l 273 70 "},"e":{"x_min":74.859375,"x_max":707.78125,"ha":800,"o":"m 196 338 b 190 87 196 230 196 137 b 155 25 186 52 179 30 b 112 20 144 22 130 20 b 93 8 98 20 93 13 b 117 -4 93 0 102 -4 b 200 -1 141 -4 171 -2 b 268 0 228 -1 254 0 b 406 -2 303 0 348 -1 b 627 -6 465 -5 537 -6 b 691 23 672 -6 683 -6 b 707 154 698 47 707 127 b 696 181 707 166 706 181 b 683 163 688 181 686 176 b 631 76 675 115 661 90 b 518 61 600 62 549 61 b 356 159 396 61 359 79 b 356 334 355 194 356 294 l 356 429 b 363 441 356 436 357 441 b 551 436 393 441 529 438 b 617 390 596 431 611 413 b 622 347 620 375 620 359 b 632 337 622 341 624 337 b 645 363 643 337 645 354 b 650 443 645 372 647 419 b 660 529 657 502 660 522 b 650 541 660 536 656 541 b 631 526 645 541 641 534 b 574 508 620 513 602 511 b 364 505 547 505 392 505 b 356 518 357 505 356 511 l 356 809 b 364 820 356 816 359 820 b 552 815 389 820 532 818 b 631 772 612 809 622 793 b 639 729 638 758 639 737 b 649 713 639 719 641 713 b 662 733 658 713 661 727 b 669 811 665 747 668 798 b 679 887 672 865 679 879 b 671 898 679 893 677 898 b 651 893 665 898 658 894 b 601 886 642 891 623 887 b 274 886 578 884 313 886 b 102 888 240 886 164 888 b 74 877 84 888 74 886 b 95 865 74 869 83 865 b 142 861 112 865 133 863 b 194 797 181 850 191 837 b 196 547 196 759 196 726 l 196 338 "},"»":{"x_min":93.046875,"x_max":691.984375,"ha":764,"o":"m 98 616 b 93 606 95 613 93 609 b 112 586 93 604 97 600 b 302 387 174 526 279 419 b 101 136 274 343 122 161 b 93 118 97 131 93 125 b 109 106 93 112 101 106 b 135 122 116 106 122 112 b 397 363 151 134 369 338 b 423 394 417 380 423 390 b 399 427 423 402 417 409 b 207 640 372 455 240 602 b 163 686 177 676 167 686 b 150 676 159 686 155 681 l 98 616 m 366 616 b 361 606 363 613 361 609 b 380 586 361 604 365 600 b 570 387 442 526 547 419 b 369 136 542 343 391 161 b 361 118 365 131 361 125 b 377 106 361 112 369 106 b 403 122 384 106 391 112 b 666 363 419 134 637 338 b 691 394 685 380 691 390 b 667 427 691 402 685 409 b 475 640 640 455 508 602 b 431 686 445 676 436 686 b 418 676 427 686 423 681 l 366 616 "},"":{"x_min":48.015625,"x_max":700,"ha":707,"o":"m 700 880 b 668 890 700 886 693 890 l 254 890 b 118 895 186 890 144 893 b 80 901 94 898 84 901 b 67 884 72 901 67 897 b 48 690 67 873 48 733 b 58 672 48 679 49 672 b 71 687 67 672 69 677 b 114 752 73 706 91 738 b 235 775 146 772 199 775 l 567 775 b 190 38 389 500 227 154 b 181 -9 184 19 181 2 b 199 -23 181 -20 185 -23 b 362 47 257 -23 362 23 b 362 93 362 62 359 73 b 690 858 381 245 582 718 b 700 880 694 862 700 873 "},"∆":{"x_min":17.59375,"x_max":926.375,"ha":956,"o":"m 495 1075 b 456 1018 480 1075 472 1054 l 28 44 b 19 5 22 27 13 13 b 57 0 23 -1 43 0 l 874 0 b 924 5 883 0 916 -1 b 915 48 930 9 921 31 l 538 1015 b 495 1075 524 1051 513 1075 m 144 87 b 139 97 139 87 137 91 l 442 806 b 450 819 445 812 446 819 b 457 806 454 819 456 812 l 721 95 b 714 87 723 91 721 87 l 144 87 "},"ļ":{"x_min":83.03125,"x_max":736.359375,"ha":767,"o":"m 356 547 b 359 797 356 726 356 759 b 404 861 362 838 371 855 b 450 865 417 863 436 865 b 472 877 465 865 472 869 b 446 888 472 886 464 888 b 273 886 400 888 302 886 b 108 888 240 886 164 888 b 83 877 91 888 83 886 b 103 865 83 869 89 865 b 142 861 118 865 133 863 b 194 797 181 850 191 837 b 196 547 196 759 196 726 l 196 338 b 190 87 196 230 196 137 b 155 25 186 52 179 30 b 112 20 144 22 130 20 b 93 8 98 20 93 13 b 117 -4 93 0 102 -4 b 200 -1 141 -4 171 -2 b 268 0 228 -1 254 0 b 427 -2 317 0 367 -1 b 642 -6 487 -5 556 -6 b 718 25 705 -6 710 -1 b 736 161 728 59 736 147 b 725 187 736 175 733 187 b 711 169 715 187 713 180 b 681 98 709 147 696 113 b 541 65 651 66 605 65 b 382 90 449 65 402 72 b 356 338 356 112 356 187 l 356 547 m 528 -163 b 502 -102 528 -151 521 -133 b 472 -72 487 -79 483 -72 b 385 -155 436 -72 385 -113 b 434 -258 385 -172 434 -190 b 400 -362 434 -286 424 -319 b 390 -381 397 -368 390 -376 b 400 -394 390 -387 396 -394 b 420 -380 406 -394 412 -387 b 513 -222 460 -334 498 -258 b 528 -163 521 -202 528 -176 "},"":{"x_min":55.8125,"x_max":1073.921875,"ha":1168,"o":"m 257 638 l 261 638 b 541 347 284 618 411 475 b 891 6 666 223 816 77 b 940 -18 903 -5 920 -18 b 959 19 950 -18 959 -6 l 973 763 b 1016 861 974 830 984 851 b 1053 865 1031 865 1041 865 b 1073 877 1067 865 1073 870 b 1046 888 1073 887 1063 888 b 929 886 988 888 943 886 b 777 888 903 886 839 888 b 747 877 759 888 747 887 b 766 865 747 870 751 865 b 828 858 782 865 811 865 b 869 754 857 847 868 826 l 882 229 l 876 229 b 617 494 858 245 699 412 b 249 870 443 668 264 855 b 197 909 228 891 212 909 b 176 869 185 909 176 893 l 166 169 b 129 26 164 66 160 34 b 74 20 112 22 91 20 b 55 8 63 20 55 15 b 83 -4 55 -2 66 -4 b 212 0 144 -4 201 0 b 367 -4 234 0 289 -4 b 394 8 383 -4 394 -1 b 374 20 394 15 387 20 b 311 29 355 20 332 22 b 270 156 288 37 273 65 l 257 638 m 668 997 b 801 1101 732 997 789 1077 b 809 1125 805 1109 809 1118 b 798 1136 809 1131 804 1136 b 777 1118 792 1136 785 1129 b 694 1076 771 1111 743 1076 b 596 1106 661 1076 630 1087 b 487 1145 564 1125 534 1145 b 345 1038 421 1145 366 1072 b 334 1012 341 1033 334 1019 b 344 1002 334 1006 338 1002 b 366 1016 349 1002 353 1004 b 458 1066 377 1029 405 1066 b 545 1036 495 1066 521 1050 b 668 997 574 1020 611 997 "},"":{"x_min":-75.140625,"x_max":925.109375,"ha":878,"o":"m 529 293 b 541 284 534 293 538 291 l 633 47 b 622 20 639 33 631 22 b 607 8 610 19 607 15 b 643 -1 607 0 621 0 b 873 -4 744 -4 831 -4 b 925 8 918 -4 925 -1 b 908 20 925 16 919 20 b 863 25 895 20 881 22 b 761 151 842 29 808 44 b 456 879 685 330 485 813 b 421 916 444 905 439 916 b 386 869 409 916 399 902 l 73 126 b -26 22 48 66 28 30 b -61 20 -37 22 -50 20 b -75 8 -71 20 -75 15 b -53 -4 -75 -1 -68 -4 b 85 0 9 -4 73 0 b 218 -4 123 0 179 -4 b 237 8 231 -4 237 -1 b 220 20 237 15 235 20 l 202 20 b 154 54 165 20 154 33 b 172 126 154 68 160 97 l 236 284 b 247 293 239 291 240 293 l 529 293 m 271 358 b 267 366 267 358 265 361 l 383 665 b 390 676 384 669 386 676 b 395 665 393 676 394 669 l 508 365 b 503 358 510 361 508 358 l 271 358 m 437 1206 b 409 1190 429 1206 422 1202 b 229 1018 390 1173 244 1034 b 217 997 222 1009 217 1002 b 229 983 217 988 222 983 b 256 1000 236 983 243 987 b 401 1102 297 1036 363 1080 b 421 1109 409 1106 416 1109 b 439 1101 427 1109 432 1106 b 559 998 452 1091 534 1025 b 579 983 569 987 573 983 b 597 993 586 983 591 987 l 636 1033 b 643 1047 640 1037 643 1043 b 624 1066 643 1051 639 1055 b 462 1191 603 1081 473 1181 b 437 1206 447 1202 442 1206 "},"ò":{"x_min":65.328125,"x_max":1057.578125,"ha":1149,"o":"m 555 -19 b 1057 463 864 -19 1057 193 b 567 905 1057 734 869 905 b 65 443 204 905 65 644 b 555 -19 65 233 206 -19 m 604 44 b 242 479 378 44 242 236 b 532 843 242 770 398 843 b 879 420 725 843 879 681 b 604 44 879 84 688 44 m 662 1006 b 634 1031 662 1016 647 1020 b 483 1173 571 1077 495 1156 b 461 1204 469 1193 468 1204 b 435 1194 454 1204 450 1201 b 344 1159 417 1186 370 1168 b 326 1147 333 1156 326 1154 b 371 1112 326 1138 345 1123 b 647 997 394 1101 627 997 b 662 1006 653 997 662 1000 "},"":{"x_min":-24.125,"x_max":897.15625,"ha":882,"o":"m 702 768 b 788 858 739 819 761 851 b 831 865 804 862 819 865 b 850 877 844 865 850 870 b 829 888 850 886 842 888 b 712 886 784 888 735 886 b 586 888 688 886 633 888 b 560 877 569 888 560 886 b 575 865 560 869 569 865 b 614 861 585 865 601 865 b 634 841 626 858 634 850 b 620 798 634 831 630 815 b 458 552 600 765 494 605 b 309 809 411 633 362 715 b 297 844 302 822 297 837 b 313 861 297 851 302 858 b 341 865 322 863 335 865 b 361 877 352 865 361 869 b 336 888 361 886 352 888 b 201 886 291 888 218 886 b 19 888 144 886 48 888 b -5 879 4 888 -5 886 b 7 865 -5 870 0 865 b 57 856 19 865 38 862 b 154 770 99 843 124 818 l 365 434 l 131 112 b 35 26 90 55 71 36 b -7 20 18 22 0 20 b -24 6 -17 20 -24 13 b -6 -4 -24 0 -18 -4 l 13 -4 b 114 0 33 -4 91 0 b 230 -4 144 0 223 -4 l 252 -4 b 276 6 268 -4 276 -1 b 261 20 276 13 268 20 b 235 22 252 20 242 22 b 212 40 224 22 214 29 b 230 90 211 52 218 70 l 405 368 b 595 51 460 277 525 166 b 590 26 604 36 596 27 b 574 11 580 23 574 18 b 616 -1 574 2 585 0 b 838 -4 714 -4 810 -4 l 874 -4 b 897 8 887 -4 897 0 b 882 20 897 15 890 20 b 835 27 871 20 852 22 b 770 75 810 36 791 48 b 503 491 740 112 541 433 l 702 768 "},"ţ":{"x_min":16.328125,"x_max":837.078125,"ha":879,"o":"m 355 338 b 349 87 355 230 355 137 b 314 25 345 52 338 30 b 272 20 304 22 289 20 b 253 8 257 20 253 13 b 276 -4 253 0 261 -4 b 432 0 323 -4 405 0 b 626 -4 466 0 547 -4 b 649 8 639 -4 649 0 b 630 20 649 13 643 20 b 568 25 612 20 585 22 b 522 86 533 30 526 52 b 515 338 517 137 515 230 l 515 816 l 666 813 b 808 745 774 812 805 776 l 809 733 b 823 709 811 715 813 709 b 834 729 830 709 833 716 b 837 872 834 759 837 847 b 827 897 837 890 835 897 b 794 891 823 897 813 894 b 713 886 777 888 751 886 l 227 886 b 107 891 187 886 142 887 b 55 905 77 895 65 905 b 42 883 49 905 44 898 b 16 740 39 873 16 759 b 27 720 16 727 19 720 b 40 736 35 720 38 726 b 61 776 43 744 49 759 b 176 812 78 802 107 811 l 355 816 l 355 338 m 502 -163 b 476 -102 502 -151 495 -133 b 446 -72 461 -79 457 -72 b 359 -155 411 -72 359 -113 b 408 -258 359 -172 408 -190 b 374 -362 408 -286 398 -319 b 364 -381 371 -368 364 -376 b 374 -394 364 -387 370 -394 b 394 -380 381 -394 386 -387 b 487 -222 434 -334 472 -258 b 502 -163 495 -202 502 -176 "},"^":{"x_min":64,"x_max":682,"ha":763,"o":"m 682 418 l 420 1040 l 325 1040 l 64 418 l 156 418 l 373 934 l 589 418 l 682 418 "},"«":{"x_min":57.015625,"x_max":655.953125,"ha":764,"o":"m 650 176 b 655 186 653 179 655 183 b 636 206 655 188 651 193 b 446 405 574 266 469 373 b 647 656 474 450 626 631 b 655 675 651 661 655 668 b 639 686 655 680 647 686 b 613 670 632 686 626 680 b 351 429 597 658 379 454 b 325 398 332 412 325 402 b 349 365 325 390 332 383 b 541 152 376 337 508 190 b 585 106 571 116 581 106 b 598 116 589 106 593 111 l 650 176 m 382 176 b 387 186 385 179 387 183 b 368 206 387 188 383 193 b 178 405 306 266 201 373 b 379 656 206 450 357 631 b 387 675 383 661 387 668 b 371 686 387 680 379 686 b 345 670 364 686 357 680 b 82 429 329 658 111 454 b 57 398 63 412 57 402 b 81 365 57 390 63 383 b 273 152 108 337 240 190 b 317 106 303 116 312 106 b 330 116 321 106 325 111 l 382 176 "},"∙":{"x_min":87.109375,"x_max":253.171875,"ha":347,"o":"m 168 287 b 253 376 220 287 253 327 b 170 456 253 425 216 456 b 87 372 111 456 87 406 b 168 287 87 333 111 287 "},"":{"x_min":36.75,"x_max":1112,"ha":1233,"o":"m 1112 231 b 1099 252 1112 243 1109 252 b 1082 225 1088 252 1086 247 b 1037 129 1076 200 1060 155 b 790 48 978 61 921 48 b 357 358 613 48 427 163 b 879 356 532 356 705 355 b 891 369 886 356 890 362 l 905 415 b 892 426 907 423 903 426 b 340 425 732 425 518 425 b 326 550 332 463 326 504 b 970 548 533 550 823 547 b 982 561 977 548 981 554 l 996 605 b 984 616 999 613 994 616 b 329 615 775 613 536 613 b 465 916 337 723 386 847 b 736 1002 525 969 604 1002 b 1019 916 872 1002 971 968 b 1068 781 1053 880 1067 825 b 1082 751 1068 762 1071 751 b 1098 783 1094 751 1097 762 b 1102 933 1101 811 1099 887 b 1109 1009 1105 981 1109 998 b 1088 1026 1109 1018 1103 1025 b 952 1050 1048 1030 1004 1043 b 755 1063 890 1058 839 1063 b 325 916 552 1063 423 1008 b 171 616 225 823 185 708 l 66 618 b 53 604 58 618 54 609 l 38 559 b 43 548 35 552 36 548 b 166 550 85 548 126 550 l 166 536 b 175 425 166 500 168 463 l 66 426 b 53 412 58 426 54 418 l 38 368 b 43 356 35 361 36 356 b 189 358 95 358 142 358 b 334 126 212 276 257 195 b 801 -25 458 16 615 -25 b 1046 6 888 -25 992 -15 b 1082 47 1069 16 1075 23 b 1112 231 1095 94 1112 215 "},"í":{"x_min":91.1875,"x_max":505.671875,"ha":565,"o":"m 196 338 b 190 81 196 224 196 130 b 155 24 186 46 179 30 b 112 20 144 21 130 20 b 93 8 98 20 93 13 b 117 -4 93 0 102 -4 b 273 0 164 -4 246 0 b 466 -4 306 0 387 -4 b 490 8 480 -4 490 0 b 470 20 490 13 484 20 b 409 24 453 20 426 21 b 362 80 374 30 366 48 b 356 338 356 130 356 224 l 356 546 b 359 796 356 726 356 759 b 404 860 362 838 371 855 b 439 865 417 863 427 865 b 458 878 451 865 458 867 b 434 888 458 885 449 888 b 280 885 387 888 310 885 b 119 888 246 885 164 888 b 91 878 100 888 91 885 b 110 865 91 867 98 865 b 153 859 125 865 140 863 b 194 796 179 851 191 837 b 196 546 196 759 196 726 l 196 338 m 462 1194 b 443 1210 455 1206 453 1210 b 416 1198 439 1210 430 1208 b 197 1023 394 1184 251 1076 b 185 1005 190 1016 185 1010 b 193 996 185 999 190 996 b 216 1008 196 996 205 1002 b 449 1090 266 1035 374 1080 b 495 1090 476 1092 488 1090 b 502 1110 502 1090 510 1094 b 462 1194 485 1148 473 1174 "},"ˆ":{"x_min":417.859375,"x_max":843.890625,"ha":1288,"o":"m 638 1362 b 609 1345 630 1362 623 1358 b 430 1173 590 1329 445 1190 b 417 1152 423 1165 417 1158 b 430 1138 417 1144 423 1138 b 457 1155 436 1138 443 1143 b 601 1258 498 1191 563 1236 b 622 1265 609 1262 616 1265 b 639 1256 627 1265 632 1262 b 759 1154 653 1247 735 1180 b 779 1138 770 1143 774 1138 b 797 1148 786 1138 792 1143 l 837 1188 b 843 1202 841 1193 843 1198 b 824 1222 843 1206 839 1211 b 662 1347 804 1237 673 1337 b 638 1362 647 1358 642 1362 "},"ū":{"x_min":24.5,"x_max":996.328125,"ha":1056,"o":"m 144 373 b 253 61 144 202 191 115 b 526 -19 340 -16 464 -19 b 779 65 604 -19 695 -6 b 894 420 880 150 894 288 l 894 547 b 896 797 894 726 895 759 b 940 861 899 838 907 855 b 975 865 955 863 962 865 b 996 877 989 865 996 869 b 971 888 996 886 988 888 b 831 886 925 888 845 886 b 688 888 830 886 749 888 b 664 877 672 888 664 886 b 684 865 664 869 671 865 b 728 861 698 865 718 863 b 778 797 766 850 775 837 b 781 547 779 759 781 726 l 781 398 b 711 111 781 277 778 175 b 551 48 664 63 602 48 b 400 95 510 48 453 52 b 308 381 341 143 308 209 l 308 547 b 311 797 308 726 308 759 b 355 861 314 838 323 855 b 390 865 370 863 377 865 b 409 877 402 865 409 869 b 383 888 409 886 401 888 b 230 886 340 888 259 886 b 50 888 194 886 114 888 b 24 877 32 888 24 886 b 44 865 24 869 31 865 b 91 861 61 865 81 863 b 142 797 129 850 140 838 b 144 547 145 759 144 726 l 144 373 m 699 1034 b 714 1043 709 1034 713 1037 l 725 1093 b 714 1106 728 1102 724 1106 l 387 1106 b 372 1094 378 1106 375 1104 l 362 1044 b 372 1034 360 1037 363 1034 l 699 1034 "},"ņ":{"x_min":55.8125,"x_max":1073.921875,"ha":1168,"o":"m 257 637 l 261 637 b 541 345 284 616 411 473 b 891 5 666 222 816 76 b 940 -19 903 -6 920 -19 b 959 18 950 -19 959 -8 l 973 762 b 1016 859 974 829 984 850 b 1053 863 1031 863 1041 863 b 1073 876 1067 863 1073 869 b 1046 887 1073 886 1063 887 b 929 884 988 887 943 884 b 777 887 903 884 839 887 b 747 876 759 887 747 886 b 766 863 747 869 751 863 b 828 856 782 863 811 863 b 869 752 857 845 868 825 l 882 227 l 876 227 b 617 493 858 244 699 411 b 249 869 443 666 264 854 b 197 908 228 890 212 908 b 176 868 185 908 176 891 l 166 168 b 129 25 164 65 160 33 b 74 19 112 20 91 19 b 55 6 63 19 55 13 b 83 -5 55 -4 66 -5 b 212 -1 144 -5 201 -1 b 367 -5 234 -1 289 -5 b 394 6 383 -5 394 -2 b 374 19 394 13 387 19 b 311 27 355 19 332 20 b 270 155 288 36 273 63 l 257 637 m 643 -123 b 617 -62 643 -111 637 -93 b 588 -31 602 -38 598 -31 b 500 -115 552 -31 500 -73 b 549 -218 500 -131 549 -150 b 515 -322 549 -245 540 -279 b 506 -341 513 -327 506 -336 b 515 -354 506 -347 511 -354 b 536 -340 522 -354 528 -347 b 628 -181 575 -294 613 -218 b 643 -123 637 -162 643 -136 "},"µ":{"x_min":74.859375,"x_max":770.390625,"ha":800,"o":"m 95 207 b 74 -341 95 -1 88 -140 l 95 -348 l 245 -272 b 183 82 217 -202 190 -70 b 367 -22 224 -1 272 -22 b 551 137 462 -22 530 40 b 660 -22 558 5 612 -22 b 770 83 714 -22 759 19 l 749 93 b 703 61 741 79 728 61 b 660 138 677 61 660 83 l 660 623 l 530 623 l 530 276 b 394 82 530 123 476 82 b 224 345 272 82 224 172 l 224 623 l 95 623 l 95 207 "},"č":{"x_min":65.328125,"x_max":899.703125,"ha":979,"o":"m 626 -19 b 842 6 703 -19 794 -12 b 873 41 862 15 868 20 b 899 198 886 81 899 184 b 886 219 899 208 894 219 b 871 195 876 219 873 213 b 830 116 867 173 850 140 b 617 54 782 62 724 54 b 245 468 457 54 245 187 b 355 775 245 583 266 697 b 581 841 409 822 476 841 b 812 772 691 841 771 812 b 858 662 842 741 857 700 b 871 637 858 647 861 637 b 887 666 882 637 886 650 b 891 794 888 690 888 755 b 896 859 894 836 896 850 b 879 873 896 866 892 872 b 759 893 843 877 804 886 b 585 905 705 900 660 905 b 205 780 406 905 292 858 b 65 456 91 676 65 537 b 215 108 65 343 96 209 b 626 -19 323 15 462 -19 m 355 1156 b 348 1143 351 1152 348 1147 b 367 1123 348 1138 352 1134 b 529 998 387 1108 518 1008 b 553 983 544 987 549 983 b 582 1000 562 983 568 987 b 762 1172 601 1016 747 1155 b 774 1193 770 1180 774 1187 b 762 1206 774 1201 769 1206 b 732 1188 755 1206 748 1202 b 590 1086 694 1156 628 1109 b 570 1080 583 1081 575 1080 b 552 1088 564 1080 559 1083 b 432 1191 539 1098 458 1165 b 409 1206 420 1204 415 1206 b 394 1197 405 1206 400 1202 l 355 1156 "},"’":{"x_min":58.53125,"x_max":238.1875,"ha":303,"o":"m 118 1006 b 65 790 118 920 89 838 b 58 772 59 779 58 775 b 66 763 58 766 62 763 b 88 775 74 763 80 766 b 238 1072 149 838 238 987 b 198 1112 238 1093 232 1102 b 85 1138 172 1120 112 1138 b 70 1127 78 1138 70 1131 b 85 1102 70 1120 72 1116 b 118 1006 98 1090 118 1052 "},"-":{"x_min":48.015625,"x_max":532.1875,"ha":590,"o":"m 102 437 b 69 419 78 437 73 436 l 49 323 b 59 298 46 309 49 298 b 119 320 70 298 92 313 b 470 387 167 334 416 379 b 532 418 509 394 532 398 b 488 437 532 434 513 437 l 102 437 "},"":{"x_min":68.046875,"x_max":794.953125,"ha":868,"o":"m 273 70 b 788 854 442 319 622 588 b 794 876 792 862 794 866 b 774 886 794 881 786 886 l 405 886 b 185 888 356 886 299 884 b 137 897 155 890 148 897 b 123 875 130 897 125 891 b 99 704 117 838 99 731 b 111 684 99 690 103 684 b 126 705 118 684 123 688 b 190 795 129 733 151 773 b 360 816 228 816 299 816 l 586 816 b 83 47 426 573 251 306 b 68 12 69 26 68 19 b 88 0 68 4 74 0 b 733 -5 330 0 533 -5 b 770 25 755 -5 763 4 b 793 169 778 54 793 130 b 781 205 793 197 790 205 b 767 186 773 205 770 198 b 745 131 763 169 755 150 b 560 70 725 95 683 70 l 273 70 m 246 1156 b 239 1143 242 1152 239 1147 b 258 1123 239 1138 243 1134 b 420 998 279 1108 409 1008 b 445 983 435 987 441 983 b 473 1000 453 983 460 987 b 653 1172 492 1016 638 1155 b 665 1193 661 1180 665 1187 b 653 1206 665 1201 660 1206 b 623 1188 646 1206 639 1202 b 481 1086 585 1156 519 1109 b 461 1080 475 1081 466 1080 b 443 1088 456 1080 450 1083 b 323 1191 430 1098 349 1165 b 300 1206 311 1204 306 1206 b 285 1197 296 1206 291 1202 l 246 1156 "},"Q":{"x_min":74.859375,"x_max":2079.78125,"ha":1292,"o":"m 1056 -115 b 1631 -304 1280 -250 1426 -304 b 2063 -200 1827 -304 1981 -240 b 2079 -183 2072 -195 2079 -191 b 2067 -170 2079 -176 2074 -170 b 2047 -177 2062 -170 2055 -175 b 1781 -226 1953 -215 1852 -226 b 1220 -61 1689 -226 1508 -211 l 947 81 b 1184 538 1033 140 1184 294 b 632 1065 1184 863 958 1065 b 74 527 234 1065 74 754 b 628 -23 74 277 230 -23 b 842 12 700 -23 788 -8 l 1056 -115 m 679 45 b 264 559 460 45 264 229 b 601 998 264 881 423 998 b 993 501 789 998 993 837 b 679 45 993 94 788 45 "},"M":{"x_min":19.984375,"x_max":1426,"ha":1449,"o":"m 138 134 b 82 25 131 87 120 33 b 41 20 62 20 52 20 b 19 11 28 20 19 18 b 44 -4 19 -1 30 -4 b 179 0 88 -4 153 0 b 322 -4 203 0 264 -4 b 354 11 342 -4 354 -1 b 334 20 354 18 345 20 b 277 27 320 20 301 22 b 236 72 254 33 236 45 b 240 137 236 94 237 112 l 311 690 l 316 690 b 458 381 364 586 446 411 b 614 66 474 343 582 130 b 662 -2 636 25 650 -2 b 712 75 674 -2 681 9 l 1009 705 l 1014 705 l 1096 94 b 1089 34 1102 55 1097 37 b 1074 19 1080 30 1074 26 b 1114 4 1074 11 1083 6 b 1390 -4 1168 0 1356 -4 b 1426 11 1409 -4 1426 0 b 1404 20 1426 19 1416 20 b 1319 34 1386 20 1359 22 b 1253 175 1279 47 1265 87 l 1129 1033 b 1104 1076 1125 1062 1117 1076 b 1074 1043 1092 1076 1085 1065 l 704 250 l 333 1033 b 296 1076 315 1069 307 1076 b 273 1040 285 1076 277 1063 l 138 134 "},"":{"x_min":74.859375,"x_max":1049.421875,"ha":951,"o":"m 352 547 b 353 797 352 726 352 759 b 398 861 356 838 366 855 b 432 865 413 863 420 865 b 449 877 442 865 449 869 b 423 888 449 886 441 888 b 269 886 383 888 298 886 b 102 888 240 886 164 888 b 74 877 84 888 74 886 b 95 865 74 869 83 865 b 142 861 112 865 133 863 b 194 797 181 850 191 837 b 196 547 196 759 196 726 l 196 338 b 190 87 196 230 196 137 b 155 25 186 52 179 30 b 112 20 144 22 130 20 b 93 8 98 20 93 13 b 117 -4 93 0 102 -4 b 268 0 164 -4 240 0 b 450 -4 298 0 383 -4 b 473 8 464 -4 473 0 b 457 20 473 13 466 20 b 398 25 442 20 415 22 b 355 86 368 30 357 52 b 352 338 352 137 352 230 l 352 445 l 357 445 l 370 429 b 677 75 396 393 626 120 b 833 -1 729 29 769 4 b 916 -4 858 -4 880 -4 l 1020 -4 b 1049 8 1042 -4 1049 0 b 1033 20 1049 15 1042 20 b 959 36 1019 20 994 20 b 796 162 895 62 849 113 b 472 512 749 206 514 456 b 725 763 509 555 687 727 b 852 851 775 812 813 837 b 921 865 873 859 903 865 b 939 877 932 865 939 869 b 918 888 939 886 931 888 b 778 886 882 888 815 886 b 654 888 745 886 680 888 b 635 877 642 888 635 886 b 651 865 635 870 641 868 b 668 841 662 862 668 854 b 608 754 668 820 642 793 b 357 494 573 713 398 538 l 352 494 l 352 547 "},"":{"x_min":74.859375,"x_max":1031.71875,"ha":953,"o":"m 196 337 b 190 86 196 229 196 136 b 155 23 186 51 179 29 b 112 19 144 20 130 19 b 93 6 98 19 93 12 b 117 -5 93 -1 102 -5 b 264 -1 164 -5 240 -1 b 450 -5 281 -1 381 -5 b 475 6 465 -5 475 -1 b 460 19 475 12 469 19 b 401 23 445 19 419 20 b 355 86 364 29 359 51 b 348 337 349 136 348 227 l 348 354 b 357 363 348 361 352 363 l 465 361 b 487 352 473 361 480 359 b 600 191 502 334 552 255 b 763 18 666 100 711 44 b 894 -5 794 1 827 -5 l 1008 -5 b 1031 6 1023 -5 1031 -2 b 1016 19 1031 12 1026 19 b 988 22 1007 19 1000 19 b 860 100 969 26 926 31 b 597 413 788 173 703 280 b 763 675 714 509 763 587 b 679 837 763 754 713 813 b 451 887 615 880 528 887 b 265 884 415 887 306 884 b 102 887 240 884 164 887 b 74 876 84 887 74 884 b 95 863 74 868 83 863 b 142 859 112 863 133 862 b 194 795 181 848 191 836 b 196 545 196 758 196 725 l 196 337 m 348 805 b 359 822 348 815 351 819 b 430 826 371 825 400 826 b 612 616 500 826 612 783 b 534 441 612 519 571 468 b 450 422 514 426 498 422 b 359 433 420 422 385 425 b 348 454 351 437 348 441 l 348 805 "},"":{"x_min":-75.140625,"x_max":925.109375,"ha":878,"o":"m 529 292 b 541 284 534 292 538 291 l 633 46 b 622 20 639 33 631 21 b 607 8 610 19 607 15 b 643 -1 607 0 621 0 b 873 -4 744 -4 831 -4 b 925 8 918 -4 925 -1 b 908 20 925 16 919 20 b 863 24 895 20 881 21 b 761 151 842 28 808 44 b 456 878 685 330 485 813 b 421 916 444 905 439 916 b 386 869 409 916 399 902 l 73 126 b -26 21 48 66 28 30 b -61 20 -37 21 -50 20 b -75 8 -71 20 -75 15 b -53 -4 -75 -1 -68 -4 b 85 0 9 -4 73 0 b 218 -4 123 0 179 -4 b 237 8 231 -4 237 -1 b 220 20 237 15 235 20 l 202 20 b 154 53 165 20 154 33 b 172 126 154 67 160 96 l 236 284 b 247 292 239 291 240 292 l 529 292 m 271 358 b 267 366 267 358 265 360 l 383 665 b 390 676 384 669 386 676 b 395 665 393 676 394 669 l 508 365 b 503 358 510 360 508 358 l 271 358 m 616 1194 b 597 1210 609 1206 606 1210 b 569 1198 593 1210 583 1208 b 350 1023 548 1184 405 1076 b 338 1005 344 1016 338 1010 b 346 996 338 999 344 996 b 369 1008 349 996 359 1002 b 602 1090 420 1035 527 1080 b 648 1090 629 1092 642 1090 b 655 1110 655 1090 663 1094 b 616 1194 639 1148 627 1174 "},"œ":{"x_min":65.328125,"x_max":1376.078125,"ha":1482,"o":"m 1026 430 b 1034 441 1026 437 1027 441 b 1219 437 1063 441 1197 440 b 1286 391 1264 433 1279 415 b 1290 348 1288 376 1288 361 b 1301 338 1290 343 1293 338 b 1313 363 1312 338 1313 354 b 1318 443 1313 372 1316 419 b 1328 531 1325 502 1328 525 b 1320 541 1328 540 1324 541 b 1299 526 1313 541 1309 536 b 1242 509 1290 515 1271 511 b 1034 506 1215 508 1061 506 b 1026 519 1027 506 1026 511 l 1026 809 b 1034 820 1026 816 1029 820 b 1220 816 1058 820 1200 819 b 1298 773 1280 811 1288 794 b 1306 730 1305 759 1306 738 b 1317 715 1306 720 1308 715 b 1331 733 1325 715 1329 727 b 1337 811 1333 747 1336 798 b 1347 887 1340 865 1347 879 b 1339 898 1347 893 1346 898 b 1320 893 1333 898 1327 894 b 1269 886 1310 890 1291 886 l 950 886 b 891 888 910 886 898 888 b 880 877 884 888 880 884 b 882 854 880 869 882 862 b 883 762 883 840 883 820 l 880 762 b 539 905 812 840 721 905 b 65 444 205 905 65 663 b 532 -19 65 231 200 -19 b 883 113 696 -19 798 31 b 882 40 883 83 883 52 b 879 4 880 23 879 13 b 890 -4 879 0 883 -4 b 931 0 901 -4 911 0 b 1071 -4 973 0 1018 -1 b 1295 -6 1124 -6 1205 -6 b 1359 23 1340 -6 1351 -6 b 1376 154 1366 47 1376 127 b 1363 181 1376 166 1373 181 b 1350 163 1355 181 1352 176 b 1297 76 1342 115 1327 90 b 1186 62 1265 62 1218 62 b 1026 162 1064 62 1029 80 b 1026 336 1024 197 1026 295 l 1026 430 m 239 479 b 526 841 239 736 374 841 b 882 401 737 841 882 647 b 593 47 882 156 741 47 b 239 479 404 47 239 197 "},"ě":{"x_min":74.859375,"x_max":707.78125,"ha":800,"o":"m 196 338 b 190 87 196 230 196 137 b 155 25 186 52 179 30 b 112 20 144 22 130 20 b 93 8 98 20 93 13 b 117 -4 93 0 102 -4 b 200 -1 141 -4 171 -2 b 268 0 228 -1 254 0 b 406 -2 303 0 348 -1 b 627 -6 465 -5 537 -6 b 691 23 672 -6 683 -6 b 707 154 698 47 707 127 b 696 181 707 166 706 181 b 683 163 688 181 686 176 b 631 76 675 115 661 90 b 518 61 600 62 549 61 b 356 159 396 61 359 79 b 356 334 355 194 356 294 l 356 429 b 363 441 356 436 357 441 b 551 436 393 441 529 438 b 617 390 596 431 611 413 b 622 347 620 375 620 359 b 632 337 622 341 624 337 b 645 363 643 337 645 354 b 650 443 645 372 647 419 b 660 529 657 502 660 522 b 650 541 660 536 656 541 b 631 526 645 541 641 534 b 574 508 620 513 602 511 b 364 505 547 505 392 505 b 356 518 357 505 356 511 l 356 809 b 364 820 356 816 359 820 b 552 815 389 820 532 818 b 631 772 612 809 622 793 b 639 729 638 758 639 737 b 649 713 639 719 641 713 b 662 733 658 713 661 727 b 669 811 665 747 668 798 b 679 887 672 865 679 879 b 671 898 679 893 677 898 b 651 893 665 898 658 894 b 601 886 642 891 623 887 b 274 886 578 884 313 886 b 102 888 240 886 164 888 b 74 877 84 888 74 886 b 95 865 74 869 83 865 b 142 861 112 865 133 863 b 194 797 181 850 191 837 b 196 547 196 759 196 726 l 196 338 m 225 1156 b 219 1143 221 1152 219 1147 b 238 1123 219 1138 223 1134 b 400 998 258 1108 389 1008 b 424 983 415 987 420 983 b 453 1000 432 983 439 987 b 632 1172 472 1016 617 1155 b 645 1193 641 1180 645 1187 b 632 1206 645 1201 639 1206 b 602 1188 626 1206 619 1202 b 461 1086 564 1156 499 1109 b 441 1080 454 1081 446 1080 b 423 1088 435 1080 430 1083 b 303 1191 409 1098 329 1165 b 280 1206 291 1204 285 1206 b 265 1197 276 1206 270 1202 l 225 1156 "},"{":{"x_min":65.328125,"x_max":428.75,"ha":500,"o":"m 185 488 b 283 593 221 499 270 545 b 294 843 298 650 294 718 b 402 1014 294 961 370 1009 b 427 1027 419 1017 427 1018 b 400 1036 427 1034 419 1036 b 251 979 351 1036 294 1018 b 164 735 200 931 164 875 b 178 584 164 700 178 635 b 161 515 178 553 175 527 b 84 495 137 493 104 496 b 65 479 69 493 65 490 b 84 465 65 470 69 468 b 166 431 122 460 151 454 b 175 389 172 421 175 406 b 164 240 175 357 164 284 b 234 -75 164 43 198 -25 b 379 -168 284 -146 348 -168 b 428 -159 421 -168 428 -167 b 396 -140 428 -150 421 -147 b 294 170 348 -129 294 -63 b 280 378 294 271 296 318 b 185 486 265 434 221 472 l 185 488 "},"¼":{"x_min":31.3125,"x_max":1091.609375,"ha":1168,"o":"m 1091 236 b 1083 245 1091 240 1087 245 b 1038 236 1079 245 1063 236 l 965 236 l 965 627 b 951 641 965 636 959 641 b 926 626 944 641 935 636 b 551 208 894 590 575 237 b 537 184 547 204 537 194 b 556 169 537 177 545 169 l 865 169 b 864 63 865 159 865 101 b 824 25 862 38 854 27 b 785 20 811 23 792 20 b 774 9 779 20 774 16 b 785 -2 774 5 775 -2 b 892 0 834 -2 887 0 b 1038 -2 899 0 989 -2 b 1052 9 1048 -2 1052 5 b 1043 20 1052 13 1048 20 b 1004 25 1034 20 1016 23 b 966 63 975 27 969 38 b 965 169 963 101 965 159 l 1058 169 b 1076 180 1068 169 1073 172 b 1091 236 1080 195 1091 231 m 865 236 l 639 236 l 860 481 l 865 481 l 865 236 m 971 1033 l 931 1061 b 913 1055 924 1065 920 1065 l 183 31 b 181 8 175 20 175 12 l 220 -20 b 236 -13 225 -25 230 -22 l 970 1016 b 971 1033 975 1025 975 1030 m 421 434 b 401 445 421 443 412 445 b 338 452 392 445 355 448 b 299 497 307 459 302 473 b 295 673 295 533 295 604 l 295 826 b 299 1047 295 962 299 1029 b 288 1065 299 1056 298 1065 b 251 1048 279 1065 268 1058 b 38 915 232 1036 43 919 b 31 904 35 913 31 908 b 39 891 31 897 36 891 b 54 895 44 891 49 893 b 167 940 76 905 148 940 b 183 915 178 940 182 931 b 185 826 185 898 185 870 l 185 673 b 181 497 185 604 185 533 b 140 452 178 473 172 459 b 62 445 121 448 73 445 b 43 433 51 445 43 441 b 68 420 43 423 53 420 b 232 423 134 420 201 423 b 397 420 269 423 323 420 b 421 434 413 420 421 425 "},"#":{"x_min":39.046875,"x_max":776.953125,"ha":833,"o":"m 776 638 l 776 752 l 631 752 l 673 1047 l 591 1047 l 549 752 l 344 752 l 388 1047 l 305 1047 l 262 752 l 79 752 l 79 638 l 247 638 l 216 430 l 39 430 l 39 318 l 201 318 l 153 0 l 235 0 l 281 318 l 488 318 l 446 0 l 526 0 l 571 318 l 738 318 l 738 430 l 586 430 l 616 638 l 776 638 m 534 638 l 506 430 l 297 430 l 330 638 l 534 638 "},"Ê":{"x_min":85.75,"x_max":773.109375,"ha":878,"o":"m 223 398 b 216 102 223 270 223 161 b 176 26 210 62 204 31 b 127 20 164 23 148 20 b 106 9 111 20 106 16 b 133 -4 106 0 115 -4 b 227 -1 160 -4 196 -1 b 304 0 259 0 289 0 b 446 -4 345 0 387 -1 b 681 -8 504 -5 579 -8 b 755 27 733 -8 745 -8 b 773 181 762 55 773 150 b 762 206 773 195 773 206 b 747 186 752 206 749 201 b 686 83 737 129 721 100 b 558 66 650 66 593 66 b 394 183 419 66 397 87 b 394 398 393 223 394 351 l 394 508 b 402 522 394 516 396 522 b 596 518 435 522 570 520 b 672 463 646 512 665 491 b 677 413 676 445 676 427 b 690 401 677 406 680 401 b 702 427 702 401 702 416 b 707 520 702 437 706 493 b 718 622 713 591 718 613 b 709 633 718 630 714 633 b 687 615 702 633 696 626 b 622 594 675 601 654 597 b 404 591 590 591 434 591 b 394 606 396 591 394 597 l 394 958 b 404 972 394 968 397 972 b 597 966 431 972 574 969 b 688 916 665 958 679 941 b 696 866 695 900 696 876 b 709 847 696 854 699 847 b 722 862 718 847 721 855 b 729 954 725 879 728 940 b 740 1044 733 1018 740 1034 b 732 1056 740 1051 739 1056 b 710 1051 725 1056 717 1052 b 651 1043 699 1048 677 1045 b 311 1041 626 1041 355 1041 b 225 1044 292 1041 261 1043 b 115 1045 191 1044 152 1045 b 85 1033 95 1045 85 1043 b 108 1020 85 1023 93 1020 b 161 1016 127 1020 151 1019 b 220 937 206 1006 217 984 b 223 643 223 893 223 854 l 223 398 m 464 1362 b 435 1345 455 1362 449 1358 b 255 1173 416 1329 270 1190 b 243 1152 249 1165 243 1158 b 255 1138 243 1144 249 1138 b 283 1155 262 1138 269 1143 b 427 1258 323 1191 389 1236 b 447 1265 435 1262 442 1265 b 465 1256 453 1265 458 1262 b 585 1154 479 1247 560 1180 b 605 1138 596 1143 600 1138 b 623 1148 612 1138 617 1143 l 662 1188 b 669 1202 666 1193 669 1198 b 650 1222 669 1206 665 1211 b 488 1347 630 1237 499 1337 b 464 1362 473 1358 468 1362 "},")":{"x_min":81.671875,"x_max":412.421875,"ha":500,"o":"m 280 420 b 89 -143 280 159 151 -69 b 81 -158 85 -147 81 -154 b 91 -169 81 -163 85 -169 b 107 -161 96 -169 102 -165 b 412 438 191 -104 412 136 b 106 1029 412 740 212 952 b 92 1036 100 1033 96 1036 b 81 1026 87 1036 81 1033 b 92 1005 81 1018 88 1011 b 280 420 200 865 280 686 "},"ș":{"x_min":107.53125,"x_max":645.171875,"ha":750,"o":"m 325 -19 b 525 29 389 -19 468 -12 b 645 250 612 91 645 162 b 438 536 645 356 596 447 l 389 563 b 262 719 281 625 262 666 b 426 845 262 800 340 845 b 559 790 503 845 541 812 b 590 712 585 759 590 723 b 602 691 590 698 594 691 b 617 729 612 691 617 704 b 622 870 617 822 622 855 b 605 886 622 879 616 883 b 435 905 574 894 513 905 b 133 668 269 905 133 812 b 321 400 133 563 179 484 l 390 358 b 509 191 496 294 509 243 b 343 41 509 108 446 41 b 152 158 268 41 178 70 b 141 219 145 179 141 204 b 129 238 141 227 140 238 b 114 208 119 238 114 226 b 107 51 112 188 107 115 b 130 11 107 25 111 19 b 325 -19 182 -12 255 -19 m 439 -163 b 413 -102 439 -151 432 -133 b 383 -72 398 -79 394 -72 b 296 -155 348 -72 296 -113 b 345 -258 296 -172 345 -190 b 311 -362 345 -286 336 -319 b 302 -381 308 -368 302 -376 b 311 -394 302 -387 307 -394 b 332 -380 318 -394 323 -387 b 424 -222 371 -334 409 -258 b 439 -163 432 -202 439 -176 "},"Å":{"x_min":-86.71875,"x_max":1033.46875,"ha":972,"o":"m 581 358 b 595 348 588 358 592 355 l 704 54 b 691 22 710 37 701 25 b 672 9 678 20 672 18 b 713 -1 672 0 689 0 b 970 -4 822 -4 921 -4 b 1033 9 1021 -4 1033 -1 b 1015 20 1033 19 1026 20 b 958 26 999 20 979 22 b 838 177 930 33 890 52 b 501 1031 751 388 533 955 b 467 1076 487 1063 479 1076 b 429 1020 453 1076 445 1061 l 87 148 b -28 23 60 79 34 31 b -70 20 -39 22 -58 20 b -86 9 -81 20 -86 18 b -60 -4 -86 -1 -78 -4 b 99 0 9 -4 84 0 b 244 -4 141 0 200 -4 b 267 9 259 -4 267 -1 b 246 20 267 18 263 20 l 226 20 b 171 63 184 20 171 38 b 192 148 171 80 178 113 l 265 347 b 278 358 268 355 271 358 l 581 358 m 305 427 b 299 437 299 427 298 431 l 425 779 b 433 791 426 784 429 791 b 440 779 437 791 438 784 l 562 436 b 555 427 563 431 562 427 l 305 427 m 441 1138 b 636 1263 529 1138 637 1186 b 506 1344 636 1311 585 1344 b 320 1222 400 1344 320 1286 b 441 1138 320 1175 366 1138 m 403 1241 b 480 1309 403 1288 449 1309 b 553 1245 529 1309 553 1279 b 471 1173 553 1206 516 1173 b 403 1241 438 1173 403 1200 "},"¸":{"x_min":491.359375,"x_max":764.953125,"ha":1288,"o":"m 653 0 l 525 -97 b 503 -118 507 -111 503 -113 b 533 -129 503 -122 514 -126 b 641 -230 624 -143 641 -193 b 526 -323 641 -288 571 -323 b 491 -341 507 -323 491 -329 b 514 -355 491 -351 502 -355 b 764 -206 709 -355 764 -262 b 604 -95 764 -144 703 -105 l 730 0 l 653 0 "},"a":{"x_min":-75.140625,"x_max":925.109375,"ha":878,"o":"m 529 293 b 541 284 534 293 538 291 l 633 47 b 622 20 639 33 631 22 b 607 8 610 19 607 15 b 643 -1 607 0 621 0 b 873 -4 744 -4 831 -4 b 925 8 918 -4 925 -1 b 908 20 925 16 919 20 b 863 25 895 20 881 22 b 761 151 842 29 808 44 b 456 879 685 330 485 813 b 421 916 444 905 439 916 b 386 869 409 916 399 902 l 73 126 b -26 22 48 66 28 30 b -61 20 -37 22 -50 20 b -75 8 -71 20 -75 15 b -53 -4 -75 -1 -68 -4 b 85 0 9 -4 73 0 b 218 -4 123 0 179 -4 b 237 8 231 -4 237 -1 b 220 20 237 15 235 20 l 202 20 b 154 54 165 20 154 33 b 172 126 154 68 160 97 l 236 284 b 247 293 239 291 240 293 l 529 293 m 271 358 b 267 366 267 358 265 361 l 383 665 b 390 676 384 669 386 676 b 395 665 393 676 394 669 l 508 365 b 503 358 510 361 508 358 l 271 358 "},"Ę":{"x_min":85.75,"x_max":773.109375,"ha":878,"o":"m 653 -235 b 574 -167 602 -235 574 -213 b 669 -8 574 -103 615 -20 b 755 28 706 0 745 -8 b 773 182 762 55 773 150 b 762 207 773 196 773 207 b 747 186 752 207 749 201 b 686 83 737 129 721 100 b 558 66 650 66 593 66 b 394 183 419 66 397 87 b 394 398 393 223 394 351 l 394 508 b 402 522 394 516 396 522 b 596 518 435 522 570 521 b 672 464 646 512 665 491 b 677 414 676 446 676 427 b 690 401 677 407 680 401 b 702 427 702 401 702 416 b 707 521 702 437 706 493 b 718 622 713 591 718 614 b 709 633 718 630 714 633 b 687 615 702 633 696 626 b 622 594 675 601 654 597 b 404 591 590 591 434 591 b 394 607 396 591 394 597 l 394 958 b 404 972 394 968 397 972 b 597 966 431 972 574 969 b 688 916 665 958 679 941 b 696 866 695 900 696 876 b 709 847 696 854 699 847 b 722 862 718 847 721 855 b 729 954 725 879 728 940 b 740 1044 733 1018 740 1034 b 732 1057 740 1051 739 1057 b 710 1051 725 1057 717 1052 b 651 1043 699 1048 677 1046 b 311 1041 626 1041 355 1041 b 225 1044 292 1041 261 1043 b 115 1046 191 1044 152 1046 b 85 1033 95 1046 85 1043 b 108 1021 85 1023 93 1021 b 161 1016 127 1021 151 1019 b 220 937 206 1007 217 984 b 223 643 223 893 223 854 l 223 398 b 216 102 223 271 223 161 b 176 26 210 62 204 32 b 127 21 164 23 148 21 b 106 9 111 21 106 16 b 133 -3 106 0 115 -3 b 227 -1 160 -3 196 -1 b 304 0 259 0 289 0 b 446 -3 345 0 387 -2 b 593 -8 487 -5 533 -6 b 451 -209 551 -37 451 -135 b 575 -314 451 -284 492 -314 b 744 -223 668 -314 730 -238 b 755 -201 749 -216 755 -206 b 743 -189 755 -194 749 -189 b 653 -235 729 -189 705 -235 "},"=":{"x_min":54.4375,"x_max":692.8125,"ha":763,"o":"m 692 440 l 692 525 l 54 525 l 54 440 l 692 440 m 692 177 l 692 262 l 54 262 l 54 177 l 692 177 "},"˚":{"x_min":473.671875,"x_max":789.46875,"ha":1288,"o":"m 594 1138 b 789 1263 683 1138 790 1186 b 660 1344 789 1311 739 1344 b 473 1222 553 1344 473 1286 b 594 1138 473 1175 519 1138 m 556 1241 b 634 1309 556 1288 602 1309 b 706 1245 683 1309 706 1279 b 624 1173 706 1206 669 1173 b 556 1241 592 1173 556 1200 "},"ú":{"x_min":24.5,"x_max":996.328125,"ha":1056,"o":"m 144 373 b 253 60 144 202 191 115 b 526 -19 340 -16 464 -19 b 779 65 604 -19 695 -7 b 894 420 880 149 894 288 l 894 546 b 896 796 894 726 895 759 b 940 860 899 838 907 855 b 975 865 955 863 962 865 b 996 877 989 865 996 869 b 971 888 996 885 988 888 b 831 885 925 888 845 885 b 688 888 830 885 749 888 b 664 877 672 888 664 885 b 684 865 664 869 671 865 b 728 860 698 865 718 863 b 778 796 766 849 775 837 b 781 546 779 759 781 726 l 781 398 b 711 110 781 277 778 174 b 551 48 664 63 602 48 b 400 95 510 48 453 52 b 308 381 341 142 308 209 l 308 546 b 311 796 308 726 308 759 b 355 860 314 838 323 855 b 390 865 370 863 377 865 b 409 877 402 865 409 869 b 383 888 409 885 401 888 b 230 885 340 888 259 885 b 50 888 194 885 114 888 b 24 877 32 888 24 885 b 44 865 24 869 31 865 b 91 860 61 865 81 863 b 142 796 129 849 140 838 b 144 546 145 759 144 726 l 144 373 m 703 1194 b 684 1210 696 1206 694 1210 b 657 1198 680 1210 671 1208 b 438 1023 635 1184 492 1076 b 426 1005 431 1016 426 1010 b 434 996 426 999 431 996 b 457 1008 436 996 446 1002 b 690 1090 507 1035 615 1080 b 736 1090 717 1092 729 1090 b 743 1110 743 1090 751 1094 b 703 1194 726 1148 714 1174 "},"¯":{"x_min":448.84375,"x_max":813.421875,"ha":1288,"o":"m 786 1190 b 801 1198 796 1190 800 1193 l 812 1248 b 801 1262 815 1258 811 1262 l 475 1262 b 460 1250 465 1262 462 1259 l 449 1200 b 460 1190 447 1193 450 1190 l 786 1190 "},"Z":{"x_min":79.96875,"x_max":902.03125,"ha":986,"o":"m 301 76 b 888 1004 493 375 700 693 b 899 1030 893 1013 899 1022 b 876 1041 899 1037 889 1041 l 461 1041 b 210 1045 405 1041 339 1040 b 156 1055 176 1047 168 1055 b 139 1029 148 1055 142 1048 b 112 829 133 987 112 861 b 123 805 112 812 114 805 b 139 830 131 805 137 811 b 213 938 143 862 168 913 b 409 968 256 963 339 968 l 676 968 b 100 55 493 675 292 361 b 79 13 84 30 79 23 b 103 0 79 4 88 0 b 833 -6 378 0 606 -6 b 874 29 858 -6 868 4 b 902 198 884 63 902 154 b 888 241 902 231 899 241 b 874 219 880 241 877 233 b 850 152 870 200 862 175 b 636 76 828 111 775 76 l 301 76 "},"":{"x_min":559.421875,"x_max":702.328125,"ha":1288,"o":"m 702 -163 b 676 -102 702 -151 695 -133 b 646 -72 661 -79 657 -72 b 559 -155 611 -72 559 -113 b 608 -258 559 -172 608 -190 b 574 -362 608 -286 598 -319 b 564 -381 571 -368 564 -376 b 574 -394 564 -387 570 -394 b 594 -380 581 -394 586 -387 b 687 -222 634 -334 672 -258 b 702 -163 695 -202 702 -176 "},"u":{"x_min":24.5,"x_max":996.328125,"ha":1056,"o":"m 144 373 b 253 61 144 202 191 115 b 526 -19 340 -16 464 -19 b 779 65 604 -19 695 -6 b 894 420 880 150 894 288 l 894 547 b 896 797 894 726 895 759 b 940 861 899 838 907 855 b 975 865 955 863 962 865 b 996 877 989 865 996 869 b 971 888 996 886 988 888 b 831 886 925 888 845 886 b 688 888 830 886 749 888 b 664 877 672 888 664 886 b 684 865 664 869 671 865 b 728 861 698 865 718 863 b 778 797 766 850 775 837 b 781 547 779 759 781 726 l 781 398 b 711 111 781 277 778 175 b 551 48 664 63 602 48 b 400 95 510 48 453 52 b 308 381 341 143 308 209 l 308 547 b 311 797 308 726 308 759 b 355 861 314 838 323 855 b 390 865 370 863 377 865 b 409 877 402 865 409 869 b 383 888 409 886 401 888 b 230 886 340 888 259 886 b 50 888 194 886 114 888 b 24 877 32 888 24 886 b 44 865 24 869 31 865 b 91 861 61 865 81 863 b 142 797 129 850 140 838 b 144 547 145 759 144 726 l 144 373 "},"k":{"x_min":74.859375,"x_max":1049.421875,"ha":951,"o":"m 352 547 b 353 797 352 726 352 759 b 398 861 356 838 366 855 b 432 865 413 863 420 865 b 449 877 442 865 449 869 b 423 888 449 886 441 888 b 269 886 383 888 298 886 b 102 888 240 886 164 888 b 74 877 84 888 74 886 b 95 865 74 869 83 865 b 142 861 112 865 133 863 b 194 797 181 850 191 837 b 196 547 196 759 196 726 l 196 338 b 190 87 196 230 196 137 b 155 25 186 52 179 30 b 112 20 144 22 130 20 b 93 8 98 20 93 13 b 117 -4 93 0 102 -4 b 268 0 164 -4 240 0 b 450 -4 298 0 383 -4 b 473 8 464 -4 473 0 b 457 20 473 13 466 20 b 398 25 442 20 415 22 b 355 86 368 30 357 52 b 352 338 352 137 352 230 l 352 445 l 357 445 l 370 429 b 677 75 396 393 626 120 b 833 -1 729 29 769 4 b 916 -4 858 -4 880 -4 l 1020 -4 b 1049 8 1042 -4 1049 0 b 1033 20 1049 15 1042 20 b 959 36 1019 20 994 20 b 796 162 895 62 849 113 b 472 512 749 206 514 456 b 725 763 509 555 687 727 b 852 851 775 812 813 837 b 921 865 873 859 903 865 b 939 877 932 865 939 869 b 918 888 939 886 931 888 b 778 886 882 888 815 886 b 654 888 745 886 680 888 b 635 877 642 888 635 886 b 651 865 635 870 641 868 b 668 841 662 862 668 854 b 608 754 668 820 642 793 b 357 494 573 713 398 538 l 352 494 l 352 547 "},"Ù":{"x_min":27.21875,"x_max":1117.46875,"ha":1183,"o":"m 164 440 b 285 72 164 238 216 136 b 588 -23 385 -19 515 -23 b 871 76 676 -23 774 -8 b 1000 494 985 176 1000 340 l 1000 643 b 1003 937 1000 854 1000 893 b 1053 1016 1005 986 1016 1009 b 1092 1020 1069 1019 1078 1020 b 1117 1033 1109 1020 1117 1023 b 1088 1045 1117 1043 1107 1045 b 933 1041 1035 1045 950 1041 b 777 1045 932 1041 846 1045 b 748 1033 758 1045 748 1043 b 771 1020 748 1023 756 1020 b 820 1016 786 1020 809 1019 b 879 937 865 1006 876 984 b 882 643 882 893 882 854 l 882 469 b 803 125 882 326 877 201 b 615 50 748 69 675 50 b 445 106 568 50 506 55 b 338 448 378 162 338 247 l 338 643 b 341 937 338 854 338 893 b 392 1016 344 986 355 1009 b 431 1020 408 1019 416 1020 b 453 1033 445 1020 453 1023 b 423 1045 453 1043 443 1045 b 255 1041 374 1045 288 1041 b 57 1045 215 1041 129 1045 b 27 1033 36 1045 27 1043 b 50 1020 27 1023 35 1020 b 103 1016 69 1020 92 1019 b 161 937 148 1006 159 984 b 164 643 164 893 164 854 l 164 440 m 686 1162 b 657 1187 686 1172 671 1176 b 506 1329 594 1233 518 1312 b 484 1359 492 1348 491 1359 b 458 1350 477 1359 473 1356 b 367 1315 441 1341 393 1323 b 349 1302 356 1312 349 1309 b 394 1268 349 1294 368 1279 b 671 1152 417 1256 650 1152 b 686 1162 676 1152 686 1155 "},"Ů":{"x_min":27.21875,"x_max":1117.46875,"ha":1183,"o":"m 164 440 b 285 72 164 238 216 136 b 588 -23 385 -19 515 -23 b 871 76 676 -23 774 -8 b 1000 494 985 176 1000 340 l 1000 643 b 1003 937 1000 854 1000 893 b 1053 1016 1005 986 1016 1009 b 1092 1020 1069 1019 1078 1020 b 1117 1033 1109 1020 1117 1023 b 1088 1045 1117 1043 1107 1045 b 933 1041 1035 1045 950 1041 b 777 1045 932 1041 846 1045 b 748 1033 758 1045 748 1043 b 771 1020 748 1023 756 1020 b 820 1016 786 1020 809 1019 b 879 937 865 1006 876 984 b 882 643 882 893 882 854 l 882 469 b 803 125 882 326 877 201 b 615 50 748 69 675 50 b 445 106 568 50 506 55 b 338 448 378 162 338 247 l 338 643 b 341 937 338 854 338 893 b 392 1016 344 986 355 1009 b 431 1020 408 1019 416 1020 b 453 1033 445 1020 453 1023 b 423 1045 453 1043 443 1045 b 255 1041 374 1045 288 1041 b 57 1045 215 1041 129 1045 b 27 1033 36 1045 27 1043 b 50 1020 27 1023 35 1020 b 103 1016 69 1020 92 1019 b 161 937 148 1006 159 984 b 164 643 164 893 164 854 l 164 440 m 583 1138 b 778 1263 672 1138 779 1186 b 649 1344 778 1311 728 1344 b 462 1222 543 1344 462 1286 b 583 1138 462 1175 509 1138 m 545 1241 b 623 1309 545 1288 592 1309 b 695 1245 672 1309 695 1279 b 613 1173 695 1206 658 1173 b 545 1241 581 1173 545 1200 "},"¢":{"x_min":83.03125,"x_max":726.828125,"ha":833,"o":"m 528 812 b 660 761 594 812 641 784 b 692 669 679 736 690 709 b 705 654 694 659 696 654 b 718 669 713 654 717 658 b 726 812 721 705 726 780 b 717 841 726 834 726 837 b 537 877 650 868 574 877 l 556 1027 b 541 1036 558 1034 552 1037 l 498 1030 b 484 1016 487 1029 485 1025 l 469 877 b 189 783 348 877 264 848 b 83 527 149 750 83 661 b 389 168 83 326 210 200 l 364 -40 b 377 -48 363 -47 367 -50 l 427 -41 b 438 -26 434 -40 436 -36 l 457 159 b 518 158 476 158 490 158 b 686 181 553 158 626 163 b 705 205 698 186 702 190 b 722 356 711 241 722 333 b 711 373 722 368 720 373 b 694 351 703 373 698 368 b 524 231 668 250 607 231 b 466 237 507 231 490 233 l 528 812 m 398 252 b 231 565 337 275 231 380 b 460 812 231 704 332 820 l 398 252 "},"":{"x_min":-9.53125,"x_max":778.5625,"ha":842,"o":"m 553 498 b 588 509 578 498 585 501 l 604 556 b 594 570 607 563 602 570 b 534 565 588 570 571 565 l 363 565 l 389 752 b 582 1005 413 926 487 1005 b 707 954 638 1005 681 987 b 740 851 728 929 739 876 b 754 829 740 836 744 829 b 767 848 763 829 766 837 b 778 1012 771 870 778 943 b 764 1041 778 1033 775 1040 b 728 1048 752 1043 741 1045 b 605 1065 699 1058 654 1065 b 370 979 525 1065 454 1052 b 221 637 273 897 240 766 l 210 563 l 106 563 b 85 554 95 563 88 562 l 72 513 b 76 497 69 504 70 497 b 106 500 83 497 88 500 l 202 500 l 185 350 b 31 44 166 188 136 69 b -9 16 4 37 -9 30 b 31 0 -9 1 4 0 l 306 0 b 509 -2 394 0 457 -1 b 656 -6 562 -5 605 -6 b 741 20 732 -6 736 -2 b 767 223 758 84 767 202 b 755 245 767 241 763 245 b 740 229 747 245 743 241 b 545 111 725 140 683 112 l 201 106 l 198 116 b 348 436 307 208 341 373 l 355 498 l 553 498 "},"Ş":{"x_min":122.5,"x_max":691.453125,"ha":808,"o":"m 691 274 b 468 628 691 406 632 502 l 430 657 b 285 857 317 745 285 794 b 447 1001 285 941 347 1001 b 596 932 536 1001 575 959 b 631 841 624 896 631 853 b 645 816 631 824 635 816 b 660 857 656 816 660 827 b 665 1024 660 966 665 1006 b 646 1041 665 1034 658 1038 b 465 1064 611 1051 553 1064 b 151 802 276 1064 151 955 b 352 473 151 689 202 592 l 415 423 b 548 201 528 332 548 269 b 366 42 548 127 488 42 b 171 182 281 42 201 80 b 159 253 164 206 159 235 b 145 277 159 264 157 277 b 129 241 134 277 130 262 b 122 59 127 219 122 135 b 148 12 122 28 126 21 b 347 -24 206 -14 268 -24 b 385 -22 360 -24 374 -24 l 287 -97 b 265 -118 269 -111 265 -114 b 295 -129 265 -122 276 -126 b 402 -230 386 -143 402 -193 b 288 -323 402 -289 333 -323 b 253 -342 269 -323 253 -329 b 276 -355 253 -351 264 -355 b 526 -207 470 -355 526 -262 b 366 -96 526 -144 465 -105 l 491 -1 b 691 274 577 24 691 113 "},"é":{"x_min":74.84375,"x_max":707.765625,"ha":800,"o":"m 195 338 b 190 87 195 230 195 137 b 155 25 186 52 179 30 b 112 20 144 22 130 20 b 93 8 97 20 93 13 b 117 -4 93 0 102 -4 b 200 -1 141 -4 171 -2 b 268 0 228 -1 254 0 b 406 -2 303 0 348 -1 b 627 -6 465 -5 537 -6 b 691 23 672 -6 683 -6 b 707 154 698 47 707 127 b 696 181 707 166 706 181 b 683 163 688 181 685 176 b 631 76 675 115 661 90 b 518 61 600 62 549 61 b 356 159 396 61 359 79 b 356 334 355 194 356 294 l 356 429 b 363 441 356 436 357 441 b 551 436 393 441 529 438 b 617 390 596 431 611 413 b 622 347 620 375 620 359 b 632 337 622 341 624 337 b 645 363 643 337 645 354 b 650 443 645 372 647 419 b 660 529 657 502 660 522 b 650 541 660 536 656 541 b 631 526 645 541 641 534 b 574 508 620 513 602 511 b 364 505 547 505 391 505 b 356 518 357 505 356 511 l 356 809 b 364 820 356 816 359 820 b 552 815 389 820 532 818 b 631 772 612 809 622 793 b 639 729 638 758 639 737 b 649 713 639 719 641 713 b 662 733 658 713 661 727 b 669 811 665 747 668 798 b 679 887 672 865 679 879 b 671 898 679 893 677 898 b 651 893 665 898 658 894 b 601 886 642 891 623 887 b 274 886 578 884 313 886 b 102 888 240 886 164 888 b 74 877 84 888 74 886 b 95 865 74 869 83 865 b 142 861 112 865 133 863 b 194 797 181 850 191 837 b 195 547 195 759 195 726 l 195 338 m 578 1194 b 559 1210 571 1206 568 1210 b 532 1198 555 1210 545 1208 b 313 1023 510 1184 367 1076 b 300 1005 306 1016 300 1010 b 308 997 300 999 306 997 b 332 1008 311 997 321 1002 b 564 1090 382 1035 489 1080 b 611 1090 592 1092 604 1090 b 617 1110 617 1090 626 1094 b 578 1194 601 1148 589 1174 "},"B":{"x_min":85.890625,"x_max":865.796875,"ha":982,"o":"m 223 398 b 216 102 223 270 223 161 b 177 26 211 62 204 31 b 128 20 164 23 148 20 b 106 9 111 20 106 16 b 133 -4 106 0 115 -4 b 227 -1 160 -4 196 -1 b 305 0 260 0 290 0 b 407 -4 325 0 366 -1 b 502 -8 446 -5 486 -8 b 865 294 752 -8 865 145 b 618 594 865 456 729 555 b 756 837 692 655 756 723 b 467 1045 756 911 713 1045 b 300 1041 420 1045 367 1041 b 115 1045 273 1041 187 1045 b 85 1033 95 1045 85 1043 b 109 1020 85 1023 94 1020 b 162 1016 128 1020 151 1019 b 220 937 207 1006 217 984 b 223 643 223 893 223 854 l 223 398 m 386 962 b 398 986 386 977 389 983 b 443 988 412 988 424 988 b 614 773 560 988 614 866 b 558 626 614 705 593 655 b 460 600 535 605 505 600 b 396 604 428 600 408 601 b 386 619 390 605 386 608 l 386 962 m 698 231 b 533 54 698 87 594 54 b 434 70 502 54 471 55 b 386 204 390 88 386 112 l 386 533 b 394 543 386 540 389 543 b 453 541 415 543 428 543 b 566 508 506 538 537 529 b 698 231 669 434 698 318 "},"…":{"x_min":147,"x_max":1214.109375,"ha":1389,"o":"m 225 0 b 307 84 276 0 307 38 b 227 162 307 131 272 162 b 147 81 171 162 147 115 b 225 0 147 44 171 0 m 679 0 b 760 84 729 0 760 38 b 680 162 760 131 725 162 b 600 81 624 162 600 115 b 679 0 600 44 624 0 m 1132 0 b 1214 84 1182 0 1214 38 b 1133 162 1214 131 1178 162 b 1053 81 1078 162 1053 115 b 1132 0 1053 44 1078 0 "},"ē":{"x_min":74.953125,"x_max":707.875,"ha":800,"o":"m 196 338 b 190 87 196 230 196 137 b 155 25 186 52 179 30 b 113 20 144 22 130 20 b 94 8 98 20 94 13 b 117 -4 94 0 102 -4 b 200 -1 141 -4 171 -2 b 268 0 228 -1 254 0 b 407 -2 303 0 348 -1 b 627 -6 465 -5 537 -6 b 691 23 672 -6 683 -6 b 707 154 698 47 707 127 b 696 181 707 166 706 181 b 683 163 688 181 686 176 b 631 76 675 115 661 90 b 518 61 600 62 549 61 b 356 159 396 61 359 79 b 356 334 355 194 356 294 l 356 429 b 363 441 356 436 358 441 b 551 436 393 441 529 438 b 618 390 596 431 611 413 b 622 347 620 375 620 359 b 633 337 622 341 624 337 b 645 363 643 337 645 354 b 650 443 645 372 647 419 b 660 529 657 502 660 522 b 650 541 660 536 656 541 b 631 526 645 541 641 534 b 574 508 620 513 603 511 b 364 505 547 505 392 505 b 356 518 358 505 356 511 l 356 809 b 364 820 356 816 359 820 b 552 815 389 820 532 818 b 631 772 612 809 622 793 b 639 729 638 758 639 737 b 649 713 639 719 641 713 b 662 733 658 713 661 727 b 669 811 665 747 668 798 b 679 887 672 865 679 879 b 671 898 679 893 677 898 b 652 893 665 898 658 894 b 601 886 642 891 623 887 b 275 886 578 884 313 886 b 102 888 241 886 164 888 b 74 877 84 888 74 886 b 95 865 74 869 83 865 b 143 861 113 865 133 863 b 194 797 181 850 192 837 b 196 547 196 759 196 726 l 196 338 m 574 1034 b 589 1043 584 1034 588 1037 l 600 1093 b 589 1106 603 1102 598 1106 l 262 1106 b 247 1094 253 1106 250 1104 l 236 1044 b 247 1034 235 1037 238 1034 l 574 1034 "},"H":{"x_min":85.75,"x_max":1250.859375,"ha":1350,"o":"m 401 604 b 393 613 397 604 393 606 l 393 643 b 396 937 393 854 393 893 b 446 1016 398 986 409 1009 b 485 1020 462 1019 475 1020 b 510 1033 502 1020 510 1023 b 481 1045 510 1043 500 1045 b 310 1041 428 1045 343 1041 b 114 1045 273 1041 187 1045 b 85 1033 95 1045 85 1043 b 108 1020 85 1023 93 1020 b 161 1016 127 1020 151 1019 b 220 937 206 1006 217 984 b 223 643 223 893 223 854 l 223 398 b 216 102 223 270 223 161 b 176 26 210 62 204 31 b 127 20 164 23 148 20 b 106 9 111 20 106 16 b 133 -4 106 0 115 -4 b 304 0 187 -4 273 0 b 517 -4 343 0 428 -4 b 544 9 533 -4 544 0 b 522 20 544 16 537 20 b 453 26 502 20 472 23 b 400 101 412 31 404 62 b 393 398 393 161 393 270 l 393 520 b 401 529 393 527 397 529 l 921 529 b 929 520 925 529 929 526 l 929 398 b 922 102 929 270 929 161 b 883 26 917 62 910 31 b 834 20 871 23 854 20 b 812 9 818 20 812 16 b 841 -4 812 0 822 -4 b 1011 0 894 -4 980 0 b 1223 -4 1049 0 1135 -4 b 1250 9 1239 -4 1250 0 b 1229 20 1250 16 1244 20 b 1159 26 1208 20 1178 23 b 1106 101 1118 31 1110 62 b 1099 398 1099 161 1099 270 l 1099 643 b 1102 937 1099 854 1099 893 b 1152 1016 1105 986 1116 1009 b 1192 1020 1169 1019 1181 1020 b 1216 1033 1208 1020 1216 1023 b 1188 1045 1216 1043 1207 1045 b 1016 1041 1135 1045 1049 1041 b 820 1045 980 1041 894 1045 b 792 1033 801 1045 792 1043 b 815 1020 792 1023 800 1020 b 868 1016 834 1020 857 1019 b 926 937 913 1006 924 984 b 929 643 929 893 929 854 l 929 613 b 921 604 929 606 925 604 l 401 604 "},"":{"x_min":24.5,"x_max":996.328125,"ha":1056,"o":"m 144 373 b 253 60 144 202 191 115 b 526 -19 340 -16 464 -19 b 779 65 604 -19 695 -7 b 894 420 880 149 894 288 l 894 546 b 896 796 894 726 895 759 b 940 860 899 838 907 855 b 975 865 955 863 962 865 b 996 877 989 865 996 869 b 971 888 996 885 988 888 b 831 885 925 888 845 885 b 688 888 830 885 749 888 b 664 877 672 888 664 885 b 684 865 664 869 671 865 b 728 860 698 865 718 863 b 778 796 766 849 775 837 b 781 546 779 759 781 726 l 781 398 b 711 110 781 277 778 174 b 551 48 664 63 602 48 b 400 95 510 48 453 52 b 308 381 341 142 308 209 l 308 546 b 311 796 308 726 308 759 b 355 860 314 838 323 855 b 390 865 370 863 377 865 b 409 877 402 865 409 869 b 383 888 409 885 401 888 b 230 885 340 888 259 885 b 50 888 194 885 114 888 b 24 877 32 888 24 885 b 44 865 24 869 31 865 b 91 860 61 865 81 863 b 142 796 129 849 140 838 b 144 546 145 759 144 726 l 144 373 m 703 1194 b 684 1210 696 1206 694 1210 b 657 1198 680 1210 671 1208 b 438 1023 635 1184 492 1076 b 426 1005 431 1016 426 1010 b 434 996 426 999 431 996 b 457 1008 436 996 446 1002 b 690 1090 507 1035 615 1080 b 736 1090 717 1092 729 1090 b 743 1110 743 1090 751 1094 b 703 1194 726 1148 714 1174 "},"î":{"x_min":63.96875,"x_max":490,"ha":565,"o":"m 196 338 b 190 81 196 225 196 130 b 155 25 186 47 179 30 b 112 20 144 22 130 20 b 93 8 98 20 93 13 b 117 -4 93 0 102 -4 b 273 0 164 -4 246 0 b 466 -4 306 0 387 -4 b 490 8 480 -4 490 0 b 470 20 490 13 484 20 b 409 25 453 20 426 22 b 362 80 374 30 366 48 b 356 338 356 130 356 225 l 356 547 b 359 797 356 726 356 759 b 404 861 362 838 371 855 b 439 865 417 863 427 865 b 458 879 451 865 458 868 b 434 888 458 886 449 888 b 280 886 387 888 310 886 b 119 888 246 886 164 888 b 91 879 100 888 91 886 b 110 865 91 868 98 865 b 153 859 125 865 140 863 b 194 797 179 851 191 837 b 196 547 196 759 196 726 l 196 338 m 284 1206 b 255 1190 276 1206 269 1202 b 76 1018 236 1173 91 1034 b 63 997 69 1009 63 1002 b 76 983 63 988 69 983 b 103 1000 83 983 89 987 b 247 1102 144 1036 209 1080 b 268 1109 255 1106 262 1109 b 285 1101 273 1109 279 1106 b 405 998 299 1091 381 1025 b 426 983 416 987 420 983 b 443 993 432 983 438 987 l 483 1033 b 490 1047 487 1037 490 1043 b 470 1066 490 1051 485 1055 b 308 1191 450 1081 319 1181 b 284 1206 294 1202 288 1206 "},"":{"x_min":74.84375,"x_max":707.765625,"ha":800,"o":"m 195 338 b 190 87 195 230 195 137 b 155 25 186 52 179 30 b 112 20 144 22 130 20 b 93 8 97 20 93 13 b 117 -4 93 0 102 -4 b 200 -1 141 -4 171 -2 b 268 0 228 -1 254 0 b 406 -2 303 0 348 -1 b 627 -6 465 -5 537 -6 b 691 23 672 -6 683 -6 b 707 154 698 47 707 127 b 696 181 707 166 706 181 b 683 163 688 181 685 176 b 631 76 675 115 661 90 b 518 61 600 62 549 61 b 356 159 396 61 359 79 b 356 334 355 194 356 294 l 356 429 b 363 441 356 436 357 441 b 551 436 393 441 529 438 b 617 390 596 431 611 413 b 622 347 620 375 620 359 b 632 337 622 341 624 337 b 645 363 643 337 645 354 b 650 443 645 372 647 419 b 660 529 657 502 660 522 b 650 541 660 536 656 541 b 631 526 645 541 641 534 b 574 508 620 513 602 511 b 364 505 547 505 391 505 b 356 518 357 505 356 511 l 356 809 b 364 820 356 816 359 820 b 552 815 389 820 532 818 b 631 772 612 809 622 793 b 639 729 638 758 639 737 b 649 713 639 719 641 713 b 662 733 658 713 661 727 b 669 811 665 747 668 798 b 679 887 672 865 679 879 b 671 898 679 893 677 898 b 651 893 665 898 658 894 b 601 886 642 891 623 887 b 274 886 578 884 313 886 b 102 888 240 886 164 888 b 74 877 84 888 74 886 b 95 865 74 869 83 865 b 142 861 112 865 133 863 b 194 797 181 850 191 837 b 195 547 195 759 195 726 l 195 338 m 578 1194 b 559 1210 571 1206 568 1210 b 532 1198 555 1210 545 1208 b 313 1023 510 1184 367 1076 b 300 1005 306 1016 300 1010 b 308 997 300 999 306 997 b 332 1008 311 997 321 1002 b 564 1090 382 1035 489 1080 b 611 1090 592 1092 604 1090 b 617 1110 617 1090 626 1094 b 578 1194 601 1148 589 1174 "},"−":{"x_min":54.4375,"x_max":692.8125,"ha":763,"o":"m 692 309 l 692 394 l 54 394 l 54 309 l 692 309 "},"≠":{"x_min":53.953125,"x_max":692.0625,"ha":763,"o":"m 692 177 l 692 262 l 369 262 l 466 440 l 692 440 l 692 525 l 511 525 l 584 658 l 513 700 l 418 525 l 53 525 l 53 440 l 372 440 l 277 262 l 53 262 l 53 177 l 230 177 l 157 41 l 228 0 l 324 177 l 692 177 "},"¥":{"x_min":-84.390625,"x_max":890.171875,"ha":833,"o":"m 473 397 l 681 397 b 699 408 691 397 698 402 l 709 450 b 698 463 710 458 707 463 l 479 463 b 736 937 528 568 694 880 b 807 1006 764 975 778 994 b 869 1019 824 1016 850 1019 b 890 1033 882 1019 890 1023 b 868 1045 890 1043 880 1045 b 730 1041 841 1045 748 1041 b 609 1045 700 1041 660 1045 b 590 1031 598 1045 590 1043 b 612 1016 590 1022 598 1020 b 646 988 641 1009 646 998 b 628 913 646 968 641 943 b 435 533 609 870 473 602 b 219 944 415 576 238 905 b 204 991 209 965 204 983 b 227 1016 204 1002 209 1013 b 253 1031 243 1019 253 1023 b 234 1045 253 1043 245 1045 b 88 1041 171 1045 122 1041 b -61 1045 62 1041 -35 1045 b -84 1031 -77 1045 -84 1041 b -66 1019 -84 1022 -76 1019 b -4 1002 -51 1019 -27 1015 b 81 904 20 988 53 955 b 328 463 123 829 294 534 l 134 463 b 119 455 126 463 121 461 l 107 408 b 115 397 106 401 108 397 l 336 397 l 336 229 b 334 98 336 184 336 129 b 270 26 333 55 315 33 b 201 22 251 23 221 22 b 183 8 187 22 183 18 b 204 -4 183 -1 187 -4 b 402 0 292 -4 377 0 b 605 -4 428 0 515 -4 b 624 8 617 -4 624 -1 b 605 22 624 18 619 22 b 537 26 586 22 556 23 b 475 98 492 33 476 55 b 473 229 473 129 473 184 l 473 397 "},"":{"x_min":121.140625,"x_max":314.421875,"ha":444,"o":"m 220 647 b 200 602 205 647 202 631 b 142 6 196 568 145 31 b 121 -172 133 -95 121 -159 b 133 -190 121 -181 125 -190 b 185 -176 147 -190 167 -184 b 307 -88 221 -161 276 -129 b 314 -66 311 -81 314 -76 b 303 -30 314 -58 307 -47 b 274 219 291 20 276 198 b 240 597 272 240 246 530 b 220 647 238 629 235 647 m 230 898 b 152 815 183 898 152 861 b 228 741 152 770 185 741 b 304 820 283 741 304 787 b 230 898 304 855 283 898 "},"U":{"x_min":27.21875,"x_max":1117.46875,"ha":1183,"o":"m 164 440 b 285 72 164 238 216 136 b 588 -23 385 -19 515 -23 b 871 76 676 -23 774 -8 b 1000 494 985 176 1000 340 l 1000 643 b 1003 937 1000 854 1000 893 b 1053 1016 1005 986 1016 1009 b 1092 1020 1069 1019 1078 1020 b 1117 1033 1109 1020 1117 1023 b 1088 1045 1117 1043 1107 1045 b 933 1041 1035 1045 950 1041 b 777 1045 932 1041 846 1045 b 748 1033 758 1045 748 1043 b 771 1020 748 1023 756 1020 b 820 1016 786 1020 809 1019 b 879 937 865 1006 876 984 b 882 643 882 893 882 854 l 882 469 b 803 125 882 326 877 201 b 615 50 748 69 675 50 b 445 106 568 50 506 55 b 338 448 378 162 338 247 l 338 643 b 341 937 338 854 338 893 b 392 1016 344 986 355 1009 b 431 1020 408 1019 416 1020 b 453 1033 445 1020 453 1023 b 423 1045 453 1043 443 1045 b 255 1041 374 1045 288 1041 b 57 1045 215 1041 129 1045 b 27 1033 36 1045 27 1043 b 50 1020 27 1023 35 1020 b 103 1016 69 1020 92 1019 b 161 937 148 1006 159 984 b 164 643 164 893 164 854 l 164 440 "},"Ñ":{"x_min":63.96875,"x_max":1208.671875,"ha":1315,"o":"m 284 768 l 288 768 b 612 418 313 741 464 568 b 1014 9 754 275 928 93 b 1060 -20 1029 -5 1045 -20 b 1078 22 1072 -20 1078 -8 l 1092 898 b 1143 1016 1094 976 1105 1005 b 1184 1020 1159 1020 1170 1020 b 1208 1033 1200 1020 1208 1025 b 1177 1045 1208 1044 1195 1045 b 1043 1041 1110 1045 1058 1041 b 879 1045 1015 1041 950 1045 b 843 1033 858 1045 843 1044 b 865 1020 843 1025 849 1020 b 937 1012 884 1020 917 1020 b 984 887 970 998 982 972 l 997 263 l 990 263 b 691 580 967 286 784 486 b 269 1026 492 781 285 1008 b 219 1069 246 1051 234 1069 b 201 1022 205 1069 201 1050 l 189 200 b 147 27 187 79 182 38 b 85 20 127 22 103 20 b 63 9 72 20 63 18 b 93 -4 63 -2 76 -4 b 240 0 164 -4 228 0 b 409 -4 266 0 321 -4 b 441 9 428 -4 441 -1 b 417 20 441 18 432 20 b 347 30 396 20 370 22 b 299 184 319 40 302 76 l 284 768 m 754 1152 b 887 1256 818 1152 875 1233 b 895 1280 891 1265 895 1273 b 884 1291 895 1287 890 1291 b 862 1273 877 1291 871 1284 b 779 1231 857 1266 828 1231 b 681 1262 747 1231 715 1243 b 573 1301 650 1280 620 1301 b 431 1194 507 1301 451 1227 b 420 1168 427 1188 420 1175 b 430 1158 420 1162 424 1158 b 451 1172 435 1158 439 1159 b 544 1222 462 1184 491 1222 b 631 1191 581 1222 607 1205 b 754 1152 660 1176 696 1152 "},"F":{"x_min":85.75,"x_max":759.5,"ha":864,"o":"m 394 511 b 404 523 394 520 397 523 b 605 519 427 523 571 523 b 675 469 647 513 668 488 b 683 426 680 452 683 436 b 694 406 683 416 686 406 b 707 433 707 406 707 420 b 713 534 707 443 710 506 b 724 620 717 577 724 612 b 715 633 724 629 721 633 b 698 619 707 633 705 627 b 639 594 684 601 665 595 b 578 593 620 593 601 593 l 404 591 b 394 604 396 591 394 595 l 394 951 b 406 970 394 966 398 970 l 616 966 b 706 925 668 965 696 944 b 714 872 714 905 714 883 b 728 850 715 856 718 850 b 741 869 737 850 740 858 b 748 981 744 886 747 968 b 759 1044 752 1018 759 1034 b 749 1056 759 1051 755 1056 b 728 1048 743 1056 736 1051 b 672 1043 714 1044 698 1044 b 313 1041 641 1041 364 1041 b 227 1044 294 1041 262 1043 b 117 1045 191 1044 152 1045 b 85 1031 96 1045 85 1043 b 108 1020 85 1023 95 1020 b 161 1016 127 1020 151 1019 b 220 937 206 1006 217 984 b 223 643 223 893 223 854 l 223 398 b 216 102 223 265 223 161 b 176 26 210 62 204 31 b 127 20 164 23 148 20 b 107 9 112 20 107 16 b 136 -4 107 -1 117 -4 b 308 0 187 -4 273 0 b 515 -4 344 0 430 -4 b 545 9 536 -4 545 0 b 522 20 545 16 540 20 b 454 26 503 20 473 23 b 401 102 413 31 405 62 b 394 398 394 161 394 265 l 394 511 "},"":{"x_min":65.328125,"x_max":1057.578125,"ha":1149,"o":"m 555 -19 b 1057 463 864 -19 1057 193 b 567 905 1057 734 869 905 b 65 443 204 905 65 644 b 555 -19 65 233 206 -19 m 604 44 b 242 479 378 44 242 236 b 532 843 242 770 398 843 b 879 420 725 843 879 681 b 604 44 879 84 688 44 m 658 997 b 792 1101 722 997 779 1077 b 800 1125 796 1109 800 1118 b 789 1136 800 1131 794 1136 b 767 1118 782 1136 775 1129 b 684 1076 762 1111 733 1076 b 586 1106 651 1076 620 1087 b 477 1145 555 1125 525 1145 b 336 1038 412 1145 356 1072 b 325 1012 332 1033 325 1019 b 334 1002 325 1006 329 1002 b 356 1016 340 1002 344 1004 b 449 1066 367 1029 396 1066 b 536 1036 485 1066 511 1050 b 658 997 564 1020 601 997 "},"ā":{"x_min":-75.125,"x_max":925.109375,"ha":878,"o":"m 529 293 b 541 284 534 293 538 291 l 633 47 b 622 20 639 33 631 22 b 608 8 610 19 608 15 b 643 -1 608 0 621 0 b 873 -4 744 -4 831 -4 b 925 8 918 -4 925 -1 b 908 20 925 16 919 20 b 863 25 895 20 881 22 b 761 151 842 29 808 44 b 456 879 685 330 485 813 b 421 916 444 905 439 916 b 386 869 409 916 399 902 l 73 126 b -26 22 48 66 28 30 b -61 20 -37 22 -50 20 b -75 8 -71 20 -75 15 b -53 -4 -75 -1 -68 -4 b 85 0 9 -4 73 0 b 218 -4 123 0 179 -4 b 237 8 231 -4 237 -1 b 220 20 237 15 235 20 l 202 20 b 154 54 165 20 154 33 b 172 126 154 68 160 97 l 236 284 b 247 293 239 291 240 293 l 529 293 m 271 358 b 267 366 267 358 265 361 l 383 665 b 390 676 384 669 386 676 b 395 665 393 676 394 669 l 508 365 b 503 358 510 361 508 358 l 271 358 m 586 1034 b 601 1043 595 1034 599 1037 l 612 1093 b 601 1106 614 1102 610 1106 l 274 1106 b 259 1094 265 1106 262 1104 l 248 1044 b 259 1034 247 1037 250 1034 l 586 1034 "},"ă":{"x_min":-75.140625,"x_max":925.109375,"ha":878,"o":"m 529 293 b 541 284 534 293 538 291 l 633 47 b 622 20 639 33 631 22 b 607 8 610 19 607 15 b 643 -1 607 0 621 0 b 873 -4 744 -4 831 -4 b 925 8 918 -4 925 -1 b 908 20 925 16 919 20 b 863 25 895 20 881 22 b 761 151 842 29 808 44 b 456 879 685 330 485 813 b 421 916 444 905 439 916 b 386 869 409 916 399 902 l 73 126 b -26 22 48 66 28 30 b -61 20 -37 22 -50 20 b -75 8 -71 20 -75 15 b -53 -4 -75 -1 -68 -4 b 85 0 9 -4 73 0 b 218 -4 123 0 179 -4 b 237 8 231 -4 237 -1 b 220 20 237 15 235 20 l 202 20 b 154 54 165 20 154 33 b 172 126 154 68 160 97 l 236 284 b 247 293 239 291 240 293 l 529 293 m 271 358 b 267 366 267 358 265 361 l 383 665 b 390 676 384 669 386 676 b 395 665 393 676 394 669 l 508 365 b 503 358 510 361 508 358 l 271 358 m 221 1102 b 271 1047 221 1091 251 1063 b 406 997 311 1013 368 997 b 553 1044 474 997 508 1013 b 639 1147 584 1065 639 1126 b 628 1159 639 1154 635 1159 b 568 1108 618 1159 610 1141 b 448 1069 554 1098 508 1069 b 323 1130 413 1069 371 1073 b 295 1162 311 1144 303 1162 b 277 1152 291 1162 286 1161 l 232 1116 b 221 1102 228 1113 221 1111 "},"*":{"x_min":66.6875,"x_max":450.53125,"ha":528,"o":"m 251 880 b 257 872 254 880 255 875 b 304 729 265 837 292 756 b 326 709 313 716 319 709 b 408 781 340 709 408 761 b 389 795 408 790 400 793 b 274 888 372 801 294 861 b 273 898 272 893 272 897 b 280 901 276 900 277 901 b 436 898 321 897 430 897 b 450 909 446 900 450 902 b 417 1016 450 938 430 1016 b 398 1002 409 1016 404 1011 b 274 920 387 993 333 938 b 268 920 270 919 269 919 b 268 929 266 923 266 927 b 313 1106 285 983 313 1072 b 299 1122 313 1118 308 1122 b 198 1083 276 1122 198 1101 b 206 1061 198 1075 202 1069 b 247 930 210 1051 243 975 b 246 920 247 926 247 923 b 236 922 243 919 239 919 b 84 1016 221 938 125 1016 b 66 998 70 1016 66 1013 b 83 900 66 969 73 900 b 106 902 91 900 96 901 b 228 901 119 904 198 906 b 234 897 231 901 234 900 b 230 888 234 894 232 891 b 103 777 213 879 117 798 b 89 754 93 766 89 761 b 181 718 89 743 137 718 b 197 729 190 718 197 720 b 204 761 197 740 201 751 b 246 876 209 783 239 865 b 251 880 247 880 250 880 "},"":{"x_min":66.734375,"x_max":1060.328125,"ha":981,"o":"m 1060 6 b 1044 17 1060 16 1054 17 b 920 59 1020 17 956 37 b 763 180 888 78 841 115 b 872 453 828 259 872 363 b 833 477 872 467 854 474 b 694 485 767 484 721 485 b 675 474 684 485 675 484 b 690 465 675 467 683 465 b 745 444 707 465 730 458 b 764 392 762 428 764 410 b 710 220 764 320 733 253 b 514 419 688 240 553 373 b 328 716 421 524 328 605 b 440 844 328 816 391 844 b 568 799 506 844 545 827 b 602 701 594 769 602 731 b 611 678 602 683 604 678 b 624 698 617 678 622 680 b 637 849 627 716 637 810 b 617 880 637 863 637 871 b 477 905 586 892 534 905 b 191 688 276 905 190 781 b 250 524 193 635 202 591 b 66 240 181 490 66 377 b 388 -19 66 137 141 -19 b 666 78 546 -19 628 42 b 936 -4 766 1 804 -4 l 1024 -4 b 1060 6 1050 -4 1060 0 m 607 130 b 428 60 582 106 516 60 b 210 290 308 60 210 142 b 287 465 230 337 206 403 b 402 326 306 435 372 359 b 607 130 432 292 540 190 "},"†":{"x_min":73.296875,"x_max":786.171875,"ha":868,"o":"m 352 616 l 228 622 b 115 634 144 626 122 634 b 96 618 107 634 99 626 l 74 533 b 84 513 70 518 74 512 b 319 534 182 522 228 530 l 355 536 b 385 -250 363 359 382 -205 b 420 -322 389 -304 398 -322 b 450 -277 442 -322 449 -297 b 485 536 451 -255 470 212 l 575 533 b 732 512 676 530 722 512 b 759 526 743 512 756 516 l 784 613 b 777 634 788 627 786 634 b 642 623 767 634 743 627 l 487 616 b 499 868 491 752 499 861 b 518 1051 506 970 518 1041 b 507 1065 518 1062 513 1065 b 483 1059 502 1065 494 1063 b 330 975 445 1045 349 1002 b 323 955 326 968 323 962 b 329 929 323 948 326 940 b 352 616 336 904 349 741 "},"":{"x_min":65.328125,"x_max":1057.578125,"ha":1149,"o":"m 555 -19 b 1057 463 864 -19 1057 193 b 567 905 1057 734 869 905 b 65 443 204 905 65 644 b 555 -19 65 233 206 -19 m 604 44 b 242 479 378 44 242 236 b 532 843 242 770 398 843 b 879 420 725 843 879 681 b 604 44 879 84 688 44 m 705 997 b 770 1066 744 997 770 1027 b 706 1127 770 1105 741 1127 b 643 1062 662 1127 643 1090 b 705 997 643 1033 661 997 m 417 997 b 483 1066 457 997 483 1027 b 419 1126 483 1104 454 1126 b 356 1062 375 1126 356 1088 b 417 997 356 1033 374 997 "},"∕":{"x_min":-337.28125,"x_max":461.609375,"ha":128,"o":"m 458 1033 l 417 1061 b 400 1055 411 1065 406 1065 l -330 31 b -333 8 -338 20 -338 12 l -294 -20 b -277 -13 -288 -25 -284 -22 l 457 1016 b 458 1033 462 1025 462 1030 "},"°":{"x_min":70.78125,"x_max":423.3125,"ha":504,"o":"m 423 804 b 249 977 423 895 356 977 l 247 977 b 70 797 148 977 70 898 b 245 623 70 704 141 623 b 423 804 337 623 423 697 m 347 801 b 246 691 347 738 304 691 b 147 798 189 691 147 738 b 245 911 147 852 181 911 l 246 911 b 347 801 317 911 347 851 "},"å":{"x_min":-75.203125,"x_max":925.21875,"ha":878,"o":"m 529 293 b 541 284 534 293 538 291 l 633 47 b 623 20 639 33 631 22 b 608 8 610 19 608 15 b 643 -1 608 0 621 0 b 873 -4 744 -4 831 -4 b 925 8 918 -4 925 -1 b 908 20 925 16 919 20 b 863 25 895 20 881 22 b 761 151 842 29 808 44 b 457 879 685 330 485 813 b 421 916 444 905 439 916 b 386 869 409 916 399 902 l 73 126 b -26 22 48 66 28 30 b -61 20 -37 22 -50 20 b -75 8 -71 20 -75 15 b -53 -4 -75 -1 -68 -4 b 85 0 9 -4 73 0 b 218 -4 123 0 179 -4 b 237 8 231 -4 237 -1 b 220 20 237 15 235 20 l 202 20 b 154 54 165 20 154 33 b 172 126 154 68 160 97 l 236 284 b 247 293 239 291 240 293 l 529 293 m 271 358 b 267 366 267 358 265 361 l 383 665 b 390 676 384 669 386 676 b 395 665 393 676 394 669 l 508 365 b 503 358 510 361 508 358 l 271 358 m 394 983 b 589 1108 482 983 590 1030 b 459 1188 589 1155 538 1188 b 273 1066 353 1188 273 1130 b 394 983 273 1019 319 983 m 356 1086 b 433 1154 356 1133 402 1154 b 506 1090 482 1154 506 1123 b 424 1018 506 1051 469 1018 b 356 1086 391 1018 356 1044 "},"":{"x_min":74.859375,"x_max":691.453125,"ha":788,"o":"m 356 431 b 364 441 356 440 359 441 b 556 437 385 441 526 440 b 613 394 593 434 608 411 b 622 358 619 380 622 366 b 632 341 622 349 626 341 b 646 368 645 341 646 358 b 650 454 646 376 647 430 b 660 530 654 491 660 523 b 653 541 660 537 657 541 b 637 529 646 541 643 536 b 586 508 626 513 608 509 b 532 506 568 506 552 506 l 364 505 b 356 516 357 505 356 509 l 356 802 b 367 819 356 816 360 819 l 566 815 b 642 779 611 813 634 795 b 649 734 650 762 649 744 b 664 715 649 720 656 715 b 676 738 672 715 675 729 b 681 834 677 752 680 822 b 691 887 686 865 691 879 b 683 898 691 893 687 898 b 664 891 676 898 671 893 b 615 886 651 888 637 887 b 274 886 586 884 321 886 b 103 888 240 886 164 888 b 74 877 84 888 74 886 b 95 865 74 869 84 865 b 142 861 112 865 133 863 b 194 797 181 851 191 837 b 196 547 196 759 196 726 l 196 338 b 190 87 196 225 196 137 b 155 25 186 52 179 30 b 112 20 144 22 130 20 b 95 8 99 20 95 13 b 119 -4 95 -1 103 -4 b 272 0 164 -4 240 0 b 464 -4 303 0 387 -4 b 490 8 481 -4 490 0 b 469 20 490 13 484 20 b 411 25 453 20 427 22 b 363 87 375 30 367 52 b 356 334 357 137 356 220 l 356 431 "},"":{"x_min":-111.609375,"x_max":1060.3125,"ha":1161,"o":"m 563 333 b 558 87 563 225 563 137 b 522 25 553 52 547 30 b 480 20 511 22 498 20 b 465 6 468 20 465 13 b 488 -4 465 -1 470 -4 b 560 -1 510 -4 536 -2 b 622 0 585 -1 607 0 b 760 -2 657 0 702 0 b 980 -6 818 -4 890 -6 b 1045 23 1026 -6 1037 -6 b 1060 154 1050 47 1060 127 b 1048 181 1060 166 1057 181 b 1035 163 1039 181 1037 176 b 981 76 1027 115 1012 90 b 871 62 950 62 902 62 b 710 155 749 62 710 75 l 710 336 l 710 391 b 717 402 710 398 711 402 b 906 398 745 402 883 401 b 970 352 950 394 965 376 b 975 309 974 337 974 322 b 986 300 975 304 977 300 b 1000 325 997 300 1000 315 b 1004 404 1000 333 1001 380 b 1014 491 1011 463 1014 484 b 1005 501 1014 500 1009 501 b 986 486 1000 501 994 495 b 929 469 975 475 958 470 b 718 466 901 468 744 466 b 710 479 711 466 710 470 l 710 809 b 718 820 710 816 711 820 b 907 816 741 820 887 819 b 985 773 967 811 977 794 b 992 730 990 759 992 738 b 1003 715 992 720 994 715 b 1018 733 1011 715 1016 727 b 1023 811 1020 747 1022 798 b 1033 887 1027 865 1033 879 b 1026 898 1033 893 1031 898 b 1007 893 1020 898 1012 894 b 955 886 997 891 978 886 b 628 886 905 884 666 886 b 564 888 590 886 574 888 b 549 872 556 888 552 881 b 524 820 547 863 541 848 b 84 151 506 794 122 200 b -42 30 59 119 27 61 b -95 20 -59 22 -84 20 b -111 8 -106 20 -111 15 b -95 -4 -111 0 -107 -4 b 57 0 -32 -4 35 0 b 234 -4 81 0 157 -4 b 257 8 247 -4 257 0 b 239 20 257 15 250 20 b 178 30 217 20 193 23 b 157 61 167 36 157 44 b 209 177 157 77 168 109 b 334 391 228 209 321 372 b 353 400 338 398 344 400 l 552 400 b 563 390 559 400 563 397 l 563 333 m 563 468 b 552 459 563 462 560 459 l 390 459 b 385 470 382 459 379 461 b 558 763 397 493 525 711 l 563 763 l 563 468 "},"0":{"x_min":55.8125,"x_max":760.859375,"ha":833,"o":"m 760 552 b 419 1065 760 773 688 1065 b 55 490 167 1065 55 813 b 397 -23 55 293 129 -23 b 760 552 631 -23 760 208 m 601 498 b 423 38 601 229 533 38 b 215 543 273 38 215 302 b 390 1002 215 859 288 1002 b 601 498 539 1002 601 738 "},"ō":{"x_min":65.328125,"x_max":1057.578125,"ha":1149,"o":"m 555 -19 b 1057 463 864 -19 1057 193 b 567 905 1057 734 869 905 b 65 443 204 905 65 644 b 555 -19 65 233 206 -19 m 604 44 b 242 479 378 44 242 236 b 532 843 242 770 398 843 b 879 420 725 843 879 681 b 604 44 879 84 688 44 m 732 1034 b 747 1043 741 1034 745 1037 l 758 1093 b 747 1106 760 1102 756 1106 l 420 1106 b 405 1094 411 1106 408 1104 l 394 1044 b 405 1034 393 1037 396 1034 l 732 1034 "},"”":{"x_min":54.4375,"x_max":435.5625,"ha":500,"o":"m 231 1075 b 191 1113 231 1095 225 1102 b 81 1138 167 1120 107 1138 b 66 1129 76 1138 66 1133 b 81 1104 66 1122 68 1118 b 114 1009 93 1093 114 1055 b 62 797 114 925 89 843 b 54 779 57 787 54 783 b 62 772 54 775 58 772 b 84 781 69 772 76 775 b 231 1075 145 845 231 991 m 318 1009 b 266 797 318 925 294 843 b 259 779 261 787 259 783 b 268 772 259 775 264 772 b 289 781 274 772 281 775 b 435 1075 351 844 435 991 b 396 1113 435 1095 430 1102 b 285 1138 371 1120 311 1138 b 270 1129 280 1138 270 1133 b 285 1104 270 1122 272 1118 b 318 1009 298 1093 318 1055 "},"Ķ":{"x_min":85.75,"x_max":1181.453125,"ha":1067,"o":"m 389 643 b 392 937 389 854 389 893 b 442 1016 394 986 405 1009 b 480 1020 458 1019 466 1020 b 499 1033 491 1020 499 1023 b 470 1045 499 1043 490 1045 b 306 1041 424 1045 338 1041 b 115 1045 273 1041 187 1045 b 85 1033 95 1045 85 1043 b 108 1020 85 1023 93 1020 b 161 1016 127 1020 151 1019 b 220 937 206 1006 217 984 b 223 643 223 893 223 854 l 223 398 b 216 102 223 270 223 161 b 176 26 210 62 204 31 b 127 20 164 23 148 20 b 106 9 111 20 106 16 b 133 -4 106 0 115 -4 b 304 0 187 -4 273 0 b 500 -4 338 0 424 -4 b 526 9 515 -4 526 0 b 509 20 526 16 519 20 b 442 26 491 20 461 23 b 393 101 408 31 396 62 b 389 398 389 161 389 270 l 389 525 l 396 525 l 411 504 b 767 88 439 463 707 143 b 936 -1 826 36 862 5 b 1030 -4 965 -4 989 -4 l 1148 -4 b 1181 9 1174 -4 1181 0 b 1163 20 1181 18 1173 20 b 1079 41 1147 20 1120 25 b 884 191 1005 70 944 133 b 515 601 831 243 564 536 b 809 901 562 651 767 859 b 956 1005 868 959 914 988 b 1035 1020 982 1015 1016 1020 b 1056 1033 1049 1020 1056 1023 b 1033 1045 1056 1043 1046 1045 b 873 1041 990 1045 916 1041 b 733 1045 837 1041 762 1045 b 711 1033 718 1045 711 1043 b 729 1019 711 1025 717 1022 b 748 991 743 1016 748 1006 b 680 887 748 968 718 933 b 396 581 641 840 442 633 l 389 581 l 389 643 m 695 -136 b 669 -75 695 -123 688 -105 b 639 -44 654 -51 650 -44 b 552 -127 604 -44 552 -86 b 601 -230 552 -144 601 -162 b 567 -334 601 -258 592 -291 b 558 -354 564 -340 558 -348 b 567 -366 558 -359 563 -366 b 588 -352 574 -366 579 -359 b 680 -194 627 -306 665 -230 b 695 -136 688 -175 695 -148 "},"ö":{"x_min":65.328125,"x_max":1057.578125,"ha":1149,"o":"m 555 -19 b 1057 463 864 -19 1057 193 b 567 905 1057 734 869 905 b 65 443 204 905 65 644 b 555 -19 65 233 206 -19 m 604 44 b 242 479 378 44 242 236 b 532 843 242 770 398 843 b 879 420 725 843 879 681 b 604 44 879 84 688 44 m 705 997 b 770 1066 744 997 770 1027 b 706 1127 770 1105 741 1127 b 643 1062 662 1127 643 1090 b 705 997 643 1033 661 997 m 417 997 b 483 1066 457 997 483 1027 b 419 1126 483 1104 454 1126 b 356 1062 375 1126 356 1088 b 417 997 356 1033 374 997 "},"Ļ":{"x_min":93.921875,"x_max":807.140625,"ha":840,"o":"m 393 643 b 396 937 393 854 393 893 b 446 1016 398 986 409 1009 b 499 1020 462 1019 484 1020 b 524 1033 515 1020 524 1023 b 495 1045 524 1043 514 1045 b 310 1041 442 1045 343 1041 b 123 1045 273 1041 187 1045 b 93 1033 103 1045 93 1043 b 117 1020 93 1023 102 1020 b 161 1016 134 1020 151 1019 b 220 937 206 1006 217 984 b 223 643 223 893 223 854 l 223 398 b 216 102 223 270 223 161 b 176 26 210 62 204 31 b 127 20 164 23 148 20 b 106 9 111 20 106 16 b 133 -4 106 0 115 -4 b 227 -1 160 -4 196 -1 b 304 0 259 0 289 0 b 470 -4 360 0 409 -1 b 700 -8 532 -5 602 -8 b 786 29 771 -8 778 -1 b 807 188 797 69 807 173 b 796 212 807 205 805 212 b 781 191 785 212 782 204 b 745 108 778 165 762 126 b 586 69 711 70 658 69 b 421 100 480 69 445 79 b 393 398 393 125 393 220 l 393 643 m 578 -163 b 552 -102 578 -151 571 -133 b 522 -72 537 -79 533 -72 b 435 -155 487 -72 435 -113 b 484 -258 435 -172 484 -190 b 450 -362 484 -286 475 -319 b 441 -381 447 -368 441 -376 b 450 -394 441 -387 446 -394 b 470 -380 457 -394 462 -387 b 563 -222 510 -334 548 -258 b 578 -163 571 -202 578 -176 "},"Õ":{"x_min":74.859375,"x_max":1186.890625,"ha":1288,"o":"m 623 -23 b 1186 545 969 -23 1186 227 b 637 1065 1186 863 975 1065 b 74 520 228 1065 74 758 b 623 -23 74 275 232 -23 m 680 45 b 262 563 419 45 262 275 b 597 998 262 909 441 998 b 996 494 820 998 996 805 b 680 45 996 93 775 45 m 726 1152 b 860 1256 790 1152 847 1233 b 868 1280 864 1265 868 1273 b 857 1291 868 1287 862 1291 b 835 1273 850 1291 843 1284 b 752 1231 830 1266 801 1231 b 654 1262 720 1231 688 1243 b 545 1301 623 1280 593 1301 b 404 1194 480 1301 424 1227 b 393 1168 400 1188 393 1175 b 402 1158 393 1162 397 1158 b 424 1172 408 1158 412 1159 b 517 1222 435 1184 464 1222 b 604 1191 553 1222 579 1205 b 726 1152 632 1176 669 1152 "},"ć":{"x_min":65.328125,"x_max":899.703125,"ha":979,"o":"m 626 -19 b 842 6 703 -19 794 -12 b 873 41 862 15 868 20 b 899 198 886 81 899 184 b 886 219 899 208 894 219 b 871 195 876 219 873 213 b 830 116 867 173 850 140 b 617 53 782 62 724 53 b 245 467 457 53 245 187 b 355 774 245 583 266 696 b 581 841 409 821 476 841 b 812 771 691 841 771 812 b 858 662 842 741 857 699 b 871 637 858 646 861 637 b 887 666 882 637 886 649 b 891 794 888 690 888 755 b 896 859 894 835 896 849 b 879 873 896 866 892 871 b 759 892 843 877 804 885 b 585 905 705 899 660 905 b 205 780 406 905 292 858 b 65 456 91 676 65 537 b 215 108 65 342 96 209 b 626 -19 323 15 462 -19 m 733 1194 b 714 1210 726 1206 724 1210 b 687 1198 710 1210 700 1208 b 468 1023 665 1184 522 1076 b 455 1005 461 1016 455 1010 b 464 996 455 999 461 996 b 487 1008 466 996 476 1002 b 720 1090 537 1035 645 1080 b 766 1090 747 1092 759 1090 b 773 1110 773 1090 781 1094 b 733 1194 756 1148 744 1174 "},"þ":{"x_min":74.859375,"x_max":758.140625,"ha":831,"o":"m 196 338 b 190 87 196 230 196 137 b 155 25 186 52 179 30 b 112 20 144 22 130 20 b 93 8 98 20 93 13 b 117 -4 93 0 102 -4 b 268 0 164 -4 240 0 b 457 -4 299 0 385 -4 b 481 8 472 -4 481 0 b 465 20 481 13 475 20 b 406 25 450 20 424 22 b 360 86 371 30 364 52 b 355 338 355 137 355 230 l 355 613 b 364 636 355 626 356 634 b 415 644 375 641 394 644 b 536 604 445 644 495 643 b 602 426 601 540 602 465 b 441 238 602 315 517 238 b 406 223 417 238 406 233 b 421 212 406 215 415 212 b 457 211 427 211 451 211 b 758 491 634 211 758 325 b 699 631 758 554 726 608 b 460 698 679 650 613 698 b 355 694 413 698 390 697 b 356 800 355 712 355 755 b 411 859 357 834 372 854 b 455 865 427 862 446 865 b 475 877 465 865 475 870 b 451 888 475 886 465 888 b 273 886 389 888 303 886 b 102 888 240 886 164 888 b 74 877 84 888 74 886 b 95 865 74 869 83 865 b 142 861 112 865 133 863 b 194 797 181 851 191 837 b 196 547 196 759 196 726 l 196 338 "},"]":{"x_min":54.4375,"x_max":352.53125,"ha":500,"o":"m 234 9 b 224 -113 234 -43 231 -84 b 77 -143 183 -133 118 -138 b 54 -156 61 -144 54 -148 b 70 -169 54 -166 59 -169 l 330 -169 b 352 -151 349 -169 352 -166 l 352 1013 b 330 1036 352 1034 351 1036 l 72 1036 b 55 1023 61 1036 55 1033 b 78 1009 55 1013 62 1011 b 224 980 119 1005 185 1000 b 234 851 231 951 234 909 l 234 9 "},"8":{"x_min":57.171875,"x_max":759.5,"ha":833,"o":"m 398 -23 b 759 284 627 -23 759 120 b 511 595 759 456 608 543 b 711 852 586 625 711 706 b 432 1065 711 987 598 1065 b 110 813 201 1065 110 922 b 307 559 110 695 194 619 b 57 248 175 505 57 402 b 398 -23 57 77 197 -23 m 210 256 b 371 526 210 398 298 483 b 601 250 492 454 601 388 b 409 40 601 122 515 40 b 210 256 299 40 210 133 m 567 840 b 434 627 567 700 473 645 b 251 841 310 698 251 755 b 417 1005 251 919 299 1005 b 567 840 499 1005 567 944 "},"R":{"x_min":85.75,"x_max":1159.671875,"ha":1049,"o":"m 223 398 b 216 102 223 270 223 161 b 176 26 210 62 204 31 b 127 20 164 23 148 20 b 106 9 111 20 106 16 b 133 -4 106 0 115 -4 b 299 0 187 -4 273 0 b 499 -4 319 0 420 -4 b 526 9 517 -4 526 0 b 510 20 526 16 521 20 b 443 26 494 20 464 23 b 390 102 402 31 394 62 b 383 400 383 161 383 270 l 383 419 b 394 430 383 427 387 430 l 513 427 b 537 418 522 427 530 426 b 672 226 555 397 617 302 b 858 22 748 119 800 54 b 1004 -4 894 2 928 -4 l 1133 -4 b 1159 9 1150 -4 1159 -1 b 1143 20 1159 16 1154 20 b 1105 25 1132 20 1120 22 b 952 119 1084 29 1029 38 b 657 484 872 205 778 329 b 837 795 794 598 837 693 b 744 986 837 888 782 959 b 494 1045 671 1037 579 1045 b 302 1041 451 1045 348 1041 b 115 1045 273 1041 187 1045 b 85 1033 95 1045 85 1043 b 108 1020 85 1023 93 1020 b 161 1016 127 1020 151 1019 b 220 937 206 1006 217 984 b 223 643 223 893 223 854 l 223 398 m 383 955 b 396 975 383 966 386 972 b 468 980 409 979 434 980 b 676 726 548 980 676 923 b 596 518 676 612 637 548 b 499 494 571 500 553 494 b 396 508 465 494 424 498 b 383 533 386 512 383 518 l 383 955 "},"":{"x_min":47.640625,"x_max":676.46875,"ha":771,"o":"m 676 281 b 443 518 676 426 539 498 l 443 520 b 635 738 495 537 635 622 b 338 916 635 794 586 916 b 110 872 231 916 153 890 b 91 850 93 865 91 861 b 100 730 91 822 95 768 b 111 713 102 718 106 713 b 122 731 118 713 122 718 b 302 854 122 801 200 854 b 470 712 434 854 470 762 b 273 502 470 573 332 513 b 250 486 259 500 250 494 b 292 465 250 476 258 470 b 506 238 356 454 506 398 b 276 38 506 97 404 38 b 83 191 145 38 83 115 b 70 208 83 201 78 208 b 57 186 62 208 59 200 b 47 37 51 159 47 93 b 69 4 47 23 49 13 b 265 -23 99 -11 174 -23 b 676 281 517 -23 676 115 "},"ť":{"x_min":16.328125,"x_max":837.078125,"ha":879,"o":"m 355 338 b 349 87 355 230 355 137 b 314 25 345 52 338 30 b 272 20 304 22 289 20 b 253 8 257 20 253 13 b 276 -4 253 0 261 -4 b 432 0 323 -4 405 0 b 626 -4 466 0 547 -4 b 649 8 639 -4 649 0 b 630 20 649 13 643 20 b 568 25 612 20 585 22 b 522 86 533 30 526 52 b 515 338 517 137 515 230 l 515 816 l 666 813 b 808 745 774 812 805 776 l 809 733 b 823 709 811 715 813 709 b 834 729 830 709 833 716 b 837 872 834 759 837 847 b 827 897 837 890 835 897 b 794 891 823 897 813 894 b 713 886 777 888 751 886 l 227 886 b 107 891 187 886 142 887 b 55 905 77 895 65 905 b 42 883 49 905 44 898 b 16 740 39 873 16 759 b 27 720 16 727 19 720 b 40 736 35 720 38 726 b 61 776 43 744 49 759 b 176 812 78 802 107 811 l 355 816 l 355 338 m 224 1156 b 217 1143 220 1152 217 1147 b 236 1123 217 1138 221 1134 b 398 998 257 1108 387 1008 b 423 983 413 987 419 983 b 451 1000 431 983 438 987 b 631 1172 470 1016 616 1155 b 643 1193 639 1180 643 1187 b 631 1206 643 1201 638 1206 b 601 1188 624 1206 617 1202 b 460 1086 563 1156 498 1109 b 439 1080 453 1081 445 1080 b 421 1088 434 1080 428 1083 b 302 1191 408 1098 328 1165 b 279 1206 289 1204 284 1206 b 264 1197 274 1206 269 1202 l 224 1156 "},"Ľ":{"x_min":93.921875,"x_max":807.140625,"ha":840,"o":"m 393 643 b 396 937 393 854 393 893 b 446 1016 398 986 409 1009 b 499 1020 462 1019 484 1020 b 524 1033 515 1020 524 1023 b 495 1045 524 1043 514 1045 b 310 1041 442 1045 343 1041 b 123 1045 273 1041 187 1045 b 93 1033 103 1045 93 1043 b 117 1020 93 1023 102 1020 b 161 1016 134 1020 151 1019 b 220 937 206 1006 217 984 b 223 643 223 893 223 854 l 223 398 b 216 102 223 270 223 161 b 176 26 210 62 204 31 b 127 20 164 23 148 20 b 106 9 111 20 106 16 b 133 -4 106 0 115 -4 b 227 -1 160 -4 196 -1 b 304 0 259 0 289 0 b 470 -4 360 0 409 -1 b 700 -8 532 -5 602 -8 b 786 29 771 -8 778 -1 b 807 188 797 69 807 173 b 796 212 807 205 805 212 b 781 191 785 212 782 204 b 745 108 778 165 762 126 b 586 69 711 70 658 69 b 421 100 480 69 445 79 b 393 398 393 125 393 220 l 393 643 m 796 954 b 770 1015 796 966 789 984 b 740 1045 755 1038 751 1045 b 653 962 705 1045 653 1004 b 702 859 653 945 702 927 b 668 755 702 831 692 798 b 658 736 665 750 658 741 b 668 723 658 730 664 723 b 688 737 675 723 680 730 b 781 895 728 783 766 859 b 796 954 789 915 796 941 "},"Ż":{"x_min":80.3125,"x_max":902.421875,"ha":986,"o":"m 302 76 b 888 1004 494 375 700 693 b 899 1030 894 1013 899 1022 b 876 1041 899 1037 890 1041 l 461 1041 b 210 1045 405 1041 340 1040 b 156 1055 176 1047 168 1055 b 140 1029 148 1055 142 1048 b 112 829 133 987 112 861 b 123 805 112 812 114 805 b 140 830 132 805 137 811 b 213 938 144 862 168 913 b 409 968 257 963 340 968 l 676 968 b 100 55 494 675 292 361 b 80 13 84 30 80 23 b 103 0 80 4 88 0 b 834 -6 378 0 607 -6 b 875 29 858 -6 868 4 b 902 198 884 63 902 154 b 888 241 902 231 899 241 b 875 219 880 241 877 233 b 850 152 871 200 862 175 b 637 76 828 111 775 76 l 302 76 m 502 1152 b 579 1236 548 1152 579 1190 b 502 1311 579 1281 545 1311 b 426 1230 447 1311 426 1265 b 502 1152 426 1195 447 1152 "},"o":{"x_min":65.328125,"x_max":1057.578125,"ha":1149,"o":"m 555 -19 b 1057 463 864 -19 1057 193 b 567 905 1057 734 869 905 b 65 443 204 905 65 644 b 555 -19 65 233 206 -19 m 604 44 b 242 479 378 44 242 236 b 532 843 242 770 398 843 b 879 420 725 843 879 681 b 604 44 879 84 688 44 "},"5":{"x_min":107.421875,"x_max":709.140625,"ha":833,"o":"m 261 -23 b 709 366 577 -23 709 181 b 258 755 709 608 461 722 l 277 925 l 525 925 b 645 850 635 925 645 888 b 656 830 645 838 647 830 b 671 847 665 830 669 838 b 688 1025 684 934 688 995 b 675 1051 688 1045 686 1051 b 647 1047 671 1051 662 1048 b 571 1041 632 1044 609 1041 l 238 1041 b 212 1023 223 1041 213 1037 l 181 656 b 205 629 179 638 189 631 b 549 300 313 613 549 522 b 325 45 549 119 434 45 b 140 231 230 45 140 83 b 127 255 140 247 137 255 b 112 230 119 255 115 244 b 107 55 106 184 107 101 b 133 1 107 26 110 13 b 261 -23 167 -15 217 -23 "},"õ":{"x_min":65.328125,"x_max":1057.578125,"ha":1149,"o":"m 555 -19 b 1057 463 864 -19 1057 193 b 567 905 1057 734 869 905 b 65 443 204 905 65 644 b 555 -19 65 233 206 -19 m 604 44 b 242 479 378 44 242 236 b 532 843 242 770 398 843 b 879 420 725 843 879 681 b 604 44 879 84 688 44 m 658 997 b 792 1101 722 997 779 1077 b 800 1125 796 1109 800 1118 b 789 1136 800 1131 794 1136 b 767 1118 782 1136 775 1129 b 684 1076 762 1111 733 1076 b 586 1106 651 1076 620 1087 b 477 1145 555 1125 525 1145 b 336 1038 412 1145 356 1072 b 325 1012 332 1033 325 1019 b 334 1002 325 1006 329 1002 b 356 1016 340 1002 344 1004 b 449 1066 367 1029 396 1066 b 536 1036 485 1066 511 1050 b 658 997 564 1020 601 997 "},",":{"x_min":87.109375,"x_max":253.171875,"ha":347,"o":"m 87 98 b 144 -22 87 79 144 56 b 104 -143 144 -54 133 -93 b 93 -166 102 -150 93 -159 b 104 -180 93 -173 100 -180 b 127 -163 112 -180 118 -172 b 235 20 174 -109 217 -20 b 253 87 245 43 253 73 b 223 159 253 102 246 125 b 189 194 205 187 201 194 b 87 98 148 194 87 147 "},"d":{"x_min":74.859375,"x_max":1064.390625,"ha":1154,"o":"m 196 338 b 190 87 196 230 196 137 b 155 25 186 52 179 30 b 112 20 144 22 130 20 b 93 8 98 20 93 13 b 117 -4 93 0 102 -4 b 200 -1 141 -4 171 -2 b 268 0 228 -1 254 0 b 389 -6 298 0 341 -2 b 532 -13 436 -9 488 -13 b 933 125 752 -13 879 69 b 1064 454 1001 193 1064 305 b 951 754 1064 594 1011 693 b 469 888 820 888 619 888 b 274 886 397 888 311 886 b 102 888 240 886 164 888 b 74 877 84 888 74 886 b 95 865 74 869 83 865 b 142 861 112 865 133 863 b 194 797 181 850 191 837 b 196 547 196 759 196 726 l 196 338 m 356 565 b 357 795 356 658 356 755 b 372 819 357 809 362 815 b 446 827 382 825 421 827 b 781 715 540 827 671 815 b 892 420 834 668 892 570 b 790 127 892 298 868 193 b 529 47 718 66 638 47 b 372 94 435 47 387 72 b 359 177 363 106 360 148 b 356 416 357 201 356 291 l 356 565 "},"\"":{"x_min":78.9375,"x_max":411.0625,"ha":500,"o":"m 148 1048 b 78 1027 106 1048 78 1048 b 129 763 78 1006 112 937 b 148 694 134 715 140 694 b 167 763 156 694 161 715 b 217 1027 183 937 217 1006 b 148 1048 217 1048 190 1048 m 341 1048 b 272 1027 299 1048 272 1048 b 322 763 272 1006 306 937 b 341 694 328 715 333 694 b 360 763 349 694 355 715 b 411 1027 377 937 411 1006 b 341 1048 411 1048 383 1048 "},"˙":{"x_min":553.96875,"x_max":707.78125,"ha":1288,"o":"m 630 1152 b 707 1236 676 1152 707 1190 b 630 1311 707 1281 673 1311 b 553 1230 575 1311 553 1265 b 630 1152 553 1195 575 1152 "},"ê":{"x_min":74.859375,"x_max":707.78125,"ha":800,"o":"m 196 338 b 190 87 196 230 196 137 b 155 25 186 52 179 30 b 112 20 144 22 130 20 b 93 8 98 20 93 13 b 117 -4 93 0 102 -4 b 200 -1 141 -4 171 -2 b 268 0 228 -1 254 0 b 406 -2 303 0 348 -1 b 627 -6 465 -5 537 -6 b 691 23 672 -6 683 -6 b 707 154 698 47 707 127 b 696 181 707 166 706 181 b 683 163 688 181 686 176 b 631 76 675 115 661 90 b 518 61 600 62 549 61 b 356 159 396 61 359 79 b 356 334 355 194 356 294 l 356 429 b 363 441 356 436 357 441 b 551 436 393 441 529 438 b 617 390 596 431 611 413 b 622 347 620 375 620 359 b 632 337 622 341 624 337 b 645 363 643 337 645 354 b 650 443 645 372 647 419 b 660 529 657 502 660 522 b 650 541 660 536 656 541 b 631 526 645 541 641 534 b 574 508 620 513 602 511 b 364 505 547 505 392 505 b 356 518 357 505 356 511 l 356 809 b 364 820 356 816 359 820 b 552 815 389 820 532 818 b 631 772 612 809 622 793 b 639 729 638 758 639 737 b 649 713 639 719 641 713 b 662 733 658 713 661 727 b 669 811 665 747 668 798 b 679 887 672 865 679 879 b 671 898 679 893 677 898 b 651 893 665 898 658 894 b 601 886 642 891 623 887 b 274 886 578 884 313 886 b 102 888 240 886 164 888 b 74 877 84 888 74 886 b 95 865 74 869 83 865 b 142 861 112 865 133 863 b 194 797 181 850 191 837 b 196 547 196 759 196 726 l 196 338 m 400 1206 b 371 1190 392 1206 385 1202 b 191 1018 352 1173 206 1034 b 179 997 185 1009 179 1002 b 191 983 179 988 185 983 b 219 1000 198 983 205 987 b 363 1102 259 1036 325 1080 b 383 1109 371 1106 378 1109 b 401 1101 389 1109 394 1106 b 521 998 415 1091 496 1025 b 541 983 532 987 536 983 b 559 993 548 983 553 987 l 598 1033 b 605 1047 602 1037 605 1043 b 586 1066 605 1051 601 1055 b 424 1191 566 1081 435 1181 b 400 1206 409 1202 404 1206 "},"":{"x_min":74.859375,"x_max":758.140625,"ha":831,"o":"m 196 338 b 190 87 196 230 196 137 b 155 25 186 52 179 30 b 112 20 144 22 130 20 b 93 8 98 20 93 13 b 117 -4 93 0 102 -4 b 268 0 164 -4 240 0 b 457 -4 299 0 385 -4 b 481 8 472 -4 481 0 b 465 20 481 13 475 20 b 406 25 450 20 424 22 b 360 86 371 30 364 52 b 355 338 355 137 355 230 l 355 613 b 364 636 355 626 356 634 b 415 644 375 641 394 644 b 536 604 445 644 495 643 b 602 426 601 540 602 465 b 441 238 602 315 517 238 b 406 223 417 238 406 233 b 421 212 406 215 415 212 b 457 211 427 211 451 211 b 758 491 634 211 758 325 b 699 631 758 554 726 608 b 460 698 679 650 613 698 b 355 694 413 698 390 697 b 356 800 355 712 355 755 b 411 859 357 834 372 854 b 455 865 427 862 446 865 b 475 877 465 865 475 870 b 451 888 475 886 465 888 b 273 886 389 888 303 886 b 102 888 240 886 164 888 b 74 877 84 888 74 886 b 95 865 74 869 83 865 b 142 861 112 865 133 863 b 194 797 181 851 191 837 b 196 547 196 759 196 726 l 196 338 "},"„":{"x_min":54.4375,"x_max":435.5625,"ha":500,"o":"m 114 68 b 61 -148 114 -18 85 -100 b 54 -166 55 -159 54 -163 b 62 -175 54 -172 58 -175 b 84 -163 70 -175 76 -172 b 234 133 145 -100 234 48 b 194 173 234 154 228 163 b 81 200 168 181 108 200 b 66 188 74 200 66 193 b 81 163 66 181 68 177 b 114 68 93 151 114 113 m 315 68 b 262 -148 315 -18 287 -100 b 255 -166 257 -159 255 -163 b 264 -175 255 -172 259 -175 b 285 -163 272 -175 277 -172 b 435 133 347 -100 435 48 b 396 173 435 154 430 163 b 283 200 370 181 310 200 b 268 188 276 200 268 193 b 283 163 268 181 269 177 b 315 68 295 151 315 113 "},"ľ":{"x_min":83.03125,"x_max":736.359375,"ha":767,"o":"m 356 547 b 359 797 356 726 356 759 b 404 861 362 838 371 855 b 450 865 417 863 436 865 b 472 877 465 865 472 869 b 446 888 472 886 464 888 b 273 886 400 888 302 886 b 108 888 240 886 164 888 b 83 877 91 888 83 886 b 103 865 83 869 89 865 b 142 861 118 865 133 863 b 194 797 181 850 191 837 b 196 547 196 759 196 726 l 196 338 b 190 87 196 230 196 137 b 155 25 186 52 179 30 b 112 20 144 22 130 20 b 93 8 98 20 93 13 b 117 -4 93 0 102 -4 b 200 -1 141 -4 171 -2 b 268 0 228 -1 254 0 b 427 -2 317 0 367 -1 b 642 -6 487 -5 556 -6 b 718 25 705 -6 710 -1 b 736 161 728 59 736 147 b 725 187 736 175 733 187 b 711 169 715 187 713 180 b 681 98 709 147 696 113 b 541 65 651 66 605 65 b 382 90 449 65 402 72 b 356 338 356 112 356 187 l 356 547 m 733 808 b 707 869 733 820 726 838 b 677 900 692 893 688 900 b 590 816 642 900 590 858 b 639 713 590 800 639 781 b 605 609 639 686 630 652 b 596 590 602 604 596 595 b 605 577 596 584 601 577 b 626 591 612 577 617 584 b 718 750 665 637 703 713 b 733 808 726 769 733 795 "},"Â":{"x_min":-87.0625,"x_max":1033.046875,"ha":972,"o":"m 581 358 b 594 348 587 358 592 355 l 703 54 b 691 22 710 37 700 25 b 672 9 677 20 672 18 b 713 -1 672 0 688 0 b 970 -4 822 -4 921 -4 b 1033 9 1020 -4 1033 -1 b 1015 20 1033 19 1026 20 b 958 26 999 20 978 22 b 838 177 929 33 890 52 b 500 1031 751 388 533 955 b 466 1076 487 1063 479 1076 b 428 1020 453 1076 445 1061 l 87 148 b -28 23 59 79 34 31 b -70 20 -39 22 -58 20 b -87 9 -81 20 -87 18 b -61 -4 -87 -1 -78 -4 b 99 0 9 -4 84 0 b 243 -4 141 0 200 -4 b 266 9 258 -4 266 -1 b 246 20 266 18 262 20 l 225 20 b 171 63 183 20 171 38 b 191 148 171 80 178 113 l 265 347 b 277 358 268 355 270 358 l 581 358 m 304 427 b 299 437 299 427 298 431 l 424 779 b 432 791 426 784 428 791 b 439 779 436 791 438 784 l 562 436 b 555 427 563 431 562 427 l 304 427 m 484 1362 b 455 1345 476 1362 469 1358 b 276 1173 436 1329 291 1190 b 264 1152 269 1165 264 1158 b 276 1138 264 1144 269 1138 b 303 1155 283 1138 289 1143 b 447 1258 344 1191 409 1236 b 468 1265 455 1262 462 1265 b 485 1256 473 1265 479 1262 b 605 1154 499 1247 581 1180 b 626 1138 616 1143 620 1138 b 643 1148 632 1138 638 1143 l 683 1188 b 690 1202 687 1193 690 1198 b 671 1222 690 1206 685 1211 b 509 1347 650 1237 519 1337 b 484 1362 494 1358 488 1362 "},"Į":{"x_min":103.375,"x_max":543,"ha":628,"o":"m 375 -235 b 296 -167 325 -235 296 -213 b 382 -9 296 -112 330 -37 b 517 -4 417 8 468 -4 b 543 9 532 -4 543 0 b 521 21 543 16 536 21 b 451 26 500 21 470 23 b 397 94 410 32 401 57 b 391 398 391 154 391 264 l 391 643 b 394 937 391 854 391 893 b 445 1016 397 986 408 1009 b 485 1021 461 1019 472 1021 b 507 1034 499 1021 507 1023 b 479 1046 507 1043 496 1046 b 312 1041 427 1046 347 1041 b 136 1046 273 1041 187 1046 b 103 1034 114 1046 103 1043 b 125 1021 103 1023 111 1021 b 174 1015 141 1021 159 1019 b 220 937 204 1008 217 984 b 223 643 223 893 223 854 l 223 398 b 216 96 223 264 223 154 b 176 26 212 55 204 32 b 127 21 164 23 148 21 b 106 9 111 21 106 16 b 133 -4 106 0 115 -4 b 227 -1 160 -4 195 -1 b 304 0 259 0 289 0 l 329 0 b 174 -209 303 -9 174 -126 b 298 -315 174 -284 214 -315 b 466 -223 390 -315 453 -238 b 477 -201 472 -216 477 -206 b 465 -190 477 -194 472 -190 b 375 -235 451 -190 427 -235 "},"ė":{"x_min":74.859375,"x_max":707.78125,"ha":800,"o":"m 196 338 b 190 87 196 230 196 137 b 155 25 186 52 179 30 b 112 20 144 22 130 20 b 93 8 98 20 93 13 b 117 -4 93 0 102 -4 b 200 -1 141 -4 171 -2 b 268 0 228 -1 254 0 b 406 -2 303 0 348 -1 b 627 -6 465 -5 537 -6 b 691 23 672 -6 683 -6 b 707 154 698 47 707 127 b 696 181 707 166 706 181 b 683 163 688 181 686 176 b 631 76 675 115 661 90 b 518 61 600 62 549 61 b 356 159 396 61 359 79 b 356 334 355 194 356 294 l 356 429 b 363 441 356 436 357 441 b 551 436 393 441 529 438 b 617 390 596 431 611 413 b 622 347 620 375 620 359 b 632 337 622 341 624 337 b 645 363 643 337 645 354 b 650 443 645 372 647 419 b 660 529 657 502 660 522 b 650 541 660 536 656 541 b 631 526 645 541 641 534 b 574 508 620 513 602 511 b 364 505 547 505 392 505 b 356 518 357 505 356 511 l 356 809 b 364 820 356 816 359 820 b 552 815 389 820 532 818 b 631 772 612 809 622 793 b 639 729 638 758 639 737 b 649 713 639 719 641 713 b 662 733 658 713 661 727 b 669 811 665 747 668 798 b 679 887 672 865 679 879 b 671 898 679 893 677 898 b 651 893 665 898 658 894 b 601 886 642 891 623 887 b 274 886 578 884 313 886 b 102 888 240 886 164 888 b 74 877 84 888 74 886 b 95 865 74 869 83 865 b 142 861 112 865 133 863 b 194 797 181 850 191 837 b 196 547 196 759 196 726 l 196 338 m 431 997 b 509 1080 477 997 509 1034 b 431 1155 509 1126 475 1155 b 355 1075 377 1155 355 1109 b 431 997 355 1040 377 997 "},"Ţ":{"x_min":19.0625,"x_max":939.171875,"ha":986,"o":"m 404 398 b 397 102 404 270 404 161 b 357 26 393 62 385 31 b 308 20 345 23 329 20 b 287 9 292 20 287 16 b 314 -4 287 0 296 -4 b 485 0 368 -4 454 0 b 699 -4 524 0 609 -4 b 725 9 714 -4 725 0 b 703 20 725 16 718 20 b 634 26 683 20 653 23 b 581 101 593 31 585 62 b 574 398 574 161 574 270 l 574 968 l 745 963 b 906 886 867 961 903 922 l 907 870 b 922 843 909 850 911 843 b 935 865 931 843 933 851 b 939 1026 935 901 939 997 b 928 1055 939 1047 937 1055 b 891 1048 922 1055 911 1052 b 797 1041 871 1045 841 1041 l 258 1041 b 122 1048 213 1041 161 1044 b 63 1065 88 1051 74 1065 b 47 1038 55 1065 51 1056 b 19 879 44 1027 19 901 b 31 856 19 863 21 856 b 46 873 39 856 43 862 b 69 922 49 884 55 901 b 201 962 89 952 122 959 l 404 968 l 404 398 m 560 -163 b 534 -102 560 -151 553 -133 b 504 -72 519 -79 515 -72 b 417 -155 469 -72 417 -113 b 466 -258 417 -172 466 -190 b 432 -362 466 -286 457 -319 b 423 -381 430 -368 423 -376 b 432 -394 423 -387 428 -394 b 453 -380 439 -394 445 -387 b 545 -222 492 -334 530 -258 b 560 -163 553 -202 560 -176 "},"":{"x_min":24.5,"x_max":996.328125,"ha":1056,"o":"m 144 373 b 253 61 144 202 191 115 b 526 -19 340 -16 464 -19 b 779 65 604 -19 695 -6 b 894 420 880 150 894 288 l 894 547 b 896 797 894 726 895 759 b 940 861 899 838 907 855 b 975 865 955 863 962 865 b 996 877 989 865 996 869 b 971 888 996 886 988 888 b 831 886 925 888 845 886 b 688 888 830 886 749 888 b 664 877 672 888 664 886 b 684 865 664 869 671 865 b 728 861 698 865 718 863 b 778 797 766 850 775 837 b 781 547 779 759 781 726 l 781 398 b 711 111 781 277 778 175 b 551 48 664 63 602 48 b 400 95 510 48 453 52 b 308 381 341 143 308 209 l 308 547 b 311 797 308 726 308 759 b 355 861 314 838 323 855 b 390 865 370 863 377 865 b 409 877 402 865 409 869 b 383 888 409 886 401 888 b 230 886 340 888 259 886 b 50 888 194 886 114 888 b 24 877 32 888 24 886 b 44 865 24 869 31 865 b 91 861 61 865 81 863 b 142 797 129 850 140 838 b 144 547 145 759 144 726 l 144 373 m 617 1006 b 589 1031 617 1016 602 1020 b 438 1173 526 1077 450 1156 b 416 1204 424 1193 423 1204 b 390 1194 409 1204 405 1201 b 299 1159 372 1186 325 1168 b 281 1147 288 1156 281 1154 b 326 1112 281 1138 300 1123 b 602 997 349 1101 582 997 b 617 1006 608 997 617 1000 "},"Í":{"x_min":103.4375,"x_max":543.078125,"ha":628,"o":"m 223 398 b 216 96 223 264 223 154 b 176 26 212 55 204 32 b 127 21 164 23 148 21 b 106 9 111 21 106 16 b 133 -4 106 0 115 -4 b 304 0 187 -4 273 0 b 517 -4 341 0 427 -4 b 543 9 532 -4 543 0 b 521 21 543 16 536 21 b 451 26 500 21 470 23 b 397 94 411 32 401 57 b 392 398 392 154 392 264 l 392 643 b 394 937 392 854 392 893 b 445 1016 397 986 408 1009 b 485 1021 461 1019 472 1021 b 507 1034 499 1021 507 1023 b 479 1046 507 1043 496 1046 b 313 1041 427 1046 347 1041 b 136 1046 273 1041 187 1046 b 103 1034 114 1046 103 1043 b 125 1021 103 1023 111 1021 b 174 1015 141 1021 159 1019 b 220 937 204 1008 217 984 b 223 643 223 893 223 854 l 223 398 m 494 1350 b 475 1366 487 1362 484 1366 b 447 1354 470 1366 461 1364 b 228 1179 426 1340 283 1232 b 216 1161 221 1172 216 1166 b 224 1152 216 1155 221 1152 b 247 1164 227 1152 236 1158 b 480 1246 298 1191 405 1236 b 526 1246 507 1248 519 1246 b 533 1266 533 1246 541 1250 b 494 1350 517 1304 504 1330 "},"´":{"x_min":539,"x_max":859.5625,"ha":1288,"o":"m 816 1350 b 797 1366 809 1362 807 1366 b 770 1354 793 1366 784 1364 b 551 1179 748 1340 605 1232 b 539 1161 544 1172 539 1166 b 547 1152 539 1155 544 1152 b 570 1164 549 1152 559 1158 b 803 1246 620 1191 728 1236 b 849 1246 830 1248 842 1246 b 856 1266 856 1246 864 1250 b 816 1350 839 1304 827 1330 "},"":{"x_min":53.078125,"x_max":558.0625,"ha":622,"o":"m 558 9 b 548 22 558 18 553 22 b 462 29 537 22 481 25 b 411 93 421 37 415 55 b 405 355 405 144 405 241 l 405 584 b 412 891 405 765 412 881 b 398 916 412 904 411 916 b 364 901 387 916 375 908 b 65 719 318 870 70 722 b 53 702 58 716 53 709 b 62 690 53 695 58 690 b 80 694 68 690 73 691 b 230 751 108 705 205 751 b 249 708 249 751 249 736 b 250 554 249 668 250 618 l 250 355 b 245 93 250 241 250 144 b 193 30 240 55 232 38 b 89 22 168 25 103 22 b 80 9 84 22 80 18 b 100 -4 80 1 87 -4 b 322 0 183 -4 292 0 b 537 -4 357 0 439 -4 b 558 9 551 -4 558 1 "},"Ú":{"x_min":27.21875,"x_max":1117.46875,"ha":1183,"o":"m 164 440 b 285 72 164 239 216 136 b 588 -23 385 -19 515 -23 b 871 76 676 -23 774 -8 b 1000 494 985 176 1000 340 l 1000 643 b 1003 937 1000 854 1000 893 b 1053 1016 1005 986 1016 1009 b 1092 1021 1069 1019 1078 1021 b 1117 1033 1109 1021 1117 1023 b 1088 1046 1117 1043 1107 1046 b 933 1041 1035 1046 950 1041 b 777 1046 932 1041 846 1046 b 748 1033 758 1046 748 1043 b 771 1021 748 1023 756 1021 b 820 1016 786 1021 809 1019 b 879 937 865 1007 876 984 b 882 643 882 893 882 854 l 882 469 b 803 125 882 326 877 201 b 615 50 748 69 675 50 b 445 107 568 50 506 55 b 338 448 378 162 338 247 l 338 643 b 341 937 338 854 338 893 b 392 1016 344 986 355 1009 b 431 1021 408 1019 416 1021 b 453 1033 445 1021 453 1023 b 423 1046 453 1043 443 1046 b 255 1041 374 1046 288 1041 b 57 1046 215 1041 129 1046 b 27 1033 36 1046 27 1043 b 50 1021 27 1023 35 1021 b 103 1016 69 1021 92 1019 b 161 937 148 1007 159 984 b 164 643 164 893 164 854 l 164 440 m 792 1350 b 773 1366 785 1362 782 1366 b 745 1354 769 1366 759 1364 b 526 1179 724 1340 581 1232 b 514 1161 519 1172 514 1166 b 522 1152 514 1155 519 1152 b 545 1164 525 1152 534 1158 b 778 1246 596 1191 703 1236 b 824 1246 805 1248 818 1246 b 831 1266 831 1246 839 1250 b 792 1350 815 1304 803 1330 "},"":{"x_min":23.140625,"x_max":460.0625,"ha":518,"o":"m 196 208 b 106 -230 196 -23 197 -140 b 49 -276 83 -254 65 -268 b 23 -297 28 -286 23 -291 b 32 -308 23 -302 27 -308 b 57 -302 38 -308 49 -306 b 117 -272 83 -290 102 -280 b 332 -47 232 -202 306 -119 b 360 161 356 19 360 94 b 356 327 360 220 356 277 l 356 547 b 359 797 356 726 356 759 b 404 861 362 838 371 855 b 438 865 417 863 426 865 b 460 877 453 865 460 869 b 435 888 460 886 451 888 b 283 886 387 888 311 886 b 102 888 251 886 164 888 b 74 877 84 888 74 886 b 95 865 74 869 83 865 b 142 861 112 865 133 863 b 194 797 181 850 191 837 b 196 547 196 759 196 726 l 196 208 "},"":{"x_min":65.328125,"x_max":1022.203125,"ha":1088,"o":"m 926 205 b 928 347 926 263 926 311 b 974 411 929 388 941 405 b 1007 415 988 413 997 415 b 1022 427 1015 415 1022 420 b 997 438 1022 437 1014 438 b 857 436 958 438 895 436 b 673 438 822 436 736 438 b 647 427 657 438 647 437 b 666 415 647 420 656 415 b 713 411 683 415 703 413 b 764 347 751 400 763 387 b 766 208 766 311 766 266 l 766 100 b 743 58 766 79 760 66 b 658 45 714 45 690 45 b 242 484 402 45 242 230 b 352 772 242 629 285 716 b 583 841 435 840 518 841 b 843 751 718 841 808 788 b 884 654 875 718 882 680 b 896 638 886 644 888 638 b 913 665 906 638 913 647 b 921 859 913 813 921 845 b 905 873 921 868 918 872 b 809 886 876 875 834 881 b 597 905 785 891 680 905 b 274 829 496 905 389 897 b 65 443 164 763 65 631 b 619 -19 65 116 325 -19 b 911 33 713 -19 831 -6 b 926 75 926 41 926 43 l 926 205 "},"Ý":{"x_min":-66.6875,"x_max":986.8125,"ha":931,"o":"m 375 241 b 371 102 375 219 375 161 b 329 26 368 62 356 32 b 281 21 317 23 300 21 b 259 9 266 21 259 16 b 289 -4 259 -1 270 -4 b 460 0 340 -4 426 0 b 668 -4 496 0 582 -4 b 696 9 686 -4 696 0 b 675 21 696 16 690 21 b 607 26 656 21 626 23 b 551 102 566 32 553 62 b 547 241 547 161 547 219 l 547 355 b 567 494 547 401 547 444 b 827 936 592 554 782 880 b 901 1004 857 973 872 990 b 960 1021 921 1015 947 1021 b 986 1034 975 1021 986 1025 b 962 1046 986 1043 977 1046 b 816 1041 936 1046 846 1041 b 688 1046 777 1041 733 1046 b 665 1033 672 1046 665 1043 b 690 1019 665 1025 677 1022 b 718 984 713 1014 718 998 b 699 912 718 966 713 943 b 495 530 680 869 509 564 b 264 946 473 569 283 904 b 247 993 254 965 247 982 b 266 1018 247 1004 254 1015 b 296 1033 287 1023 296 1025 b 276 1046 296 1041 289 1046 b 130 1041 215 1046 159 1041 b -40 1046 85 1041 -16 1046 b -66 1033 -57 1046 -66 1041 b -46 1021 -66 1023 -57 1021 b 10 1002 -29 1021 -6 1012 b 104 901 36 987 70 952 b 344 501 152 829 334 523 b 375 355 362 461 375 430 l 375 241 m 681 1350 b 662 1366 675 1362 672 1366 b 635 1354 658 1366 649 1364 b 416 1179 613 1340 470 1232 b 404 1161 409 1172 404 1166 b 412 1152 404 1155 409 1152 b 435 1164 415 1152 424 1158 b 668 1246 485 1191 593 1236 b 714 1246 695 1248 707 1246 b 721 1266 721 1246 729 1250 b 681 1350 705 1304 692 1330 "},"":{"x_min":-75.203125,"x_max":925.21875,"ha":878,"o":"m 529 293 b 541 284 534 293 538 291 l 633 47 b 623 20 639 33 631 22 b 608 8 610 19 608 15 b 643 -1 608 0 621 0 b 873 -4 744 -4 831 -4 b 925 8 918 -4 925 -1 b 908 20 925 16 919 20 b 863 25 895 20 881 22 b 761 151 842 29 808 44 b 457 879 685 330 485 813 b 421 916 444 905 439 916 b 386 869 409 916 399 902 l 73 126 b -26 22 48 66 28 30 b -61 20 -37 22 -50 20 b -75 8 -71 20 -75 15 b -53 -4 -75 -1 -68 -4 b 85 0 9 -4 73 0 b 218 -4 123 0 179 -4 b 237 8 231 -4 237 -1 b 220 20 237 15 235 20 l 202 20 b 154 54 165 20 154 33 b 172 126 154 68 160 97 l 236 284 b 247 293 239 291 240 293 l 529 293 m 271 358 b 267 366 267 358 265 361 l 383 665 b 390 676 384 669 386 676 b 395 665 393 676 394 669 l 508 365 b 503 358 510 361 508 358 l 271 358 m 394 983 b 589 1108 482 983 590 1030 b 459 1188 589 1155 538 1188 b 273 1066 353 1188 273 1130 b 394 983 273 1019 319 983 m 356 1086 b 433 1154 356 1133 402 1154 b 506 1090 482 1154 506 1123 b 424 1018 506 1051 469 1018 b 356 1086 391 1018 356 1044 "},"ą":{"x_min":-74.453125,"x_max":925.96875,"ha":878,"o":"m 272 358 b 268 366 268 358 265 361 l 384 665 b 391 676 385 669 386 676 b 396 665 393 676 395 669 l 509 365 b 504 358 510 361 509 358 l 272 358 m 664 -236 b 585 -168 614 -236 585 -213 b 725 0 585 -50 676 0 b 810 -1 749 0 781 -1 b 874 -4 838 -2 864 -4 b 925 8 919 -4 925 -1 b 909 20 925 16 920 20 b 864 25 896 20 882 22 b 762 151 842 29 808 44 b 457 879 686 330 486 813 b 422 916 445 905 440 916 b 386 869 410 916 400 902 l 73 126 b -25 22 49 66 28 30 b -60 20 -36 22 -49 20 b -74 8 -70 20 -74 15 b -52 -4 -74 -1 -67 -4 b 86 0 9 -4 73 0 b 219 -4 124 0 180 -4 b 238 8 231 -4 238 -1 b 220 20 238 15 235 20 l 203 20 b 155 54 166 20 155 33 b 173 126 155 68 161 97 l 237 284 b 248 293 239 291 241 293 l 529 293 b 542 284 535 293 539 291 l 634 47 b 640 23 640 33 640 31 b 463 -209 640 9 463 -97 b 587 -315 463 -284 504 -315 b 755 -223 679 -315 742 -238 b 766 -201 761 -216 766 -206 b 754 -190 766 -194 761 -190 b 664 -236 740 -190 716 -236 "},"Ö":{"x_min":74.859375,"x_max":1186.890625,"ha":1288,"o":"m 623 -23 b 1186 545 969 -23 1186 227 b 637 1065 1186 863 975 1065 b 74 520 228 1065 74 758 b 623 -23 74 275 232 -23 m 680 45 b 262 563 419 45 262 275 b 597 998 262 909 441 998 b 996 494 820 998 996 805 b 680 45 996 93 775 45 m 773 1152 b 838 1222 812 1152 838 1183 b 774 1283 838 1261 809 1283 b 711 1218 730 1283 711 1245 b 773 1152 711 1188 729 1152 m 485 1152 b 551 1222 525 1152 551 1183 b 487 1281 551 1259 522 1281 b 424 1218 443 1281 424 1244 b 485 1152 424 1188 442 1152 "},"z":{"x_min":68.046875,"x_max":794.953125,"ha":868,"o":"m 273 70 b 788 854 442 319 622 588 b 794 876 792 862 794 866 b 774 886 794 881 786 886 l 405 886 b 185 888 356 886 299 884 b 137 897 155 890 148 897 b 123 875 130 897 125 891 b 99 704 117 838 99 731 b 111 684 99 690 103 684 b 126 705 118 684 123 688 b 190 795 129 733 151 773 b 360 816 228 816 299 816 l 586 816 b 83 47 426 573 251 306 b 68 12 69 26 68 19 b 88 0 68 4 74 0 b 733 -5 330 0 533 -5 b 770 25 755 -5 763 4 b 793 169 778 54 793 130 b 781 205 793 197 790 205 b 767 186 773 205 770 198 b 745 131 763 169 755 150 b 560 70 725 95 683 70 l 273 70 "},"™":{"x_min":-5.4375,"x_max":377.03125,"ha":381,"o":"m 31 1058 b 12 1060 28 1058 19 1058 b 2 1063 5 1061 5 1063 b 0 1057 2 1063 0 1060 b -5 1026 0 1053 -5 1034 b -2 1019 -5 1021 -5 1019 b 2 1026 0 1019 1 1020 b 25 1040 4 1034 10 1040 l 54 1040 l 54 947 b 53 901 54 922 53 909 b 42 887 51 895 51 888 l 35 887 b 28 883 31 887 28 885 b 35 878 28 881 29 878 b 72 880 44 878 63 880 b 106 878 78 880 98 878 b 112 883 111 878 112 880 b 106 887 112 884 111 887 l 100 887 b 89 901 93 887 91 894 b 88 947 88 909 88 922 l 88 1040 l 112 1040 b 134 1029 133 1040 134 1036 b 138 1016 134 1019 136 1016 b 144 1026 141 1016 142 1019 b 145 1052 144 1028 145 1048 b 142 1060 145 1057 145 1060 b 136 1058 141 1060 140 1058 l 121 1058 l 31 1058 m 155 904 b 147 887 153 891 151 887 l 142 887 b 136 883 138 887 136 885 b 141 878 136 881 137 878 b 163 880 149 878 157 880 b 190 878 168 880 182 878 b 194 883 194 878 194 881 b 189 887 194 885 193 887 l 183 887 b 178 894 179 887 178 891 l 178 903 l 187 992 l 189 992 l 238 892 b 247 880 240 887 243 880 b 257 892 251 880 253 884 l 306 989 l 307 989 l 321 887 b 326 881 321 884 322 881 b 371 878 332 880 364 878 b 377 883 375 878 377 880 b 372 887 377 885 377 887 l 367 887 b 353 909 360 887 356 891 l 332 1054 b 326 1063 330 1058 329 1063 b 319 1057 323 1063 321 1061 l 257 928 l 191 1056 b 183 1063 189 1060 187 1063 b 178 1053 179 1063 179 1057 l 155 904 "},"Ř":{"x_min":85.75,"x_max":1159.671875,"ha":1049,"o":"m 223 398 b 216 102 223 270 223 161 b 176 26 210 62 204 31 b 127 20 164 23 148 20 b 106 9 111 20 106 16 b 133 -4 106 0 115 -4 b 299 0 187 -4 273 0 b 499 -4 319 0 420 -4 b 526 9 517 -4 526 0 b 510 20 526 16 521 20 b 443 26 494 20 464 23 b 390 102 402 31 394 62 b 383 400 383 161 383 270 l 383 419 b 394 430 383 427 387 430 l 513 427 b 537 418 522 427 530 426 b 672 226 555 397 617 302 b 858 22 748 119 800 54 b 1004 -4 894 2 928 -4 l 1133 -4 b 1159 9 1150 -4 1159 -1 b 1143 20 1159 16 1154 20 b 1105 25 1132 20 1120 22 b 952 119 1084 29 1029 38 b 657 484 872 205 778 329 b 837 795 794 598 837 693 b 744 986 837 888 782 959 b 494 1045 671 1037 579 1045 b 302 1041 451 1045 348 1041 b 115 1045 273 1041 187 1045 b 85 1033 95 1045 85 1043 b 108 1020 85 1023 93 1020 b 161 1016 127 1020 151 1019 b 220 937 206 1006 217 984 b 223 643 223 893 223 854 l 223 398 m 383 955 b 396 975 383 966 386 972 b 468 980 409 979 434 980 b 676 726 548 980 676 923 b 596 518 676 612 637 548 b 499 494 571 500 553 494 b 396 508 465 494 424 498 b 383 533 386 512 383 518 l 383 955 m 280 1312 b 273 1298 276 1308 273 1302 b 292 1279 273 1294 277 1290 b 454 1154 313 1263 443 1163 b 479 1138 469 1143 475 1138 b 507 1155 487 1138 494 1143 b 687 1327 526 1172 672 1311 b 699 1348 695 1336 699 1343 b 687 1362 699 1356 694 1362 b 657 1344 680 1362 673 1358 b 515 1241 619 1312 553 1265 b 495 1236 509 1237 500 1236 b 477 1244 490 1236 484 1238 b 357 1347 464 1254 383 1320 b 334 1362 345 1359 340 1362 b 319 1352 330 1362 325 1358 l 280 1312 "},"ã":{"x_min":-75.140625,"x_max":925.109375,"ha":878,"o":"m 529 293 b 541 284 534 293 538 291 l 633 47 b 622 20 639 33 631 22 b 607 8 610 19 607 15 b 643 -1 607 0 621 0 b 873 -4 744 -4 831 -4 b 925 8 918 -4 925 -1 b 908 20 925 16 919 20 b 863 25 895 20 881 22 b 761 151 842 29 808 44 b 456 879 685 330 485 813 b 421 916 444 905 439 916 b 386 869 409 916 399 902 l 73 126 b -26 22 48 66 28 30 b -61 20 -37 22 -50 20 b -75 8 -71 20 -75 15 b -53 -4 -75 -1 -68 -4 b 85 0 9 -4 73 0 b 218 -4 123 0 179 -4 b 237 8 231 -4 237 -1 b 220 20 237 15 235 20 l 202 20 b 154 54 165 20 154 33 b 172 126 154 68 160 97 l 236 284 b 247 293 239 291 240 293 l 529 293 m 271 358 b 267 366 267 358 265 361 l 383 665 b 390 676 384 669 386 676 b 395 665 393 676 394 669 l 508 365 b 503 358 510 361 508 358 l 271 358 m 526 997 b 659 1101 590 997 647 1077 b 667 1125 663 1109 667 1118 b 656 1136 667 1131 662 1136 b 635 1118 650 1136 643 1129 b 552 1076 629 1111 601 1076 b 454 1106 519 1076 488 1087 b 345 1145 422 1125 393 1145 b 203 1038 280 1145 224 1072 b 193 1012 199 1033 193 1019 b 202 1002 193 1006 197 1002 b 224 1016 207 1002 212 1004 b 316 1066 235 1029 263 1066 b 403 1036 353 1066 379 1050 b 526 997 432 1020 469 997 "},"Ň":{"x_min":63.96875,"x_max":1208.671875,"ha":1315,"o":"m 284 768 l 288 768 b 612 418 313 741 464 568 b 1014 9 754 275 928 93 b 1060 -20 1029 -5 1045 -20 b 1078 22 1072 -20 1078 -8 l 1092 898 b 1143 1016 1094 976 1105 1005 b 1184 1020 1159 1020 1170 1020 b 1208 1033 1200 1020 1208 1025 b 1177 1045 1208 1044 1195 1045 b 1043 1041 1110 1045 1058 1041 b 879 1045 1015 1041 950 1045 b 843 1033 858 1045 843 1044 b 865 1020 843 1025 849 1020 b 937 1012 884 1020 917 1020 b 984 887 970 998 982 972 l 997 263 l 990 263 b 691 580 967 286 784 486 b 269 1026 492 781 285 1008 b 219 1069 246 1051 234 1069 b 201 1022 205 1069 201 1050 l 189 200 b 147 27 187 79 182 38 b 85 20 127 22 103 20 b 63 9 72 20 63 18 b 93 -4 63 -2 76 -4 b 240 0 164 -4 228 0 b 409 -4 266 0 321 -4 b 441 9 428 -4 441 -1 b 417 20 441 18 432 20 b 347 30 396 20 370 22 b 299 184 319 40 302 76 l 284 768 m 445 1284 b 438 1270 441 1280 438 1275 b 457 1251 438 1266 442 1262 b 619 1126 477 1236 608 1136 b 643 1111 634 1115 639 1111 b 672 1127 651 1111 658 1115 b 852 1300 691 1144 837 1283 b 864 1320 860 1308 864 1315 b 852 1334 864 1329 858 1334 b 822 1316 845 1334 838 1330 b 680 1213 784 1284 718 1237 b 660 1208 673 1209 665 1208 b 642 1216 654 1208 649 1211 b 522 1319 628 1226 548 1293 b 499 1334 510 1331 504 1334 b 484 1325 495 1334 490 1330 l 445 1284 "},"æ":{"x_min":-111.609375,"x_max":1060.3125,"ha":1161,"o":"m 563 333 b 558 87 563 225 563 137 b 522 25 553 52 547 30 b 480 20 511 22 498 20 b 465 6 468 20 465 13 b 488 -4 465 -1 470 -4 b 560 -1 510 -4 536 -2 b 622 0 585 -1 607 0 b 760 -2 657 0 702 0 b 980 -6 818 -4 890 -6 b 1045 23 1026 -6 1037 -6 b 1060 154 1050 47 1060 127 b 1048 181 1060 166 1057 181 b 1035 163 1039 181 1037 176 b 981 76 1027 115 1012 90 b 871 62 950 62 902 62 b 710 155 749 62 710 75 l 710 336 l 710 391 b 717 402 710 398 711 402 b 906 398 745 402 883 401 b 970 352 950 394 965 376 b 975 309 974 337 974 322 b 986 300 975 304 977 300 b 1000 325 997 300 1000 315 b 1004 404 1000 333 1001 380 b 1014 491 1011 463 1014 484 b 1005 501 1014 500 1009 501 b 986 486 1000 501 994 495 b 929 469 975 475 958 470 b 718 466 901 468 744 466 b 710 479 711 466 710 470 l 710 809 b 718 820 710 816 711 820 b 907 816 741 820 887 819 b 985 773 967 811 977 794 b 992 730 990 759 992 738 b 1003 715 992 720 994 715 b 1018 733 1011 715 1016 727 b 1023 811 1020 747 1022 798 b 1033 887 1027 865 1033 879 b 1026 898 1033 893 1031 898 b 1007 893 1020 898 1012 894 b 955 886 997 891 978 886 b 628 886 905 884 666 886 b 564 888 590 886 574 888 b 549 872 556 888 552 881 b 524 820 547 863 541 848 b 84 151 506 794 122 200 b -42 30 59 119 27 61 b -95 20 -59 22 -84 20 b -111 8 -106 20 -111 15 b -95 -4 -111 0 -107 -4 b 57 0 -32 -4 35 0 b 234 -4 81 0 157 -4 b 257 8 247 -4 257 0 b 239 20 257 15 250 20 b 178 30 217 20 193 23 b 157 61 167 36 157 44 b 209 177 157 77 168 109 b 334 391 228 209 321 372 b 353 400 338 398 344 400 l 552 400 b 563 390 559 400 563 397 l 563 333 m 563 468 b 552 459 563 462 560 459 l 390 459 b 385 470 382 459 379 461 b 558 763 397 493 525 711 l 563 763 l 563 468 "},"É":{"x_min":85.375,"x_max":772.734375,"ha":878,"o":"m 222 398 b 216 102 222 271 222 161 b 176 26 210 62 203 32 b 127 21 164 23 147 21 b 105 9 111 21 105 16 b 133 -4 105 0 115 -4 b 226 -1 160 -4 195 -1 b 304 0 259 0 289 0 b 446 -4 345 0 387 -1 b 681 -8 504 -5 579 -8 b 755 27 733 -8 745 -8 b 772 182 761 55 772 150 b 761 207 772 196 772 207 b 746 186 752 207 749 201 b 685 83 737 129 721 100 b 557 66 650 66 593 66 b 394 183 418 66 397 87 b 394 398 392 223 394 351 l 394 508 b 402 522 394 516 395 522 b 595 518 435 522 569 521 b 672 464 646 512 665 491 b 677 414 676 446 676 427 b 689 401 677 407 680 401 b 701 427 701 401 701 416 b 707 521 701 437 706 493 b 718 622 712 591 718 614 b 708 633 718 630 714 633 b 686 615 701 633 696 626 b 621 594 674 601 654 597 b 403 591 590 591 433 591 b 394 607 395 591 394 597 l 394 958 b 403 972 394 968 397 972 b 597 966 431 972 574 969 b 688 916 665 958 678 941 b 696 866 695 900 696 876 b 708 847 696 854 699 847 b 722 862 718 847 721 855 b 729 954 725 879 727 940 b 740 1044 733 1018 740 1034 b 731 1057 740 1051 738 1057 b 710 1051 725 1057 716 1052 b 651 1043 699 1048 677 1046 b 311 1041 625 1041 354 1041 b 225 1044 292 1041 260 1043 b 115 1046 191 1044 152 1046 b 85 1033 94 1046 85 1043 b 108 1021 85 1023 93 1021 b 161 1016 127 1021 150 1019 b 220 937 206 1007 217 984 b 222 643 222 893 222 854 l 222 398 m 628 1350 b 609 1366 621 1362 618 1366 b 582 1354 605 1366 595 1364 b 363 1179 560 1340 417 1232 b 350 1161 356 1172 350 1166 b 358 1152 350 1155 356 1152 b 382 1164 361 1152 371 1158 b 614 1246 432 1191 539 1236 b 661 1246 642 1248 654 1246 b 667 1266 667 1246 676 1250 b 628 1350 651 1304 639 1330 "},"~":{"x_min":50.1875,"x_max":697.328125,"ha":763,"o":"m 696 475 l 619 475 b 551 359 617 402 594 359 b 390 415 507 359 454 384 b 208 475 306 456 264 475 b 50 273 115 475 46 413 l 127 273 b 201 388 130 352 157 388 b 359 331 245 388 298 362 b 544 272 443 288 491 272 b 696 475 628 272 703 320 "},"³":{"x_min":70.78125,"x_max":492.71875,"ha":588,"o":"m 205 418 b 492 633 378 418 492 518 b 326 793 492 736 381 784 l 326 795 b 457 947 367 811 457 865 b 262 1065 457 987 424 1065 b 108 1040 191 1065 137 1050 b 89 1018 89 1033 89 1025 b 98 929 89 991 93 954 b 108 913 99 918 102 913 b 117 931 115 913 117 919 b 232 1020 117 981 170 1020 b 343 920 318 1020 343 954 b 221 786 343 833 243 788 b 194 769 201 783 194 779 b 224 755 194 762 200 758 b 374 600 280 748 378 705 b 232 468 371 508 302 468 b 93 570 132 468 100 515 b 83 584 92 581 89 584 b 74 569 78 584 76 580 b 70 480 72 551 70 504 b 85 436 70 448 70 444 b 205 418 104 425 157 418 "},"":{"x_min":65.328125,"x_max":1057.578125,"ha":1149,"o":"m 555 -19 b 1057 463 864 -19 1057 192 b 567 905 1057 734 869 905 b 65 442 204 905 65 644 b 555 -19 65 233 206 -19 m 604 44 b 242 478 378 44 242 235 b 532 842 242 770 398 842 b 879 420 725 842 879 681 b 604 44 879 84 688 44 m 748 1194 b 729 1210 741 1206 739 1210 b 702 1198 725 1210 715 1208 b 483 1023 680 1184 537 1076 b 470 1005 476 1016 470 1010 b 479 996 470 999 476 996 b 502 1008 481 996 491 1002 b 735 1090 552 1035 660 1080 b 781 1090 762 1092 774 1090 b 788 1110 788 1090 796 1094 b 748 1194 771 1148 759 1174 "},"¡":{"x_min":121.140625,"x_max":314.421875,"ha":444,"o":"m 220 813 b 200 769 205 813 202 798 b 142 173 196 734 145 198 b 121 -5 133 70 121 6 b 133 -23 121 -15 125 -23 b 185 -9 147 -23 167 -18 b 307 77 221 5 276 37 b 314 100 311 84 314 90 b 303 136 314 108 307 119 b 274 386 291 187 276 365 b 240 763 272 406 246 697 b 220 813 238 795 235 813 m 230 1065 b 152 981 183 1065 152 1027 b 228 908 152 937 185 908 b 304 987 283 908 304 954 b 230 1065 304 1022 283 1065 "},"[":{"x_min":137.46875,"x_max":435.5625,"ha":500,"o":"m 255 856 b 265 980 255 909 258 951 b 412 1009 307 1000 371 1005 b 435 1023 428 1011 435 1015 b 419 1036 435 1033 430 1036 l 159 1036 b 137 1018 140 1036 137 1033 l 137 -147 b 159 -169 137 -168 138 -169 l 417 -169 b 434 -156 428 -169 434 -166 b 411 -143 434 -147 427 -144 b 265 -113 370 -138 304 -133 b 255 15 258 -84 255 -43 l 255 856 "},"%":{"x_min":50.359375,"x_max":1131.078125,"ha":1206,"o":"m 877 0 b 1131 265 1058 0 1131 138 b 887 509 1131 375 1060 509 b 637 244 706 509 637 372 b 877 0 637 136 705 0 m 883 47 b 754 263 803 47 754 162 b 880 462 754 370 794 462 b 1014 245 962 462 1014 348 b 883 47 1014 129 966 47 m 421 -5 b 435 11 428 -4 431 -1 l 826 1027 b 841 1068 834 1048 841 1061 b 827 1073 841 1072 837 1073 b 307 1041 789 1073 539 1041 b 50 775 126 1041 50 902 b 291 530 50 666 118 530 b 543 795 468 530 543 669 b 455 987 543 884 502 959 l 455 990 b 755 1012 480 991 672 1005 b 322 1 741 983 457 309 b 336 -16 315 -15 318 -19 l 421 -5 m 296 577 b 167 794 216 577 167 693 b 294 993 167 901 208 993 b 427 776 375 993 427 879 b 296 577 427 659 379 577 "},"P":{"x_min":85.75,"x_max":830.28125,"ha":910,"o":"m 223 398 b 216 102 223 270 223 161 b 176 26 210 62 204 31 b 127 20 164 23 148 20 b 106 9 111 20 106 16 b 133 -4 106 0 115 -4 b 304 0 187 -4 273 0 b 515 -4 340 0 426 -4 b 541 9 530 -4 541 0 b 519 20 541 16 534 20 b 450 26 499 20 469 23 b 397 101 409 31 401 62 b 390 398 390 161 390 270 l 390 954 b 401 980 390 969 394 977 b 454 986 413 984 434 986 b 590 931 485 986 541 977 b 671 723 666 862 671 769 b 488 494 671 581 564 494 b 450 479 460 494 450 490 b 466 466 450 469 460 468 b 495 465 473 465 488 465 b 830 801 688 465 830 604 b 762 966 830 875 792 937 b 509 1045 740 987 679 1045 b 311 1041 446 1045 367 1041 b 115 1045 273 1041 187 1045 b 85 1033 95 1045 85 1043 b 108 1020 85 1023 93 1020 b 161 1016 127 1020 151 1019 b 220 937 206 1006 217 984 b 223 643 223 893 223 854 l 223 398 "},"":{"x_min":24.5,"x_max":996.328125,"ha":1056,"o":"m 144 373 b 253 61 144 202 191 115 b 526 -19 340 -16 464 -19 b 779 65 604 -19 695 -6 b 894 420 880 150 894 288 l 894 547 b 896 797 894 726 895 759 b 940 861 899 838 907 855 b 975 865 955 863 962 865 b 996 877 989 865 996 869 b 971 888 996 886 988 888 b 831 886 925 888 845 886 b 688 888 830 886 749 888 b 664 877 672 888 664 886 b 684 865 664 869 671 865 b 728 861 698 865 718 863 b 778 797 766 850 775 837 b 781 547 779 759 781 726 l 781 398 b 711 111 781 277 778 175 b 551 48 664 63 602 48 b 400 95 510 48 453 52 b 308 381 341 143 308 209 l 308 547 b 311 797 308 726 308 759 b 355 861 314 838 323 855 b 390 865 370 863 377 865 b 409 877 402 865 409 869 b 383 888 409 886 401 888 b 230 886 340 888 259 886 b 50 888 194 886 114 888 b 24 877 32 888 24 886 b 44 865 24 869 31 865 b 91 861 61 865 81 863 b 142 797 129 850 140 838 b 144 547 145 759 144 726 l 144 373 m 672 997 b 737 1066 711 997 737 1027 b 673 1127 737 1105 709 1127 b 611 1062 630 1127 611 1090 b 672 997 611 1033 628 997 m 385 997 b 450 1066 424 997 450 1027 b 386 1126 450 1104 421 1126 b 323 1062 343 1126 323 1088 b 385 997 323 1033 341 997 "},"":{"x_min":74.859375,"x_max":707.78125,"ha":800,"o":"m 196 338 b 190 87 196 230 196 137 b 155 25 186 52 179 30 b 112 20 144 22 130 20 b 93 8 98 20 93 13 b 117 -4 93 0 102 -4 b 200 -1 141 -4 171 -2 b 268 0 228 -1 254 0 b 406 -2 303 0 348 -1 b 627 -6 465 -5 537 -6 b 691 23 672 -6 683 -6 b 707 154 698 47 707 127 b 696 181 707 166 706 181 b 683 163 688 181 686 176 b 631 76 675 115 661 90 b 518 61 600 62 549 61 b 356 159 396 61 359 79 b 356 334 355 194 356 294 l 356 429 b 363 441 356 436 357 441 b 551 436 393 441 529 438 b 617 390 596 431 611 413 b 622 347 620 375 620 359 b 632 337 622 341 624 337 b 645 363 643 337 645 354 b 650 443 645 372 647 419 b 660 529 657 502 660 522 b 650 541 660 536 656 541 b 631 526 645 541 641 534 b 574 508 620 513 602 511 b 364 505 547 505 392 505 b 356 518 357 505 356 511 l 356 809 b 364 820 356 816 359 820 b 552 815 389 820 532 818 b 631 772 612 809 622 793 b 639 729 638 758 639 737 b 649 713 639 719 641 713 b 662 733 658 713 661 727 b 669 811 665 747 668 798 b 679 887 672 865 679 879 b 671 898 679 893 677 898 b 651 893 665 898 658 894 b 601 886 642 891 623 887 b 274 886 578 884 313 886 b 102 888 240 886 164 888 b 74 877 84 888 74 886 b 95 865 74 869 83 865 b 142 861 112 865 133 863 b 194 797 181 850 191 837 b 196 547 196 759 196 726 l 196 338 m 400 1206 b 371 1190 392 1206 385 1202 b 191 1018 352 1173 206 1034 b 179 997 185 1009 179 1002 b 191 983 179 988 185 983 b 219 1000 198 983 205 987 b 363 1102 259 1036 325 1080 b 383 1109 371 1106 378 1109 b 401 1101 389 1109 394 1106 b 521 998 415 1091 496 1025 b 541 983 532 987 536 983 b 559 993 548 983 553 987 l 598 1033 b 605 1047 602 1037 605 1043 b 586 1066 605 1051 601 1055 b 424 1191 566 1081 435 1181 b 400 1206 409 1202 404 1206 "},"∏":{"x_min":8.171875,"x_max":1173.28125,"ha":1206,"o":"m 1173 -333 b 1151 -322 1173 -326 1166 -322 b 1082 -316 1131 -322 1101 -319 b 1029 -241 1041 -311 1033 -280 b 1022 398 1022 -181 1022 270 l 1022 643 b 1024 937 1022 854 1022 893 b 1075 1016 1027 986 1038 1009 b 1114 1020 1091 1019 1103 1020 b 1139 1033 1131 1020 1139 1023 b 1110 1045 1139 1043 1129 1045 b 1016 1044 1084 1045 1049 1045 b 939 1041 985 1044 955 1041 l 232 1041 b 148 1044 215 1041 183 1043 b 36 1045 112 1044 73 1045 b 8 1033 17 1045 8 1043 b 31 1020 8 1023 16 1020 b 84 1016 50 1020 73 1019 b 142 937 129 1006 140 984 b 145 643 145 893 145 854 l 145 398 b 138 -240 145 270 145 -181 b 99 -316 133 -280 126 -311 b 50 -322 87 -319 70 -322 b 28 -333 34 -322 28 -326 b 55 -347 28 -343 38 -347 b 206 -343 110 -347 175 -343 b 419 -347 245 -343 330 -347 b 446 -333 435 -347 446 -343 b 424 -322 446 -326 439 -322 b 355 -316 404 -322 374 -319 b 302 -241 314 -311 306 -280 b 295 398 295 -181 295 270 l 295 959 b 303 975 295 966 299 975 l 864 975 b 872 966 868 975 872 972 l 872 398 b 865 -240 872 270 872 -181 b 826 -316 860 -280 853 -311 b 777 -322 813 -319 797 -322 b 755 -333 760 -322 755 -326 b 784 -347 755 -343 764 -347 b 954 -343 837 -347 922 -343 b 1146 -347 992 -343 1057 -347 b 1173 -333 1162 -347 1173 -343 "},"_":{"x_min":0,"x_max":680.5625,"ha":694,"o":"m 0 -104 l 0 -173 l 680 -173 l 680 -104 l 0 -104 "},"Ŕ":{"x_min":85.375,"x_max":1159.296875,"ha":1049,"o":"m 222 398 b 216 102 222 271 222 161 b 176 26 210 62 203 32 b 127 21 164 23 147 21 b 105 9 111 21 105 16 b 133 -4 105 0 115 -4 b 299 0 187 -4 273 0 b 499 -4 319 0 420 -4 b 526 9 516 -4 526 0 b 510 21 526 16 520 21 b 443 26 493 21 463 23 b 390 102 402 32 394 62 b 383 400 383 161 383 271 l 383 419 b 394 430 383 427 387 430 l 512 427 b 537 418 522 427 530 426 b 672 226 554 397 617 302 b 858 22 748 119 799 54 b 1004 -4 893 2 927 -4 l 1133 -4 b 1159 9 1149 -4 1159 -1 b 1142 21 1159 16 1153 21 b 1104 25 1132 21 1119 22 b 952 119 1084 29 1028 39 b 657 484 872 205 778 329 b 836 796 794 598 836 693 b 744 986 836 889 782 959 b 493 1046 670 1037 579 1046 b 301 1041 451 1046 348 1041 b 115 1046 273 1041 187 1046 b 85 1033 94 1046 85 1043 b 108 1021 85 1023 93 1021 b 161 1016 127 1021 150 1019 b 220 937 206 1007 217 984 b 222 643 222 893 222 854 l 222 398 m 383 955 b 395 975 383 966 386 972 b 467 980 409 979 433 980 b 676 726 548 980 676 923 b 595 518 676 612 636 548 b 499 494 571 500 553 494 b 395 508 465 494 424 498 b 383 533 386 512 383 518 l 383 955 m 672 1350 b 652 1366 665 1362 662 1366 b 625 1354 648 1366 639 1364 b 406 1179 603 1340 461 1232 b 394 1161 399 1172 394 1166 b 402 1152 394 1155 399 1152 b 425 1164 405 1152 414 1158 b 658 1246 476 1191 583 1236 b 704 1246 685 1248 697 1246 b 711 1266 711 1246 719 1250 b 672 1350 695 1304 682 1330 "},"ñ":{"x_min":55.8125,"x_max":1073.921875,"ha":1168,"o":"m 257 638 l 261 638 b 541 347 284 618 411 475 b 891 6 666 223 816 77 b 940 -18 903 -5 920 -18 b 959 19 950 -18 959 -6 l 973 763 b 1016 861 974 830 984 851 b 1053 865 1031 865 1041 865 b 1073 877 1067 865 1073 870 b 1046 888 1073 887 1063 888 b 929 886 988 888 943 886 b 777 888 903 886 839 888 b 747 877 759 888 747 887 b 766 865 747 870 751 865 b 828 858 782 865 811 865 b 869 754 857 847 868 826 l 882 229 l 876 229 b 617 494 858 245 699 412 b 249 870 443 668 264 855 b 197 909 228 891 212 909 b 176 869 185 909 176 893 l 166 169 b 129 26 164 66 160 34 b 74 20 112 22 91 20 b 55 8 63 20 55 15 b 83 -4 55 -2 66 -4 b 212 0 144 -4 201 0 b 367 -4 234 0 289 -4 b 394 8 383 -4 394 -1 b 374 20 394 15 387 20 b 311 29 355 20 332 22 b 270 156 288 37 273 65 l 257 638 m 668 997 b 801 1101 732 997 789 1077 b 809 1125 805 1109 809 1118 b 798 1136 809 1131 804 1136 b 777 1118 792 1136 785 1129 b 694 1076 771 1111 743 1076 b 596 1106 661 1076 630 1087 b 487 1145 564 1125 534 1145 b 345 1038 421 1145 366 1072 b 334 1012 341 1033 334 1019 b 344 1002 334 1006 338 1002 b 366 1016 349 1002 353 1004 b 458 1066 377 1029 405 1066 b 545 1036 495 1066 521 1050 b 668 997 574 1020 611 997 "},"‚":{"x_min":58.53125,"x_max":238.1875,"ha":303,"o":"m 118 68 b 65 -148 118 -18 89 -100 b 58 -166 59 -159 58 -163 b 66 -175 58 -172 62 -175 b 88 -163 74 -175 80 -172 b 238 133 149 -100 238 48 b 198 173 238 154 232 163 b 85 200 172 181 112 200 b 70 188 78 200 70 193 b 85 163 70 181 72 177 b 118 68 98 151 118 113 "},"":{"x_min":74.859375,"x_max":1064.390625,"ha":1154,"o":"m 196 338 b 190 87 196 230 196 137 b 155 25 186 52 179 30 b 112 20 144 22 130 20 b 93 8 98 20 93 13 b 117 -4 93 0 102 -4 b 200 -1 141 -4 171 -2 b 268 0 228 -1 254 0 b 389 -6 298 0 341 -2 b 532 -13 436 -9 488 -13 b 933 125 752 -13 879 69 b 1064 454 1001 193 1064 305 b 951 754 1064 594 1011 693 b 469 888 820 888 619 888 b 274 886 397 888 311 886 b 102 888 240 886 164 888 b 74 877 84 888 74 886 b 95 865 74 869 83 865 b 142 861 112 865 133 863 b 194 797 181 850 191 837 b 196 547 196 759 196 726 l 196 338 m 356 565 b 357 795 356 658 356 755 b 372 819 357 809 362 815 b 446 827 382 825 421 827 b 781 715 540 827 671 815 b 892 420 834 668 892 570 b 790 127 892 298 868 193 b 529 47 718 66 638 47 b 372 94 435 47 387 72 b 359 177 363 106 360 148 b 356 416 357 201 356 291 l 356 565 "},"Æ":{"x_min":-126.578125,"x_max":1174.640625,"ha":1288,"o":"m 634 398 b 627 102 634 270 634 161 b 588 26 622 62 615 31 b 540 20 575 23 559 20 b 522 8 525 20 522 16 b 548 -4 522 -1 529 -4 b 634 -1 574 -4 604 -2 b 706 0 662 -1 690 0 b 847 -4 747 0 789 -1 b 1083 -8 906 -5 981 -8 b 1156 27 1135 -8 1147 -8 b 1174 181 1163 55 1174 150 b 1163 206 1174 195 1174 206 b 1148 186 1154 206 1151 201 b 1087 83 1139 129 1122 100 b 959 66 1052 66 994 66 b 796 183 820 66 798 87 b 797 398 796 190 797 351 l 797 463 b 805 477 797 472 798 477 b 999 472 838 477 973 475 b 1075 418 1049 466 1068 445 b 1080 368 1079 400 1079 381 b 1092 355 1080 361 1083 355 b 1105 381 1105 355 1105 370 b 1110 475 1105 391 1109 447 b 1121 576 1116 545 1121 568 b 1112 588 1121 586 1117 588 b 1090 570 1105 588 1099 581 b 1024 550 1078 556 1057 552 b 807 547 993 547 837 547 b 797 562 798 547 797 552 l 797 958 b 807 972 797 968 800 972 b 1000 966 834 972 977 969 b 1091 916 1068 958 1082 941 b 1099 866 1098 900 1099 876 b 1112 847 1099 854 1102 847 b 1125 862 1121 847 1124 855 b 1132 954 1128 879 1131 940 b 1143 1044 1136 1018 1143 1034 b 1135 1056 1143 1051 1141 1056 b 1113 1051 1128 1056 1120 1052 b 1054 1043 1102 1048 1080 1045 b 714 1041 1029 1041 758 1041 b 665 1044 692 1041 677 1043 b 642 1045 654 1044 647 1045 b 624 1026 632 1045 627 1037 b 594 965 622 1016 615 998 b 95 177 575 934 138 234 b -49 33 66 141 29 68 b -107 20 -69 23 -95 20 b -126 9 -121 20 -126 18 b -107 -4 -126 0 -122 -4 b 65 0 -36 -4 40 0 b 259 -4 92 0 172 -4 b 285 9 274 -4 285 0 b 265 20 285 18 279 20 b 196 33 240 20 213 25 b 172 72 183 38 172 52 b 232 208 172 91 186 129 b 379 466 255 247 364 444 b 402 476 385 475 392 476 l 622 476 b 634 465 630 476 634 473 l 634 398 m 634 552 b 622 541 634 545 631 541 l 439 541 b 432 555 430 541 427 544 b 627 888 445 581 597 836 l 634 888 l 634 552 "},"ğ":{"x_min":65.328125,"x_max":1022.203125,"ha":1088,"o":"m 926 205 b 928 347 926 263 926 311 b 974 411 929 388 941 405 b 1007 415 988 413 997 415 b 1022 427 1015 415 1022 420 b 997 438 1022 437 1014 438 b 857 436 958 438 895 436 b 673 438 822 436 736 438 b 647 427 657 438 647 437 b 666 415 647 420 656 415 b 713 411 683 415 703 413 b 764 347 751 400 763 387 b 766 208 766 311 766 266 l 766 100 b 743 58 766 79 760 66 b 658 45 714 45 690 45 b 242 484 402 45 242 230 b 352 772 242 629 285 716 b 583 841 435 840 518 841 b 843 751 718 841 808 788 b 884 654 875 718 882 680 b 896 638 886 644 888 638 b 913 665 906 638 913 647 b 921 859 913 813 921 845 b 905 873 921 868 918 872 b 809 886 876 875 834 881 b 597 905 785 891 680 905 b 274 829 496 905 389 897 b 65 443 164 763 65 631 b 619 -19 65 116 325 -19 b 911 33 713 -19 831 -6 b 926 75 926 41 926 43 l 926 205 m 364 1102 b 415 1047 364 1091 394 1063 b 549 997 454 1013 511 997 b 696 1044 617 997 651 1013 b 782 1147 728 1065 782 1126 b 771 1159 782 1154 778 1159 b 711 1108 762 1159 754 1141 b 592 1069 698 1098 651 1069 b 466 1130 556 1069 514 1073 b 438 1162 454 1144 446 1162 b 420 1152 434 1162 430 1161 l 375 1116 b 364 1102 371 1113 364 1111 "},"Ū":{"x_min":27.21875,"x_max":1117.46875,"ha":1183,"o":"m 164 440 b 285 72 164 238 216 136 b 588 -23 385 -19 515 -23 b 871 76 676 -23 774 -8 b 1000 494 985 176 1000 340 l 1000 643 b 1003 937 1000 854 1000 893 b 1053 1016 1005 986 1016 1009 b 1092 1020 1069 1019 1078 1020 b 1117 1033 1109 1020 1117 1023 b 1088 1045 1117 1043 1107 1045 b 933 1041 1035 1045 950 1041 b 777 1045 932 1041 846 1045 b 748 1033 758 1045 748 1043 b 771 1020 748 1023 756 1020 b 820 1016 786 1020 809 1019 b 879 937 865 1006 876 984 b 882 643 882 893 882 854 l 882 469 b 803 125 882 326 877 201 b 615 50 748 69 675 50 b 445 106 568 50 506 55 b 338 448 378 162 338 247 l 338 643 b 341 937 338 854 338 893 b 392 1016 344 986 355 1009 b 431 1020 408 1019 416 1020 b 453 1033 445 1020 453 1023 b 423 1045 453 1043 443 1045 b 255 1041 374 1045 288 1041 b 57 1045 215 1041 129 1045 b 27 1033 36 1045 27 1043 b 50 1020 27 1023 35 1020 b 103 1016 69 1020 92 1019 b 161 937 148 1006 159 984 b 164 643 164 893 164 854 l 164 440 m 762 1190 b 777 1198 771 1190 775 1193 l 788 1248 b 777 1262 790 1258 786 1262 l 450 1262 b 435 1250 441 1262 438 1259 l 424 1200 b 435 1190 423 1193 426 1190 l 762 1190 "},"ª":{"x_min":-6.875,"x_max":579.890625,"ha":590,"o":"m 345 713 b 355 705 349 713 352 711 l 400 598 b 396 586 402 593 400 586 b 386 575 389 586 386 580 b 407 568 386 569 394 568 b 548 565 475 565 524 565 b 579 575 573 565 579 568 b 571 584 579 581 577 584 b 543 587 563 584 552 586 b 488 651 529 588 513 600 b 313 1054 441 751 329 1016 b 292 1075 307 1066 302 1075 b 269 1048 285 1075 279 1069 l 80 637 b 23 586 65 605 53 590 b 2 584 16 586 8 584 b -6 575 -2 584 -6 580 b 5 565 -6 569 -1 565 b 99 568 40 565 78 568 b 175 565 125 568 153 565 b 187 575 182 565 187 569 b 176 584 187 581 183 584 l 167 584 b 144 602 149 584 144 595 b 149 634 144 608 145 622 l 175 705 b 185 713 178 711 180 713 l 345 713 m 202 761 b 198 765 198 761 197 762 l 255 906 b 266 920 258 913 261 920 b 277 902 270 920 273 913 l 332 765 b 329 761 332 762 332 761 l 202 761 "},"":{"x_min":2.71875,"x_max":677.828125,"ha":760,"o":"m 677 216 b 666 238 677 229 676 238 b 651 220 658 238 656 234 b 503 119 637 165 593 129 b 281 112 455 113 303 112 l 216 112 b 215 120 209 112 208 116 b 638 665 382 243 638 436 b 311 916 638 802 539 916 b 77 872 197 916 127 895 b 62 848 63 863 62 859 b 69 705 62 813 68 716 b 81 683 70 691 74 683 b 98 705 95 683 98 693 b 152 818 98 736 121 791 b 289 856 190 851 234 856 b 464 637 353 856 464 823 b 28 47 464 388 212 183 b 2 16 14 36 2 26 b 20 0 2 6 10 0 l 528 0 b 639 36 609 0 628 4 b 677 216 653 76 677 197 "},"Œ":{"x_min":74.859375,"x_max":1532.609375,"ha":1653,"o":"m 1154 509 b 1162 523 1154 518 1155 523 b 1355 518 1195 523 1329 520 b 1431 463 1406 512 1425 491 b 1437 413 1435 445 1435 427 b 1449 401 1437 406 1440 401 b 1461 427 1461 401 1461 416 b 1467 520 1461 437 1465 493 b 1478 622 1472 591 1478 613 b 1468 634 1478 631 1474 634 b 1446 616 1461 634 1456 627 b 1381 595 1434 602 1414 598 b 1163 593 1350 593 1193 593 b 1154 608 1155 593 1154 598 l 1154 958 b 1163 972 1154 968 1156 972 b 1357 966 1190 972 1333 969 b 1448 916 1425 958 1438 941 b 1456 866 1455 900 1456 876 b 1468 847 1456 854 1459 847 b 1482 862 1478 847 1480 855 b 1489 954 1484 879 1487 940 b 1499 1044 1493 1018 1499 1034 b 1491 1056 1499 1051 1498 1056 b 1470 1051 1484 1056 1476 1052 b 1411 1043 1459 1048 1437 1045 b 1071 1041 1385 1041 1114 1041 b 1024 1044 1049 1041 1034 1043 b 1005 1045 1014 1044 1009 1045 b 992 1033 997 1045 992 1040 b 994 1005 992 1023 994 1013 b 996 906 996 988 996 965 l 992 906 b 612 1065 922 988 819 1065 b 74 522 234 1065 74 780 b 604 -23 74 273 227 -23 b 996 123 792 -23 907 36 b 994 47 996 88 996 62 b 990 5 993 27 990 16 b 1004 -4 990 0 996 -4 b 1023 -1 1011 -4 1016 -2 b 1050 0 1031 -1 1039 0 b 1204 -4 1098 0 1144 -1 b 1441 -8 1264 -5 1339 -8 b 1514 27 1493 -8 1505 -8 b 1532 181 1521 55 1532 150 b 1521 206 1532 195 1532 206 b 1506 186 1512 206 1509 201 b 1445 83 1497 129 1480 100 b 1317 66 1410 66 1352 66 b 1154 184 1178 66 1156 87 b 1154 398 1152 225 1154 351 l 1154 509 m 259 563 b 589 997 259 866 416 997 b 990 472 847 997 990 761 b 665 44 990 179 857 44 b 259 563 450 44 259 231 "},"Ą":{"x_min":-86.671875,"x_max":1033.515625,"ha":972,"o":"m 305 427 b 299 437 299 427 298 432 l 425 779 b 433 791 426 784 429 791 b 440 779 437 791 438 784 l 562 436 b 555 427 563 432 562 427 l 305 427 m 754 -235 b 675 -167 704 -235 675 -213 b 761 -12 675 -112 701 -41 b 970 -4 806 9 927 -4 b 1033 9 1021 -4 1033 -1 b 1015 21 1033 19 1026 21 b 958 26 999 21 979 22 b 838 177 930 33 890 52 b 501 1032 751 389 534 955 b 467 1076 487 1064 479 1076 b 429 1021 453 1076 445 1061 l 87 148 b -28 23 60 79 34 32 b -70 21 -39 22 -58 21 b -86 9 -81 21 -86 18 b -60 -4 -86 -1 -78 -4 b 99 0 9 -4 84 0 b 244 -4 142 0 200 -4 b 267 9 259 -4 267 -1 b 246 21 267 18 263 21 l 226 21 b 171 64 184 21 171 39 b 192 148 171 80 178 114 l 265 347 b 278 358 268 355 271 358 l 581 358 b 595 348 588 358 592 355 l 704 54 b 713 23 708 41 713 33 b 697 -6 713 11 709 0 b 553 -209 663 -26 553 -126 b 676 -315 553 -284 593 -315 b 845 -223 769 -315 832 -238 b 856 -201 851 -216 856 -206 b 844 -190 856 -194 851 -190 b 754 -235 830 -190 806 -235 "},"T":{"x_min":19.0625,"x_max":939.171875,"ha":986,"o":"m 404 398 b 397 102 404 270 404 161 b 357 26 393 62 385 31 b 308 20 345 23 329 20 b 287 9 292 20 287 16 b 314 -4 287 0 296 -4 b 485 0 368 -4 454 0 b 699 -4 524 0 609 -4 b 725 9 714 -4 725 0 b 703 20 725 16 718 20 b 634 26 683 20 653 23 b 581 101 593 31 585 62 b 574 398 574 161 574 270 l 574 968 l 745 963 b 906 886 867 961 903 922 l 907 870 b 922 843 909 850 911 843 b 935 865 931 843 933 851 b 939 1026 935 901 939 997 b 928 1055 939 1047 937 1055 b 891 1048 922 1055 911 1052 b 797 1041 871 1045 841 1041 l 258 1041 b 122 1048 213 1041 161 1044 b 63 1065 88 1051 74 1065 b 47 1038 55 1065 51 1056 b 19 879 44 1027 19 901 b 31 856 19 863 21 856 b 46 873 39 856 43 862 b 69 922 49 884 55 901 b 201 962 89 952 122 959 l 404 968 l 404 398 "},"š":{"x_min":107.53125,"x_max":645.171875,"ha":750,"o":"m 325 -19 b 525 29 389 -19 468 -12 b 645 250 612 91 645 162 b 438 536 645 356 596 447 l 389 563 b 262 719 281 625 262 666 b 426 845 262 800 340 845 b 559 790 503 845 541 812 b 590 712 585 759 590 723 b 602 691 590 698 594 691 b 617 729 612 691 617 704 b 622 870 617 822 622 855 b 605 886 622 879 616 883 b 435 905 574 894 513 905 b 133 668 269 905 133 812 b 321 400 133 563 179 484 l 390 358 b 509 191 496 294 509 243 b 343 41 509 108 446 41 b 152 158 268 41 178 70 b 141 219 145 179 141 204 b 129 238 141 227 140 238 b 114 208 119 238 114 226 b 107 51 112 188 107 115 b 130 11 107 25 111 19 b 325 -19 182 -12 255 -19 m 201 1156 b 194 1143 197 1152 194 1147 b 213 1123 194 1138 198 1134 b 375 998 234 1108 364 1008 b 400 983 390 987 396 983 b 428 1000 408 983 415 987 b 608 1172 447 1016 593 1155 b 620 1193 616 1180 620 1187 b 608 1206 620 1201 615 1206 b 578 1188 601 1206 594 1202 b 436 1086 540 1156 475 1109 b 416 1080 430 1081 421 1080 b 398 1088 411 1080 405 1083 b 279 1191 385 1098 304 1165 b 255 1206 266 1204 261 1206 b 240 1197 251 1206 246 1202 l 201 1156 "},"Þ":{"x_min":85.75,"x_max":830.28125,"ha":910,"o":"m 223 398 b 216 102 223 270 223 161 b 176 26 210 62 204 31 b 127 20 164 23 148 20 b 106 9 111 20 106 16 b 133 -4 106 0 115 -4 b 304 0 187 -4 273 0 b 507 -4 340 0 426 -4 b 534 9 524 -4 534 0 b 517 20 534 16 528 20 b 450 26 499 20 469 23 b 397 101 409 31 401 62 b 390 398 390 161 390 270 l 390 729 b 401 755 390 743 393 752 b 460 763 413 761 436 763 b 590 715 492 763 544 762 b 666 501 664 640 666 547 b 488 277 666 370 567 277 b 450 262 462 277 450 275 b 466 250 450 252 460 250 b 495 248 473 248 488 248 b 830 579 688 248 830 381 b 763 743 830 651 794 715 b 510 822 740 763 680 822 b 390 816 457 822 431 819 b 393 941 390 838 392 888 b 454 1015 394 981 411 1006 b 506 1020 473 1018 495 1020 b 526 1033 517 1020 526 1025 b 500 1045 526 1043 515 1045 b 310 1041 430 1045 344 1041 b 115 1045 273 1041 187 1045 b 85 1033 95 1045 85 1043 b 108 1020 85 1023 93 1020 b 161 1016 127 1020 151 1019 b 220 937 206 1006 217 984 b 223 643 223 893 223 854 l 223 398 "},"j":{"x_min":23.140625,"x_max":460.0625,"ha":518,"o":"m 196 208 b 106 -230 196 -23 197 -140 b 49 -276 83 -254 65 -268 b 23 -297 28 -286 23 -291 b 32 -308 23 -302 27 -308 b 57 -302 38 -308 49 -306 b 117 -272 83 -290 102 -280 b 332 -47 232 -202 306 -119 b 360 161 356 19 360 94 b 356 327 360 220 356 277 l 356 547 b 359 797 356 726 356 759 b 404 861 362 838 371 855 b 438 865 417 863 426 865 b 460 877 453 865 460 869 b 435 888 460 886 451 888 b 283 886 387 888 311 886 b 102 888 251 886 164 888 b 74 877 84 888 74 886 b 95 865 74 869 83 865 b 142 861 112 865 133 863 b 194 797 181 850 191 837 b 196 547 196 759 196 726 l 196 208 "},"1":{"x_min":141.5625,"x_max":675.109375,"ha":833,"o":"m 351 418 b 344 105 352 284 349 166 b 289 31 340 61 333 41 b 181 22 265 26 196 22 b 170 8 175 22 170 18 b 193 -4 170 -1 178 -4 b 426 0 280 -4 394 0 b 653 -4 462 0 549 -4 b 675 8 668 -4 675 -1 b 662 22 675 18 668 22 b 573 30 651 22 593 26 b 518 105 529 40 522 61 b 513 418 513 166 513 284 l 513 675 b 521 1036 513 887 521 1025 b 504 1065 521 1050 517 1065 b 469 1047 494 1065 481 1055 b 155 833 421 1011 160 836 b 141 813 148 829 141 822 b 152 798 141 805 148 798 b 171 804 157 798 164 801 b 329 870 201 816 303 870 b 349 820 349 870 349 854 b 349 638 349 773 349 713 l 351 418 "},"›":{"x_min":139.15625,"x_max":469.90625,"ha":531,"o":"m 144 616 b 139 606 141 613 139 609 b 158 586 139 604 143 600 b 348 387 220 526 325 419 b 147 136 320 343 169 161 b 139 118 143 131 139 125 b 155 106 139 112 147 106 b 181 122 162 106 169 112 b 444 363 197 134 415 338 b 469 394 463 380 469 390 b 445 427 469 402 463 409 b 253 640 418 455 286 602 b 209 686 223 676 214 686 b 196 676 205 686 201 681 l 144 616 "},"":{"x_min":63.96875,"x_max":490,"ha":565,"o":"m 196 338 b 190 81 196 225 196 130 b 155 25 186 47 179 30 b 112 20 144 22 130 20 b 93 8 98 20 93 13 b 117 -4 93 0 102 -4 b 273 0 164 -4 246 0 b 466 -4 306 0 387 -4 b 490 8 480 -4 490 0 b 470 20 490 13 484 20 b 409 25 453 20 426 22 b 362 80 374 30 366 48 b 356 338 356 130 356 225 l 356 547 b 359 797 356 726 356 759 b 404 861 362 838 371 855 b 439 865 417 863 427 865 b 458 879 451 865 458 868 b 434 888 458 886 449 888 b 280 886 387 888 310 886 b 119 888 246 886 164 888 b 91 879 100 888 91 886 b 110 865 91 868 98 865 b 153 859 125 865 140 863 b 194 797 179 851 191 837 b 196 547 196 759 196 726 l 196 338 m 284 1206 b 255 1190 276 1206 269 1202 b 76 1018 236 1173 91 1034 b 63 997 69 1009 63 1002 b 76 983 63 988 69 983 b 103 1000 83 983 89 987 b 247 1102 144 1036 209 1080 b 268 1109 255 1106 262 1109 b 285 1101 273 1109 279 1106 b 405 998 299 1091 381 1025 b 426 983 416 987 420 983 b 443 993 432 983 438 987 l 483 1033 b 490 1047 487 1037 490 1043 b 470 1066 490 1051 485 1055 b 308 1191 450 1081 319 1181 b 284 1206 294 1202 288 1206 "},"ℓ":{"x_min":24.015625,"x_max":605.1875,"ha":625,"o":"m 592 147 b 562 177 624 202 589 216 b 402 91 526 127 465 91 b 274 306 304 91 274 183 l 274 520 b 513 968 392 630 513 818 b 375 1143 513 1052 483 1143 b 206 1054 310 1143 257 1116 b 125 600 152 987 125 813 l 125 486 l 35 416 b 53 377 6 394 39 366 l 125 426 l 125 273 b 332 -16 125 127 161 -16 b 592 147 442 -16 533 48 m 406 983 b 274 583 406 883 353 701 l 274 697 b 348 1088 274 891 292 1088 b 406 983 394 1088 406 1052 "},"<":{"x_min":53.953125,"x_max":692.3125,"ha":763,"o":"m 692 26 l 692 119 l 157 352 l 692 585 l 692 679 l 53 401 l 53 303 l 692 26 "},"t":{"x_min":16.328125,"x_max":837.078125,"ha":879,"o":"m 355 338 b 349 87 355 230 355 137 b 314 25 345 52 338 30 b 272 20 304 22 289 20 b 253 8 257 20 253 13 b 276 -4 253 0 261 -4 b 432 0 323 -4 405 0 b 626 -4 466 0 547 -4 b 649 8 639 -4 649 0 b 630 20 649 13 643 20 b 568 25 612 20 585 22 b 522 86 533 30 526 52 b 515 338 517 137 515 230 l 515 816 l 666 813 b 808 745 774 812 805 776 l 809 733 b 823 709 811 715 813 709 b 834 729 830 709 833 716 b 837 872 834 759 837 847 b 827 897 837 890 835 897 b 794 891 823 897 813 894 b 713 886 777 888 751 886 l 227 886 b 107 891 187 886 142 887 b 55 905 77 895 65 905 b 42 883 49 905 44 898 b 16 740 39 873 16 759 b 27 720 16 727 19 720 b 40 736 35 720 38 726 b 61 776 43 744 49 759 b 176 812 78 802 107 811 l 355 816 l 355 338 "},"¬":{"x_min":54.4375,"x_max":692.8125,"ha":763,"o":"m 692 177 l 692 525 l 54 525 l 54 440 l 605 440 l 605 177 l 692 177 "},"ù":{"x_min":24.5,"x_max":996.328125,"ha":1056,"o":"m 144 373 b 253 61 144 202 191 115 b 526 -19 340 -16 464 -19 b 779 65 604 -19 695 -6 b 894 420 880 150 894 288 l 894 547 b 896 797 894 726 895 759 b 940 861 899 838 907 855 b 975 865 955 863 962 865 b 996 877 989 865 996 869 b 971 888 996 886 988 888 b 831 886 925 888 845 886 b 688 888 830 886 749 888 b 664 877 672 888 664 886 b 684 865 664 869 671 865 b 728 861 698 865 718 863 b 778 797 766 850 775 837 b 781 547 779 759 781 726 l 781 398 b 711 111 781 277 778 175 b 551 48 664 63 602 48 b 400 95 510 48 453 52 b 308 381 341 143 308 209 l 308 547 b 311 797 308 726 308 759 b 355 861 314 838 323 855 b 390 865 370 863 377 865 b 409 877 402 865 409 869 b 383 888 409 886 401 888 b 230 886 340 888 259 886 b 50 888 194 886 114 888 b 24 877 32 888 24 886 b 44 865 24 869 31 865 b 91 861 61 865 81 863 b 142 797 129 850 140 838 b 144 547 145 759 144 726 l 144 373 m 617 1006 b 589 1031 617 1016 602 1020 b 438 1173 526 1077 450 1156 b 416 1204 424 1193 423 1204 b 390 1194 409 1204 405 1201 b 299 1159 372 1186 325 1168 b 281 1147 288 1156 281 1154 b 326 1112 281 1138 300 1123 b 602 997 349 1101 582 997 b 617 1006 608 997 617 1000 "},"ï":{"x_min":70.78125,"x_max":490,"ha":565,"o":"m 196 338 b 190 81 196 225 196 130 b 155 25 186 47 179 30 b 112 20 144 22 130 20 b 93 8 98 20 93 13 b 117 -4 93 0 102 -4 b 273 0 164 -4 246 0 b 466 -4 306 0 387 -4 b 490 8 480 -4 490 0 b 470 20 490 13 484 20 b 409 25 453 20 426 22 b 362 80 374 30 366 48 b 356 338 356 130 356 225 l 356 547 b 359 797 356 726 356 759 b 404 861 362 838 371 855 b 439 865 417 863 427 865 b 458 879 451 865 458 868 b 434 888 458 886 449 888 b 280 886 387 888 310 886 b 119 888 246 886 164 888 b 91 879 100 888 91 886 b 110 865 91 868 98 865 b 153 859 125 865 140 863 b 194 797 179 851 191 837 b 196 547 196 759 196 726 l 196 338 m 419 997 b 484 1066 458 997 484 1027 b 420 1127 484 1105 455 1127 b 357 1062 377 1127 357 1090 b 419 997 357 1033 375 997 m 132 997 b 197 1066 171 997 197 1027 b 133 1126 197 1104 168 1126 b 70 1062 89 1126 70 1088 b 132 997 70 1033 88 997 "},"":{"x_min":31.3125,"x_max":813.953125,"ha":888,"o":"m 813 325 b 801 338 813 334 808 338 b 741 327 793 338 777 327 l 642 327 l 642 716 b 643 895 642 794 643 877 b 628 916 643 908 641 916 b 594 894 616 916 604 905 b 47 283 583 883 57 293 b 31 252 42 277 31 266 b 63 234 31 240 49 234 l 504 234 b 502 94 504 197 506 145 b 441 25 499 58 490 30 b 379 22 420 22 392 22 b 370 9 372 22 370 18 b 390 -4 370 1 377 -4 b 567 0 461 -4 530 0 b 749 -4 594 0 677 -4 b 770 9 763 -4 770 1 b 759 22 770 18 766 22 b 700 26 747 22 718 22 b 646 94 658 34 650 58 b 642 234 641 145 642 197 l 756 234 b 790 251 778 234 784 240 b 813 325 800 266 813 313 m 504 327 l 167 327 b 502 697 210 380 472 662 l 504 697 l 504 327 "},"ī":{"x_min":91.1875,"x_max":490,"ha":565,"o":"m 196 338 b 190 81 196 225 196 130 b 155 25 186 47 179 30 b 112 20 144 22 130 20 b 93 8 98 20 93 13 b 117 -4 93 0 102 -4 b 273 0 164 -4 246 0 b 466 -4 306 0 387 -4 b 490 8 480 -4 490 0 b 470 20 490 13 484 20 b 409 25 453 20 426 22 b 362 80 374 30 366 48 b 356 338 356 130 356 225 l 356 547 b 359 797 356 726 356 759 b 404 861 362 838 371 855 b 439 865 417 863 427 865 b 458 879 451 865 458 868 b 434 888 458 886 449 888 b 280 886 387 888 310 886 b 119 888 246 886 164 888 b 91 879 100 888 91 886 b 110 865 91 868 98 865 b 153 859 125 865 140 863 b 194 797 179 851 191 837 b 196 547 196 759 196 726 l 196 338 m 432 1034 b 447 1043 442 1034 446 1037 l 458 1093 b 447 1106 461 1102 457 1106 l 121 1106 b 106 1094 111 1106 108 1104 l 95 1044 b 106 1034 93 1037 96 1034 l 432 1034 "},"Ò":{"x_min":74.859375,"x_max":1186.890625,"ha":1288,"o":"m 623 -23 b 1186 545 969 -23 1186 227 b 637 1065 1186 863 975 1065 b 74 520 228 1065 74 758 b 623 -23 74 275 232 -23 m 680 45 b 262 563 419 45 262 275 b 597 998 262 909 441 998 b 996 494 820 998 996 805 b 680 45 996 93 775 45 m 730 1162 b 702 1187 730 1172 715 1176 b 551 1329 639 1233 563 1312 b 529 1359 537 1348 536 1359 b 503 1350 522 1359 518 1356 b 412 1315 485 1341 438 1323 b 394 1302 401 1312 394 1309 b 439 1268 394 1294 413 1279 b 715 1152 462 1256 695 1152 b 730 1162 721 1152 730 1155 "},"Ď":{"x_min":85.75,"x_max":1199.140625,"ha":1300,"o":"m 223 398 b 216 102 223 270 223 161 b 176 26 210 62 204 31 b 127 20 164 23 148 20 b 106 9 111 20 106 16 b 133 -4 106 0 115 -4 b 227 -1 160 -4 196 -1 b 304 0 259 0 289 0 b 438 -8 338 0 386 -4 b 594 -16 490 -12 545 -16 b 1050 147 846 -16 988 81 b 1199 534 1127 226 1199 359 b 1067 887 1199 700 1135 815 b 521 1045 918 1045 691 1045 b 311 1041 439 1045 353 1041 b 115 1045 273 1041 187 1045 b 85 1033 95 1045 85 1043 b 108 1020 85 1023 93 1020 b 161 1016 127 1020 151 1019 b 220 937 206 1006 217 984 b 223 643 223 893 223 854 l 223 398 m 393 665 b 394 943 393 775 393 895 b 411 970 394 958 398 965 b 499 980 421 976 472 980 b 886 841 605 980 760 963 b 1016 494 944 784 1016 670 b 902 148 1016 351 989 225 b 589 48 820 76 728 48 b 411 104 481 48 428 77 b 396 209 400 119 397 175 b 393 490 394 236 393 343 l 393 665 m 402 1312 b 396 1298 398 1308 396 1302 b 415 1279 396 1294 400 1290 b 577 1154 435 1263 566 1163 b 601 1138 592 1143 597 1138 b 630 1155 609 1138 616 1143 b 809 1327 649 1172 794 1311 b 822 1348 818 1336 822 1343 b 809 1362 822 1356 816 1362 b 779 1344 803 1362 796 1358 b 638 1241 741 1312 676 1265 b 617 1236 631 1237 623 1236 b 600 1244 612 1236 607 1238 b 480 1347 586 1254 506 1320 b 457 1362 468 1359 462 1362 b 442 1352 453 1362 447 1358 l 402 1312 "},"&":{"x_min":78.78125,"x_max":1246.703125,"ha":1153,"o":"m 78 283 b 457 -23 78 162 165 -23 b 779 102 643 -23 734 60 b 1101 -4 896 10 945 -4 l 1205 -4 b 1246 8 1235 -4 1246 0 b 1227 20 1246 19 1239 20 b 1082 69 1200 20 1125 42 b 892 205 1045 91 984 128 b 1026 534 970 298 1026 427 b 979 562 1026 551 1005 559 b 816 572 903 570 849 572 b 794 558 805 572 794 569 b 811 547 794 549 803 547 b 877 526 831 547 860 542 b 903 462 898 508 903 483 b 838 248 903 377 865 287 b 598 480 812 272 645 426 b 372 845 489 603 372 715 b 518 1003 372 963 461 1003 b 669 941 594 1003 642 974 b 709 824 699 905 709 860 b 718 798 709 803 710 798 b 734 822 726 798 732 801 b 749 999 739 842 749 953 b 726 1035 749 1016 749 1027 b 562 1065 690 1051 628 1065 b 231 809 325 1065 229 919 b 300 612 232 747 243 690 b 78 283 218 572 78 445 m 503 63 b 242 348 361 63 242 174 b 336 559 242 459 289 524 b 481 385 359 524 446 424 b 726 147 517 347 647 216 b 503 63 698 119 608 63 "},"˝":{"x_min":372.953125,"x_max":888.96875,"ha":1288,"o":"m 523 1334 b 374 1166 504 1312 381 1180 b 381 1152 371 1161 372 1152 b 410 1169 389 1152 396 1156 b 596 1283 457 1208 543 1258 b 649 1302 626 1297 639 1300 b 646 1322 654 1305 656 1313 b 583 1362 628 1337 604 1354 b 557 1368 572 1366 566 1368 b 523 1334 551 1368 543 1356 m 759 1334 b 609 1166 740 1312 616 1180 b 616 1152 606 1161 608 1152 b 646 1169 624 1152 631 1156 b 831 1283 692 1208 778 1258 b 884 1302 861 1297 875 1300 b 881 1322 890 1305 891 1313 b 819 1362 864 1337 842 1352 b 793 1368 808 1366 801 1368 b 759 1334 786 1368 778 1356 "},"I":{"x_min":103.4375,"x_max":543.078125,"ha":628,"o":"m 223 398 b 216 95 223 263 223 154 b 176 26 212 55 204 31 b 127 20 164 23 148 20 b 106 9 111 20 106 16 b 133 -4 106 0 115 -4 b 304 0 187 -4 273 0 b 517 -4 341 0 427 -4 b 543 9 532 -4 543 0 b 521 20 543 16 536 20 b 451 26 500 20 470 23 b 397 94 411 31 401 56 b 392 398 392 154 392 263 l 392 643 b 394 937 392 854 392 893 b 445 1016 397 986 408 1009 b 485 1020 461 1019 472 1020 b 507 1034 499 1020 507 1023 b 479 1045 507 1043 496 1045 b 313 1041 427 1045 347 1041 b 136 1045 273 1041 187 1045 b 103 1034 114 1045 103 1043 b 125 1020 103 1023 111 1020 b 174 1015 141 1020 159 1019 b 220 937 204 1008 217 984 b 223 643 223 893 223 854 l 223 398 "},"G":{"x_min":74.859375,"x_max":1156.953125,"ha":1231,"o":"m 1049 241 b 1050 408 1049 311 1049 366 b 1102 487 1052 456 1065 480 b 1139 491 1118 490 1128 491 b 1156 502 1148 491 1156 494 b 1129 516 1156 513 1147 516 b 970 512 1084 516 1012 512 b 773 516 929 512 843 516 b 744 502 754 516 744 513 b 764 491 744 494 752 491 b 818 487 784 491 807 490 b 876 408 862 477 875 455 b 877 244 877 366 877 313 l 877 113 b 852 62 877 90 872 72 b 736 47 819 47 771 47 b 262 569 449 47 262 270 b 387 909 262 740 311 844 b 657 995 483 990 582 995 b 960 887 811 995 920 931 b 1007 772 996 848 1003 804 b 1020 754 1008 761 1011 754 b 1035 783 1031 754 1035 761 b 1045 1011 1035 956 1045 995 b 1026 1027 1045 1020 1042 1026 b 918 1043 994 1029 947 1037 b 677 1065 891 1048 771 1065 b 311 975 563 1065 442 1055 b 74 520 187 898 74 743 b 703 -23 74 137 370 -23 b 1031 38 809 -23 943 -8 b 1049 88 1048 48 1049 51 l 1049 241 "},"`":{"x_min":394.71875,"x_max":730.921875,"ha":1288,"o":"m 730 1162 b 702 1187 730 1172 715 1176 b 551 1329 639 1233 563 1312 b 529 1359 537 1348 536 1359 b 503 1350 522 1359 518 1356 b 412 1315 485 1341 438 1323 b 394 1302 401 1312 394 1309 b 439 1268 394 1294 413 1279 b 715 1152 462 1256 695 1152 b 730 1162 721 1152 730 1155 "},"·":{"x_min":87.109375,"x_max":253.171875,"ha":347,"o":"m 168 287 b 253 376 220 287 253 327 b 170 456 253 425 216 456 b 87 372 111 456 87 406 b 168 287 87 333 111 287 "},"¿":{"x_min":95.28125,"x_max":639.71875,"ha":739,"o":"m 383 -23 b 624 31 503 -23 583 6 b 639 54 638 40 639 45 b 634 216 639 108 638 197 b 620 234 631 227 630 234 b 608 206 612 234 609 222 b 560 91 605 173 590 131 b 431 37 539 63 494 37 b 269 212 307 37 269 131 b 389 497 269 304 298 370 b 479 608 415 533 447 568 b 506 679 499 636 506 659 b 445 766 506 704 494 726 b 375 809 413 791 386 809 b 363 798 367 809 363 802 b 374 773 363 793 366 786 b 396 702 389 752 396 725 b 326 580 396 679 372 636 b 95 184 220 454 95 359 b 383 -23 95 100 159 -23 m 402 1065 b 325 981 356 1065 325 1027 b 401 908 325 937 357 908 b 477 987 455 908 477 954 b 402 1065 477 1022 455 1065 "},"ý":{"x_min":-61.25,"x_max":871.109375,"ha":819,"o":"m 325 205 b 321 87 325 185 325 137 b 284 24 318 52 308 30 b 242 20 273 21 258 20 b 223 8 228 20 223 13 b 249 -4 223 -1 232 -4 b 404 0 294 -4 374 0 b 592 -4 436 0 517 -4 b 617 8 608 -4 617 0 b 597 20 617 13 611 20 b 537 24 581 20 555 21 b 488 87 502 30 491 52 b 485 205 485 137 485 185 l 485 299 b 500 417 485 338 483 374 b 733 795 522 467 694 748 b 796 851 759 827 770 838 b 847 865 813 859 835 865 b 871 878 861 865 871 870 b 849 888 871 885 862 888 b 721 885 826 888 747 885 b 604 888 686 885 643 888 b 583 877 590 888 583 885 b 605 863 583 867 594 866 b 631 837 626 859 631 848 b 613 774 631 821 626 801 b 435 458 596 738 450 485 b 236 803 415 491 258 767 b 221 844 227 820 221 834 b 238 862 221 853 228 859 b 265 877 257 867 265 867 b 247 888 265 885 258 888 b 111 885 193 888 137 885 b -38 888 72 885 -17 888 b -61 877 -53 888 -61 885 b -43 865 -61 869 -53 865 b 6 849 -28 865 -8 858 b 84 766 29 837 54 809 b 298 426 126 703 289 444 b 325 302 314 391 325 366 l 325 205 m 588 1194 b 568 1210 581 1206 578 1210 b 541 1198 564 1210 555 1208 b 322 1023 519 1184 377 1076 b 310 1005 315 1016 310 1010 b 318 996 310 999 315 996 b 341 1008 321 996 330 1002 b 574 1090 392 1035 499 1080 b 620 1090 601 1092 613 1090 b 627 1110 627 1090 635 1094 b 588 1194 611 1148 598 1174 "},"º":{"x_min":40.828125,"x_max":601.609375,"ha":656,"o":"m 317 562 b 601 825 492 562 601 677 b 323 1065 601 973 495 1065 b 40 813 118 1065 40 925 b 317 562 40 697 121 562 m 479 804 b 338 605 479 629 385 605 b 163 829 240 605 163 712 b 303 1022 163 980 239 1022 b 479 804 404 1022 479 933 "},"∞":{"x_min":34.453125,"x_max":937.5625,"ha":990,"o":"m 35 388 b 235 174 24 285 110 161 b 485 321 375 187 453 292 b 736 174 518 292 596 187 b 936 388 857 161 948 274 b 661 543 922 514 788 600 b 485 413 597 514 568 489 b 310 543 402 489 374 514 b 35 388 182 601 49 514 m 112 360 b 279 472 111 421 167 511 b 431 367 325 456 362 428 b 258 253 359 293 336 272 b 112 360 183 235 114 289 m 858 360 b 713 251 857 289 788 233 b 540 367 635 269 612 293 b 692 471 609 428 646 454 b 858 360 804 511 860 421 "},"ź":{"x_min":68.046875,"x_max":794.984375,"ha":868,"o":"m 273 70 b 788 854 442 319 622 588 b 794 876 792 862 794 866 b 774 886 794 881 786 886 l 405 886 b 185 888 356 886 299 884 b 137 897 155 890 148 897 b 123 874 130 897 125 891 b 99 704 117 838 99 731 b 111 684 99 690 103 684 b 126 705 118 684 123 688 b 190 795 129 733 151 773 b 360 816 228 816 299 816 l 586 816 b 83 47 426 573 251 306 b 68 12 69 26 68 19 b 88 0 68 4 74 0 b 733 -5 330 0 533 -5 b 770 25 755 -5 763 4 b 793 169 778 54 793 130 b 781 205 793 197 790 205 b 767 186 773 205 770 198 b 745 131 763 169 755 150 b 560 70 725 95 683 70 l 273 70 m 638 1194 b 619 1210 631 1206 628 1210 b 592 1198 615 1210 605 1208 b 372 1023 570 1184 427 1076 b 360 1005 366 1016 360 1010 b 368 997 360 999 366 997 b 392 1008 371 997 381 1002 b 624 1090 442 1035 549 1080 b 671 1090 652 1092 664 1090 b 677 1110 677 1090 686 1094 b 638 1194 661 1148 649 1174 "},"ű":{"x_min":24.234375,"x_max":996.0625,"ha":1056,"o":"m 144 373 b 252 61 144 202 191 115 b 526 -19 340 -16 463 -19 b 779 65 604 -19 695 -6 b 893 420 880 150 893 288 l 893 547 b 896 797 893 726 895 759 b 940 861 899 838 907 855 b 975 865 955 863 962 865 b 996 877 989 865 996 869 b 971 888 996 886 987 888 b 831 886 925 888 844 886 b 688 888 830 886 749 888 b 663 877 672 888 663 886 b 684 865 663 869 670 865 b 727 861 697 865 718 863 b 778 797 766 850 775 837 b 781 547 779 759 781 726 l 781 398 b 711 111 781 277 778 175 b 550 48 663 63 602 48 b 399 95 510 48 452 52 b 308 381 341 143 308 209 l 308 547 b 311 797 308 726 308 759 b 355 861 314 838 323 855 b 390 865 369 863 376 865 b 409 877 402 865 409 869 b 383 888 409 886 401 888 b 229 886 340 888 259 886 b 50 888 194 886 114 888 b 24 877 32 888 24 886 b 44 865 24 869 31 865 b 90 861 60 865 81 863 b 142 797 129 850 139 838 b 144 547 145 759 144 726 l 144 373 m 463 1179 b 314 1011 444 1156 320 1025 b 320 997 311 1005 312 997 b 350 1013 329 997 335 1001 b 536 1127 397 1052 482 1102 b 589 1147 565 1141 579 1144 b 586 1166 594 1150 595 1158 b 523 1206 568 1181 544 1198 b 497 1212 512 1211 506 1212 b 463 1179 491 1212 482 1201 m 699 1179 b 549 1011 680 1156 556 1025 b 556 997 546 1005 548 997 b 586 1013 564 997 571 1001 b 771 1127 632 1052 718 1102 b 824 1147 801 1141 815 1144 b 821 1166 830 1150 831 1158 b 759 1206 804 1181 782 1197 b 733 1212 748 1211 741 1212 b 699 1179 726 1212 718 1201 "},"ń":{"x_min":55.8125,"x_max":1073.921875,"ha":1168,"o":"m 257 638 l 261 638 b 541 346 284 617 411 474 b 891 6 666 223 816 77 b 940 -18 903 -5 920 -18 b 959 19 950 -18 959 -7 l 973 763 b 1016 860 974 830 984 851 b 1053 865 1031 865 1041 865 b 1073 877 1067 865 1073 870 b 1046 888 1073 887 1063 888 b 929 885 988 888 943 885 b 777 888 903 885 839 888 b 747 877 759 888 747 887 b 766 865 747 870 751 865 b 828 858 782 865 811 865 b 869 753 857 846 868 826 l 882 228 l 876 228 b 617 494 858 245 699 412 b 249 870 443 667 264 855 b 197 909 228 891 212 909 b 176 869 185 909 176 892 l 166 169 b 129 26 164 66 160 34 b 74 20 112 21 91 20 b 55 8 63 20 55 15 b 83 -4 55 -3 66 -4 b 212 0 144 -4 201 0 b 367 -4 234 0 289 -4 b 394 8 383 -4 394 -1 b 374 20 394 15 387 20 b 311 28 355 20 332 21 b 270 156 288 37 273 65 l 257 638 m 758 1194 b 739 1210 751 1206 748 1210 b 711 1198 735 1210 725 1208 b 492 1023 690 1184 547 1076 b 480 1005 485 1016 480 1010 b 488 996 480 999 485 996 b 511 1008 491 996 500 1002 b 744 1090 562 1035 669 1080 b 790 1090 771 1092 784 1090 b 797 1110 797 1090 805 1094 b 758 1194 781 1148 769 1174 "},"Ș":{"x_min":122.5,"x_max":691.453125,"ha":808,"o":"m 347 -23 b 563 33 419 -23 495 -11 b 691 275 661 98 691 194 b 468 629 691 406 632 502 l 430 658 b 285 858 317 745 285 794 b 447 1001 285 941 347 1001 b 596 933 536 1001 575 959 b 631 841 624 897 631 854 b 645 816 631 825 635 816 b 660 858 656 816 660 827 b 665 1025 660 966 665 1006 b 646 1041 665 1034 658 1038 b 465 1065 611 1051 553 1065 b 151 802 276 1065 151 955 b 352 473 151 690 202 593 l 415 423 b 548 201 528 333 548 269 b 366 43 548 127 488 43 b 171 183 281 43 201 80 b 159 254 164 206 159 236 b 145 277 159 265 157 277 b 129 241 134 277 130 262 b 122 59 127 219 122 136 b 148 12 122 29 126 22 b 347 -23 206 -13 268 -23 m 468 -163 b 442 -102 468 -151 461 -133 b 412 -72 427 -79 423 -72 b 325 -155 377 -72 325 -113 b 374 -258 325 -172 374 -190 b 340 -362 374 -286 364 -319 b 330 -381 337 -368 330 -376 b 340 -394 330 -387 336 -394 b 360 -380 347 -394 352 -387 b 453 -222 400 -334 438 -258 b 468 -163 461 -202 468 -176 "},";":{"x_min":87.109375,"x_max":253.171875,"ha":347,"o":"m 87 112 b 144 -8 87 93 144 70 b 104 -129 144 -40 133 -79 b 93 -152 102 -136 93 -145 b 104 -166 93 -159 100 -166 b 127 -150 112 -166 118 -158 b 235 34 174 -95 217 -6 b 253 101 245 56 253 87 b 223 173 253 116 246 138 b 189 208 205 201 201 208 b 87 112 148 208 87 161 m 168 511 b 253 600 219 511 253 550 b 170 680 253 650 216 680 b 87 594 111 680 87 631 b 168 511 87 556 111 511 "},"6":{"x_min":55.8125,"x_max":770.390625,"ha":833,"o":"m 415 -23 b 770 333 613 -23 770 118 b 492 615 770 456 684 615 b 315 565 417 615 356 594 b 300 544 307 559 300 554 b 311 530 300 534 306 530 b 341 538 318 530 330 536 b 412 548 360 544 378 548 b 604 270 502 548 604 463 b 432 37 604 109 526 37 b 225 373 295 37 225 211 b 573 1022 225 705 413 930 b 607 1052 588 1030 607 1040 b 590 1065 607 1061 598 1065 b 560 1056 583 1065 573 1062 b 55 375 265 936 55 645 b 415 -23 55 123 205 -23 "},"n":{"x_min":55.8125,"x_max":1073.921875,"ha":1168,"o":"m 257 638 l 261 638 b 541 347 284 618 411 475 b 891 6 666 223 816 77 b 940 -18 903 -5 920 -18 b 959 19 950 -18 959 -6 l 973 763 b 1016 861 974 830 984 851 b 1053 865 1031 865 1041 865 b 1073 877 1067 865 1073 870 b 1046 888 1073 887 1063 888 b 929 886 988 888 943 886 b 777 888 903 886 839 888 b 747 877 759 888 747 887 b 766 865 747 870 751 865 b 828 858 782 865 811 865 b 869 754 857 847 868 826 l 882 229 l 876 229 b 617 494 858 245 699 412 b 249 870 443 668 264 855 b 197 909 228 891 212 909 b 176 869 185 909 176 893 l 166 169 b 129 26 164 66 160 34 b 74 20 112 22 91 20 b 55 8 63 20 55 15 b 83 -4 55 -2 66 -4 b 212 0 144 -4 201 0 b 367 -4 234 0 289 -4 b 394 8 383 -4 394 -1 b 374 20 394 15 387 20 b 311 29 355 20 332 22 b 270 156 288 37 273 65 l 257 638 "},"ģ":{"x_min":65.328125,"x_max":1022.203125,"ha":1088,"o":"m 926 205 b 928 347 926 263 926 311 b 974 411 929 388 941 405 b 1007 415 988 413 997 415 b 1022 427 1015 415 1022 420 b 997 438 1022 437 1014 438 b 857 436 958 438 895 436 b 673 438 822 436 736 438 b 647 427 657 438 647 437 b 666 415 647 420 656 415 b 713 411 683 415 703 413 b 764 347 751 400 763 387 b 766 208 766 311 766 266 l 766 100 b 743 58 766 79 760 66 b 658 45 714 45 690 45 b 242 484 402 45 242 230 b 352 772 242 629 285 716 b 583 841 435 840 518 841 b 843 751 718 841 808 788 b 884 654 875 718 882 680 b 896 638 886 644 888 638 b 913 665 906 638 913 647 b 921 859 913 813 921 845 b 905 873 921 868 918 872 b 809 886 876 875 834 881 b 597 905 785 891 680 905 b 274 829 496 905 389 897 b 65 443 164 763 65 631 b 619 -19 65 116 325 -19 b 911 33 713 -19 831 -6 b 926 75 926 41 926 43 l 926 205 m 672 -163 b 646 -102 672 -151 665 -133 b 616 -72 631 -79 627 -72 b 529 -155 581 -72 529 -113 b 578 -258 529 -172 578 -190 b 544 -362 578 -286 568 -319 b 534 -381 541 -368 534 -376 b 544 -394 534 -387 540 -394 b 564 -380 551 -394 556 -387 b 657 -222 604 -334 642 -258 b 672 -163 665 -202 672 -176 "},"¤":{"x_min":89.140625,"x_max":728.40625,"ha":833,"o":"m 728 728 l 661 797 l 563 691 b 407 746 525 725 469 746 l 406 746 b 249 690 346 746 289 725 l 154 797 l 89 728 l 193 628 b 142 457 166 589 142 532 b 192 290 142 387 165 327 l 91 191 l 155 123 l 248 229 b 403 174 285 194 347 174 b 562 233 457 174 521 194 l 656 123 l 722 191 l 618 294 b 665 465 644 330 665 388 b 619 628 665 533 644 590 l 728 728 m 558 463 b 403 272 558 326 476 272 b 249 459 335 272 249 329 b 403 648 249 565 309 648 l 404 648 b 558 463 502 648 558 559 "},"∂":{"x_min":54.4375,"x_max":695.53125,"ha":776,"o":"m 485 29 b 695 659 643 155 695 476 b 351 1191 695 929 623 1191 b 153 1123 253 1191 194 1156 b 130 1093 141 1113 130 1104 b 148 1080 130 1084 136 1080 b 194 1102 160 1080 178 1097 b 310 1123 227 1115 273 1123 b 552 709 494 1123 552 868 b 545 522 552 648 552 586 b 330 605 484 576 416 605 b 54 293 157 605 54 440 b 485 29 54 -2 315 -106 m 487 497 b 532 454 500 487 524 465 b 473 177 521 359 503 261 b 311 26 451 116 402 26 b 196 234 236 26 196 123 b 370 540 196 366 251 538 b 487 497 416 540 453 520 "},"p":{"x_min":74.859375,"x_max":756.78125,"ha":828,"o":"m 196 338 b 190 87 196 230 196 137 b 155 25 186 52 179 30 b 112 20 144 22 130 20 b 93 8 98 20 93 13 b 117 -4 93 0 102 -4 b 268 0 164 -4 240 0 b 464 -4 299 0 383 -4 b 485 8 476 -4 485 0 b 466 20 485 13 480 20 b 405 25 449 20 423 22 b 359 86 370 30 363 52 b 353 338 353 137 353 230 l 353 806 b 363 829 353 819 356 826 b 415 834 374 833 397 834 b 534 790 442 834 491 829 b 605 615 601 731 605 654 b 445 423 605 494 511 423 b 405 408 419 423 405 418 b 420 395 405 400 413 395 b 455 394 426 394 450 394 b 756 680 626 394 756 513 b 696 822 756 744 722 797 b 473 888 677 838 623 888 b 274 886 419 888 323 886 b 102 888 240 886 164 888 b 74 877 84 888 74 886 b 95 865 74 869 83 865 b 142 861 112 865 133 863 b 194 797 181 850 191 837 b 196 547 196 759 196 726 l 196 338 "},"":{"x_min":-61.25,"x_max":871.109375,"ha":819,"o":"m 325 205 b 321 87 325 186 325 137 b 284 25 318 52 308 30 b 242 20 273 22 258 20 b 223 8 228 20 223 13 b 249 -4 223 -1 232 -4 b 404 0 294 -4 374 0 b 592 -4 436 0 517 -4 b 617 8 608 -4 617 0 b 597 20 617 13 611 20 b 537 25 581 20 555 22 b 488 87 502 30 491 52 b 485 205 485 137 485 186 l 485 300 b 500 418 485 338 483 375 b 733 795 522 468 694 748 b 796 851 759 827 770 838 b 847 865 813 859 835 865 b 871 879 861 865 871 870 b 849 888 871 886 862 888 b 721 886 826 888 747 886 b 604 888 686 886 643 888 b 583 877 590 888 583 886 b 605 863 583 868 594 866 b 631 837 626 859 631 848 b 613 775 631 822 626 801 b 435 458 596 738 450 486 b 236 804 415 491 258 768 b 221 844 227 820 221 834 b 238 862 221 854 228 859 b 265 877 257 868 265 868 b 247 888 265 886 258 888 b 111 886 193 888 137 886 b -38 888 72 886 -17 888 b -61 877 -53 888 -61 886 b -43 865 -61 869 -53 865 b 6 850 -28 865 -8 858 b 84 766 29 837 54 809 b 298 426 126 704 289 444 b 325 302 314 391 325 366 l 325 205 m 544 997 b 609 1066 583 997 609 1027 b 545 1127 609 1105 581 1127 b 483 1062 502 1127 483 1090 b 544 997 483 1033 500 997 m 257 997 b 322 1066 296 997 322 1027 b 258 1126 322 1104 294 1126 b 196 1062 215 1126 196 1088 b 257 997 196 1033 213 997 "},"‡":{"x_min":76.015625,"x_max":783.453125,"ha":868,"o":"m 469 194 l 611 190 b 717 175 660 188 707 175 b 744 188 728 175 741 179 l 764 268 b 758 288 769 281 767 288 b 669 279 748 288 730 281 l 472 270 b 484 608 476 377 481 500 l 583 605 b 729 586 668 602 720 586 b 756 600 740 586 754 590 l 781 681 b 774 702 785 695 784 702 b 681 688 764 702 743 690 l 487 684 b 496 868 490 752 496 861 b 514 1051 503 1000 514 1036 b 504 1065 514 1062 510 1065 b 481 1062 499 1065 491 1063 b 344 995 450 1056 363 1015 b 337 976 337 988 337 983 b 343 950 337 969 341 961 b 356 684 347 922 353 741 l 219 688 b 117 702 149 691 123 702 b 98 686 108 702 100 694 l 77 605 b 87 586 73 590 77 584 b 295 606 174 597 242 605 l 359 608 b 364 270 359 577 363 426 l 186 277 b 126 287 153 279 133 287 b 107 270 118 287 108 279 l 89 191 b 99 172 87 176 89 170 b 330 194 137 175 215 194 l 368 194 b 382 -250 372 -8 381 -226 b 417 -322 383 -304 398 -322 b 450 -277 436 -322 449 -297 b 469 194 451 -263 462 -55 "},"ň":{"x_min":55.8125,"x_max":1073.921875,"ha":1168,"o":"m 257 638 l 261 638 b 541 347 284 618 411 475 b 891 6 666 223 816 77 b 940 -18 903 -5 920 -18 b 959 19 950 -18 959 -6 l 973 763 b 1016 861 974 830 984 851 b 1053 865 1031 865 1041 865 b 1073 877 1067 865 1073 870 b 1046 888 1073 887 1063 888 b 929 886 988 888 943 886 b 777 888 903 886 839 888 b 747 877 759 888 747 887 b 766 865 747 870 751 865 b 828 858 782 865 811 865 b 869 754 857 847 868 826 l 882 229 l 876 229 b 617 494 858 245 699 412 b 249 870 443 668 264 855 b 197 909 228 891 212 909 b 176 869 185 909 176 893 l 166 169 b 129 26 164 66 160 34 b 74 20 112 22 91 20 b 55 8 63 20 55 15 b 83 -4 55 -2 66 -4 b 212 0 144 -4 201 0 b 367 -4 234 0 289 -4 b 394 8 383 -4 394 -1 b 374 20 394 15 387 20 b 311 29 355 20 332 22 b 270 156 288 37 273 65 l 257 638 m 366 1156 b 359 1143 362 1152 359 1147 b 378 1123 359 1138 363 1134 b 540 998 398 1108 529 1008 b 564 983 555 987 560 983 b 593 1000 573 983 579 987 b 773 1172 612 1016 758 1155 b 785 1193 781 1180 785 1187 b 773 1206 785 1201 779 1206 b 743 1188 766 1206 759 1202 b 601 1086 705 1156 639 1109 b 581 1080 594 1081 586 1080 b 563 1088 575 1080 570 1083 b 443 1191 549 1098 469 1165 b 420 1206 431 1204 426 1206 b 405 1197 416 1206 411 1202 l 366 1156 "},"":{"x_min":70.78125,"x_max":490,"ha":565,"o":"m 196 338 b 190 81 196 225 196 130 b 155 25 186 47 179 30 b 112 20 144 22 130 20 b 93 8 98 20 93 13 b 117 -4 93 0 102 -4 b 273 0 164 -4 246 0 b 466 -4 306 0 387 -4 b 490 8 480 -4 490 0 b 470 20 490 13 484 20 b 409 25 453 20 426 22 b 362 80 374 30 366 48 b 356 338 356 130 356 225 l 356 547 b 359 797 356 726 356 759 b 404 861 362 838 371 855 b 439 865 417 863 427 865 b 458 879 451 865 458 868 b 434 888 458 886 449 888 b 280 886 387 888 310 886 b 119 888 246 886 164 888 b 91 879 100 888 91 886 b 110 865 91 868 98 865 b 153 859 125 865 140 863 b 194 797 179 851 191 837 b 196 547 196 759 196 726 l 196 338 m 419 997 b 484 1066 458 997 484 1027 b 420 1127 484 1105 455 1127 b 357 1062 377 1127 357 1090 b 419 997 357 1033 375 997 m 132 997 b 197 1066 171 997 197 1027 b 133 1126 197 1104 168 1126 b 70 1062 89 1126 70 1088 b 132 997 70 1033 88 997 "},"√":{"x_min":31,"x_max":727,"ha":763,"o":"m 727 1336 l 661 1343 l 492 126 l 490 126 l 278 743 l 31 622 l 51 570 l 184 637 l 503 -265 l 727 1336 "},"⁴":{"x_min":47.640625,"x_max":601.609375,"ha":668,"o":"m 475 659 l 475 1051 b 461 1065 475 1059 469 1065 b 436 1050 454 1065 445 1059 b 61 631 404 1013 85 661 b 47 608 57 627 47 618 b 66 593 47 601 55 593 l 375 593 b 374 487 375 583 375 525 b 334 448 372 462 364 451 b 295 444 321 447 302 444 b 284 433 289 444 284 440 b 295 420 284 429 285 420 b 402 423 344 420 397 423 b 548 420 409 423 499 420 b 562 433 558 420 562 429 b 553 444 562 437 558 444 b 514 448 544 444 526 447 b 476 487 485 451 479 462 b 475 593 473 525 475 583 l 568 593 b 586 604 578 593 583 595 b 601 659 590 619 601 655 b 593 669 601 663 597 669 b 548 659 589 669 573 659 l 475 659 m 375 659 l 149 659 l 370 905 l 375 905 l 375 659 "},"ę":{"x_min":74.859375,"x_max":707.78125,"ha":800,"o":"m 589 -236 b 510 -168 539 -236 510 -214 b 612 -7 510 -96 551 -18 b 691 23 656 0 683 -7 b 707 153 698 46 707 127 b 696 181 707 166 706 181 b 683 163 688 181 686 176 b 631 76 675 114 661 89 b 518 60 600 62 549 60 b 356 159 396 60 359 78 b 356 334 355 194 356 294 l 356 428 b 363 441 356 435 357 441 b 551 435 393 441 529 438 b 617 390 596 431 611 413 b 622 346 620 374 620 359 b 632 337 622 341 624 337 b 645 363 643 337 645 353 b 650 442 645 371 647 419 b 660 529 657 502 660 522 b 650 541 660 535 656 541 b 631 526 645 541 641 534 b 574 508 620 513 602 510 b 364 505 547 505 392 505 b 356 517 357 505 356 510 l 356 809 b 364 820 356 816 359 820 b 552 815 389 820 532 818 b 631 772 612 809 622 793 b 639 729 638 758 639 737 b 649 713 639 719 641 713 b 662 733 658 713 661 727 b 669 811 665 747 668 798 b 679 887 672 865 679 879 b 671 898 679 893 677 898 b 651 893 665 898 658 894 b 601 886 642 891 623 887 b 274 886 578 884 313 886 b 102 888 240 886 164 888 b 74 877 84 888 74 886 b 95 865 74 869 83 865 b 142 861 112 865 133 863 b 194 797 181 849 191 837 b 196 547 196 759 196 726 l 196 338 b 190 87 196 230 196 137 b 155 24 186 52 179 30 b 112 20 144 21 130 20 b 93 7 98 20 93 13 b 117 -4 93 0 102 -4 b 200 -1 141 -4 171 -1 b 268 0 228 -1 254 0 b 406 -3 303 0 348 -1 b 532 -5 443 -4 484 -4 b 387 -210 492 -32 387 -135 b 511 -315 387 -285 428 -315 b 680 -224 604 -315 666 -239 b 691 -201 686 -217 691 -207 b 679 -190 691 -194 686 -190 b 589 -236 665 -190 641 -236 "},"S":{"x_min":122.5,"x_max":691.453125,"ha":808,"o":"m 347 -23 b 563 33 419 -23 495 -11 b 691 275 661 98 691 194 b 468 629 691 406 632 502 l 430 658 b 285 858 317 745 285 794 b 447 1001 285 941 347 1001 b 596 933 536 1001 575 959 b 631 841 624 897 631 854 b 645 816 631 825 635 816 b 660 858 656 816 660 827 b 665 1025 660 966 665 1006 b 646 1041 665 1034 658 1038 b 465 1065 611 1051 553 1065 b 151 802 276 1065 151 955 b 352 473 151 690 202 593 l 415 423 b 548 201 528 333 548 269 b 366 43 548 127 488 43 b 171 183 281 43 201 80 b 159 254 164 206 159 236 b 145 277 159 265 157 277 b 129 241 134 277 130 262 b 122 59 127 219 122 136 b 148 12 122 29 126 22 b 347 -23 206 -13 268 -23 "},"/":{"x_min":19.390625,"x_max":718.046875,"ha":753,"o":"m 72 -26 b 89 -18 78 -30 84 -27 l 714 1016 b 713 1033 720 1025 718 1030 l 664 1063 b 645 1056 657 1068 651 1068 l 24 29 b 24 5 17 16 17 9 l 72 -26 "},"į":{"x_min":91.4375,"x_max":490.25,"ha":565,"o":"m 341 -235 b 262 -167 291 -235 262 -213 b 345 -10 262 -112 298 -38 b 467 -4 378 7 424 -4 b 490 8 480 -4 490 0 b 471 21 490 14 484 21 b 409 25 453 21 426 22 b 362 80 374 30 366 48 b 356 339 356 130 356 225 l 356 547 b 359 797 356 726 356 759 b 404 861 362 839 371 855 b 439 865 418 864 427 865 b 458 879 452 865 458 868 b 434 889 458 886 449 889 b 280 886 388 889 310 886 b 120 889 246 886 164 889 b 91 879 100 889 91 886 b 110 865 91 868 98 865 b 154 859 125 865 140 864 b 194 797 179 851 192 837 b 196 547 196 759 196 726 l 196 339 b 190 82 196 225 196 130 b 155 25 186 47 179 30 b 113 21 144 22 130 21 b 94 8 98 21 94 14 b 117 -4 94 0 102 -4 b 203 -1 141 -4 173 -2 b 273 0 233 -1 260 0 l 295 0 b 140 -209 269 -8 140 -126 b 264 -315 140 -284 181 -315 b 433 -223 356 -315 419 -238 b 443 -201 438 -216 443 -206 b 431 -190 443 -194 438 -190 b 341 -235 418 -190 393 -235 "},"":{"x_min":24.5,"x_max":996.328125,"ha":1056,"o":"m 144 373 b 253 61 144 202 191 115 b 526 -19 340 -16 464 -19 b 779 65 604 -19 695 -6 b 894 420 880 150 894 288 l 894 547 b 896 797 894 726 895 759 b 940 861 899 838 907 855 b 975 865 955 863 962 865 b 996 877 989 865 996 869 b 971 888 996 886 988 888 b 831 886 925 888 845 886 b 688 888 830 886 749 888 b 664 877 672 888 664 886 b 684 865 664 869 671 865 b 728 861 698 865 718 863 b 778 797 766 850 775 837 b 781 547 779 759 781 726 l 781 398 b 711 111 781 277 778 175 b 551 48 664 63 602 48 b 400 95 510 48 453 52 b 308 381 341 143 308 209 l 308 547 b 311 797 308 726 308 759 b 355 861 314 838 323 855 b 390 865 370 863 377 865 b 409 877 402 865 409 869 b 383 888 409 886 401 888 b 230 886 340 888 259 886 b 50 888 194 886 114 888 b 24 877 32 888 24 886 b 44 865 24 869 31 865 b 91 861 61 865 81 863 b 142 797 129 850 140 838 b 144 547 145 759 144 726 l 144 373 m 525 1206 b 496 1190 517 1206 510 1202 b 317 1018 477 1173 332 1034 b 304 997 310 1009 304 1002 b 317 983 304 988 310 983 b 344 1000 323 983 330 987 b 488 1102 385 1036 450 1080 b 509 1109 496 1106 503 1109 b 526 1101 514 1109 519 1106 b 646 998 540 1091 622 1025 b 666 983 657 987 661 983 b 684 993 673 983 679 987 l 724 1033 b 730 1047 728 1037 730 1043 b 711 1066 730 1051 726 1055 b 549 1191 691 1081 560 1181 b 525 1206 534 1202 529 1206 "},"y":{"x_min":-61.25,"x_max":871.109375,"ha":819,"o":"m 325 205 b 321 87 325 186 325 137 b 284 25 318 52 308 30 b 242 20 273 22 258 20 b 223 8 228 20 223 13 b 249 -4 223 -1 232 -4 b 404 0 294 -4 374 0 b 592 -4 436 0 517 -4 b 617 8 608 -4 617 0 b 597 20 617 13 611 20 b 537 25 581 20 555 22 b 488 87 502 30 491 52 b 485 205 485 137 485 186 l 485 300 b 500 418 485 338 483 375 b 733 795 522 468 694 748 b 796 851 759 827 770 838 b 847 865 813 859 835 865 b 871 879 861 865 871 870 b 849 888 871 886 862 888 b 721 886 826 888 747 886 b 604 888 686 886 643 888 b 583 877 590 888 583 886 b 605 863 583 868 594 866 b 631 837 626 859 631 848 b 613 775 631 822 626 801 b 435 458 596 738 450 486 b 236 804 415 491 258 768 b 221 844 227 820 221 834 b 238 862 221 854 228 859 b 265 877 257 868 265 868 b 247 888 265 886 258 888 b 111 886 193 888 137 886 b -38 888 72 886 -17 888 b -61 877 -53 888 -61 886 b -43 865 -61 869 -53 865 b 6 850 -28 865 -8 858 b 84 766 29 837 54 809 b 298 426 126 704 289 444 b 325 302 314 391 325 366 l 325 205 "},"≈":{"x_min":25,"x_max":712.359375,"ha":763,"o":"m 647 556 b 455 495 591 494 506 477 l 314 544 b 25 444 216 577 108 551 l 95 387 b 297 447 114 408 172 492 l 431 398 b 712 497 516 367 626 392 l 647 556 m 647 314 b 455 254 599 261 515 233 l 314 304 b 25 204 216 338 108 310 l 95 146 b 297 208 114 168 170 255 l 431 158 b 712 255 515 127 636 158 l 647 314 "},"":{"x_min":24.5,"x_max":996.328125,"ha":1056,"o":"m 144 373 b 253 61 144 202 191 115 b 526 -19 340 -16 464 -19 b 779 65 604 -19 695 -6 b 894 420 880 150 894 288 l 894 547 b 896 797 894 726 895 759 b 940 861 899 838 907 855 b 975 865 955 863 962 865 b 996 877 989 865 996 869 b 971 888 996 886 988 888 b 831 886 925 888 845 886 b 688 888 830 886 749 888 b 664 877 672 888 664 886 b 684 865 664 869 671 865 b 728 861 698 865 718 863 b 778 797 766 850 775 837 b 781 547 779 759 781 726 l 781 398 b 711 111 781 277 778 175 b 551 48 664 63 602 48 b 400 95 510 48 453 52 b 308 381 341 143 308 209 l 308 547 b 311 797 308 726 308 759 b 355 861 314 838 323 855 b 390 865 370 863 377 865 b 409 877 402 865 409 869 b 383 888 409 886 401 888 b 230 886 340 888 259 886 b 50 888 194 886 114 888 b 24 877 32 888 24 886 b 44 865 24 869 31 865 b 91 861 61 865 81 863 b 142 797 129 850 140 838 b 144 547 145 759 144 726 l 144 373 "},"g":{"x_min":65.328125,"x_max":1022.203125,"ha":1088,"o":"m 926 205 b 928 347 926 263 926 311 b 974 411 929 388 941 405 b 1007 415 988 413 997 415 b 1022 427 1015 415 1022 420 b 997 438 1022 437 1014 438 b 857 436 958 438 895 436 b 673 438 822 436 736 438 b 647 427 657 438 647 437 b 666 415 647 420 656 415 b 713 411 683 415 703 413 b 764 347 751 400 763 387 b 766 208 766 311 766 266 l 766 100 b 743 58 766 79 760 66 b 658 45 714 45 690 45 b 242 484 402 45 242 230 b 352 772 242 629 285 716 b 583 841 435 840 518 841 b 843 751 718 841 808 788 b 884 654 875 718 882 680 b 896 638 886 644 888 638 b 913 665 906 638 913 647 b 921 859 913 813 921 845 b 905 873 921 868 918 872 b 809 886 876 875 834 881 b 597 905 785 891 680 905 b 274 829 496 905 389 897 b 65 443 164 763 65 631 b 619 -19 65 116 325 -19 b 911 33 713 -19 831 -6 b 926 75 926 41 926 43 l 926 205 "},"²":{"x_min":54.4375,"x_max":518.578125,"ha":617,"o":"m 420 423 b 487 447 458 423 477 429 b 518 575 502 491 518 559 b 510 587 518 581 517 587 b 496 573 503 587 500 584 b 396 502 483 529 460 508 b 239 497 381 501 254 497 l 200 497 b 198 504 196 497 196 501 b 495 901 378 652 495 752 b 270 1065 495 984 426 1065 b 107 1030 200 1065 147 1050 b 98 1011 99 1026 98 1023 b 103 915 98 987 102 915 b 112 893 104 900 107 893 b 125 908 119 893 125 897 b 153 979 126 938 137 962 b 247 1018 179 1005 208 1018 b 371 877 296 1018 371 983 b 70 456 371 736 265 620 b 54 434 65 451 54 443 b 69 423 54 427 59 423 l 420 423 "},"":{"x_min":70.78125,"x_max":788.078125,"ha":876,"o":"m 788 475 b 439 916 788 654 720 916 b 70 422 185 916 70 701 b 419 -23 70 241 141 -23 b 788 475 669 -23 788 194 m 632 429 b 443 29 632 177 558 29 b 225 466 285 29 225 259 b 412 863 225 720 299 863 b 632 429 568 863 632 633 "},"–":{"x_min":0,"x_max":680.5625,"ha":694,"o":"m 0 356 l 680 356 l 680 437 l 0 437 l 0 356 "},"ë":{"x_min":74.859375,"x_max":707.78125,"ha":800,"o":"m 196 338 b 190 87 196 230 196 137 b 155 25 186 52 179 30 b 112 20 144 22 130 20 b 93 8 98 20 93 13 b 117 -4 93 0 102 -4 b 200 -1 141 -4 171 -2 b 268 0 228 -1 254 0 b 406 -2 303 0 348 -1 b 627 -6 465 -5 537 -6 b 691 23 672 -6 683 -6 b 707 154 698 47 707 127 b 696 181 707 166 706 181 b 683 163 688 181 686 176 b 631 76 675 115 661 90 b 518 61 600 62 549 61 b 356 159 396 61 359 79 b 356 334 355 194 356 294 l 356 429 b 363 441 356 436 357 441 b 551 436 393 441 529 438 b 617 390 596 431 611 413 b 622 347 620 375 620 359 b 632 337 622 341 624 337 b 645 363 643 337 645 354 b 650 443 645 372 647 419 b 660 529 657 502 660 522 b 650 541 660 536 656 541 b 631 526 645 541 641 534 b 574 508 620 513 602 511 b 364 505 547 505 392 505 b 356 518 357 505 356 511 l 356 809 b 364 820 356 816 359 820 b 552 815 389 820 532 818 b 631 772 612 809 622 793 b 639 729 638 758 639 737 b 649 713 639 719 641 713 b 662 733 658 713 661 727 b 669 811 665 747 668 798 b 679 887 672 865 679 879 b 671 898 679 893 677 898 b 651 893 665 898 658 894 b 601 886 642 891 623 887 b 274 886 578 884 313 886 b 102 888 240 886 164 888 b 74 877 84 888 74 886 b 95 865 74 869 83 865 b 142 861 112 865 133 863 b 194 797 181 850 191 837 b 196 547 196 759 196 726 l 196 338 m 547 997 b 612 1066 586 997 612 1027 b 548 1127 612 1105 583 1127 b 485 1062 504 1127 485 1090 b 547 997 485 1033 503 997 m 259 997 b 325 1066 299 997 325 1027 b 261 1126 325 1104 296 1126 b 198 1062 217 1126 198 1088 b 259 997 198 1033 216 997 "},"ƒ":{"x_min":-27.359375,"x_max":811.078125,"ha":833,"o":"m 495 471 b 628 465 553 471 619 465 b 657 479 639 465 653 469 l 672 521 b 665 541 677 536 674 541 b 568 537 655 541 630 537 l 415 537 b 483 902 428 661 446 825 b 624 1008 517 973 572 1008 b 743 950 689 1008 725 979 b 767 857 759 922 767 896 b 779 826 767 836 768 826 b 796 857 789 826 793 836 b 811 1009 807 940 811 989 b 794 1040 811 1026 809 1033 b 655 1065 755 1057 713 1065 b 401 952 523 1065 447 1007 b 265 537 322 861 282 716 l 205 537 b 133 540 165 537 142 540 b 116 523 125 540 119 533 l 104 480 b 115 468 101 472 107 468 b 210 475 122 468 195 476 l 257 472 l 214 84 b 142 -219 197 -77 175 -166 b 16 -291 101 -284 42 -288 b -17 -293 3 -293 -8 -293 b -27 -308 -23 -293 -27 -298 b 23 -323 -27 -319 -12 -323 b 144 -298 54 -323 108 -315 b 342 0 263 -242 308 -156 b 410 471 375 150 394 358 l 495 471 "},"J":{"x_min":25.859375,"x_max":509.0625,"ha":578,"o":"m 223 244 b 121 -273 223 -27 224 -166 b 55 -326 93 -301 73 -316 b 25 -351 32 -338 25 -344 b 36 -362 25 -358 31 -362 b 63 -354 43 -362 54 -359 b 132 -318 92 -340 114 -329 b 363 -55 262 -236 334 -140 b 396 190 390 22 396 111 b 392 386 396 259 392 326 l 392 643 b 394 937 392 854 392 893 b 445 1016 397 986 408 1009 b 484 1020 461 1019 469 1020 b 509 1033 500 1020 509 1023 b 480 1045 509 1043 499 1045 b 308 1041 427 1045 341 1041 b 115 1045 273 1041 187 1045 b 85 1033 95 1045 85 1043 b 108 1020 85 1023 93 1020 b 161 1016 127 1020 151 1019 b 220 937 206 1006 217 984 b 223 643 223 893 223 854 l 223 244 "},"Ã":{"x_min":-87.0625,"x_max":1033.046875,"ha":972,"o":"m 581 358 b 594 348 587 358 592 355 l 703 54 b 691 22 710 37 700 25 b 672 9 677 20 672 18 b 713 -1 672 0 688 0 b 970 -4 822 -4 921 -4 b 1033 9 1020 -4 1033 -1 b 1015 20 1033 19 1026 20 b 958 26 999 20 978 22 b 838 177 929 33 890 52 b 500 1031 751 388 533 955 b 466 1076 487 1063 479 1076 b 428 1020 453 1076 445 1061 l 87 148 b -28 23 59 79 34 31 b -70 20 -39 22 -58 20 b -87 9 -81 20 -87 18 b -61 -4 -87 -1 -78 -4 b 99 0 9 -4 84 0 b 243 -4 141 0 200 -4 b 266 9 258 -4 266 -1 b 246 20 266 18 262 20 l 225 20 b 171 63 183 20 171 38 b 191 148 171 80 178 113 l 265 347 b 277 358 268 355 270 358 l 581 358 m 304 427 b 299 437 299 427 298 431 l 424 779 b 432 791 426 784 428 791 b 439 779 436 791 438 784 l 562 436 b 555 427 563 431 562 427 l 304 427 m 573 1152 b 706 1256 636 1152 694 1233 b 714 1280 710 1265 714 1273 b 703 1291 714 1287 709 1291 b 681 1273 696 1291 690 1284 b 598 1231 676 1266 647 1231 b 500 1262 566 1231 534 1243 b 392 1301 469 1280 439 1301 b 250 1194 326 1301 270 1227 b 239 1168 246 1188 239 1175 b 249 1158 239 1162 243 1158 b 270 1172 254 1158 258 1159 b 363 1222 281 1184 310 1222 b 450 1191 400 1222 426 1205 b 573 1152 479 1176 515 1152 "},"ŕ":{"x_min":75.3125,"x_max":1032.171875,"ha":953,"o":"m 196 337 b 191 86 196 229 196 136 b 155 23 186 51 180 29 b 113 19 144 20 131 19 b 94 6 98 19 94 12 b 117 -5 94 -1 102 -5 b 264 -1 165 -5 241 -1 b 450 -5 282 -1 381 -5 b 475 6 465 -5 475 -1 b 460 19 475 12 470 19 b 401 23 445 19 419 20 b 355 86 365 29 359 51 b 348 337 350 136 348 227 l 348 354 b 358 363 348 361 352 363 l 465 361 b 487 352 474 361 480 359 b 600 191 502 334 553 255 b 764 18 667 100 712 44 b 894 -5 795 1 828 -5 l 1009 -5 b 1032 6 1024 -5 1032 -2 b 1017 19 1032 12 1026 19 b 988 22 1007 19 1000 19 b 860 100 969 26 927 31 b 597 413 788 173 704 280 b 764 675 715 509 764 587 b 679 838 764 754 713 814 b 452 888 615 881 528 888 b 265 885 415 888 306 885 b 102 888 241 885 165 888 b 75 877 84 888 75 885 b 95 864 75 868 83 864 b 143 860 113 864 133 863 b 195 796 181 849 192 836 b 196 546 196 758 196 725 l 196 337 m 348 806 b 359 822 348 815 351 820 b 430 827 372 825 400 827 b 612 616 501 827 612 783 b 535 441 612 519 572 468 b 450 422 514 426 498 422 b 359 433 421 422 385 425 b 348 454 351 437 348 441 l 348 806 m 638 1194 b 619 1210 632 1206 629 1210 b 592 1198 615 1210 606 1208 b 373 1023 570 1184 427 1076 b 361 1005 366 1016 361 1010 b 369 996 361 999 366 996 b 392 1007 372 996 381 1002 b 625 1090 442 1035 550 1080 b 671 1090 652 1092 664 1090 b 678 1110 678 1090 686 1094 b 638 1194 661 1148 649 1174 "},"‐":{"x_min":48.015625,"x_max":532.1875,"ha":590,"o":"m 102 437 b 69 419 78 437 73 436 l 49 323 b 59 298 46 309 49 298 b 119 320 70 298 92 313 b 470 387 167 334 416 379 b 532 418 509 394 532 398 b 488 437 532 434 513 437 l 102 437 "},"©":{"x_min":74.859375,"x_max":1152.859375,"ha":1253,"o":"m 615 -23 b 1152 519 914 -23 1152 218 b 615 1065 1152 831 922 1065 b 74 519 313 1065 74 822 b 615 -23 74 208 304 -23 m 161 520 b 615 1000 161 793 353 1000 b 1065 520 868 1000 1065 779 b 615 41 1065 252 875 41 b 161 520 363 41 161 258 m 650 212 b 796 229 672 212 736 212 b 824 268 818 234 819 237 b 839 376 835 320 839 365 b 830 391 839 383 838 391 b 816 375 822 391 819 383 b 786 306 811 352 804 325 b 666 270 769 288 733 270 b 438 565 564 270 438 375 b 634 786 438 704 518 786 b 786 736 724 786 773 751 b 812 670 803 716 811 693 b 824 650 813 659 816 650 b 835 663 831 650 834 655 b 842 784 839 684 842 776 b 841 811 842 800 845 811 b 826 809 837 811 831 809 b 744 826 823 809 764 823 b 632 837 696 834 651 837 b 393 758 529 837 454 815 b 303 533 357 725 303 643 b 650 212 303 336 445 212 "},"˘":{"x_min":421.9375,"x_max":839.8125,"ha":1288,"o":"m 421 1258 b 472 1202 421 1247 451 1219 b 607 1152 511 1169 568 1152 b 754 1200 675 1152 709 1169 b 839 1302 785 1220 839 1281 b 828 1315 839 1309 835 1315 b 769 1263 819 1315 811 1297 b 649 1225 755 1254 709 1225 b 524 1286 613 1225 571 1229 b 495 1318 511 1300 503 1318 b 477 1308 491 1318 487 1316 l 432 1272 b 421 1258 428 1269 421 1266 "},"≥":{"x_min":53.6875,"x_max":692.046875,"ha":763,"o":"m 692 454 l 692 551 l 53 829 l 53 736 l 588 502 l 53 269 l 53 176 l 692 454 m 692 0 l 692 84 l 53 84 l 53 0 l 692 0 "},"Ă":{"x_min":-87.0625,"x_max":1033.046875,"ha":972,"o":"m 581 358 b 594 348 587 358 592 355 l 703 54 b 691 22 710 37 700 25 b 672 9 677 20 672 18 b 713 -1 672 0 688 0 b 970 -4 822 -4 921 -4 b 1033 9 1020 -4 1033 -1 b 1015 20 1033 19 1026 20 b 958 26 999 20 978 22 b 838 177 929 33 890 52 b 500 1031 751 388 533 955 b 466 1076 487 1063 479 1076 b 428 1020 453 1076 445 1061 l 87 148 b -28 23 59 79 34 31 b -70 20 -39 22 -58 20 b -87 9 -81 20 -87 18 b -61 -4 -87 -1 -78 -4 b 99 0 9 -4 84 0 b 243 -4 141 0 200 -4 b 266 9 258 -4 266 -1 b 246 20 266 18 262 20 l 225 20 b 171 63 183 20 171 38 b 191 148 171 80 178 113 l 265 347 b 277 358 268 355 270 358 l 581 358 m 304 427 b 299 437 299 427 298 431 l 424 779 b 432 791 426 784 428 791 b 439 779 436 791 438 784 l 562 436 b 555 427 563 431 562 427 l 304 427 m 268 1279 b 318 1223 268 1268 298 1240 b 453 1173 358 1190 415 1173 b 600 1220 521 1173 555 1190 b 685 1323 631 1241 685 1302 b 675 1336 685 1330 681 1336 b 615 1284 665 1336 657 1318 b 495 1245 601 1275 555 1245 b 370 1306 460 1245 417 1250 b 341 1338 358 1320 349 1338 b 323 1329 337 1338 333 1337 l 279 1293 b 268 1279 274 1290 268 1287 "},"D":{"x_min":85.75,"x_max":1199.140625,"ha":1300,"o":"m 223 398 b 216 102 223 270 223 161 b 176 26 210 62 204 31 b 127 20 164 23 148 20 b 106 9 111 20 106 16 b 133 -4 106 0 115 -4 b 227 -1 160 -4 196 -1 b 304 0 259 0 289 0 b 438 -8 338 0 386 -4 b 594 -16 490 -12 545 -16 b 1050 147 846 -16 988 81 b 1199 534 1127 226 1199 359 b 1067 887 1199 700 1135 815 b 521 1045 918 1045 691 1045 b 311 1041 439 1045 353 1041 b 115 1045 273 1041 187 1045 b 85 1033 95 1045 85 1043 b 108 1020 85 1023 93 1020 b 161 1016 127 1020 151 1019 b 220 937 206 1006 217 984 b 223 643 223 893 223 854 l 223 398 m 393 665 b 394 943 393 775 393 895 b 411 970 394 958 398 965 b 499 980 421 976 472 980 b 886 841 605 980 760 963 b 1016 494 944 784 1016 670 b 902 148 1016 351 989 225 b 589 48 820 76 728 48 b 411 104 481 48 428 77 b 396 209 400 119 397 175 b 393 490 394 236 393 343 l 393 665 "},"":{"x_min":74.859375,"x_max":756.78125,"ha":828,"o":"m 196 338 b 190 87 196 230 196 137 b 155 25 186 52 179 30 b 112 20 144 22 130 20 b 93 8 98 20 93 13 b 117 -4 93 0 102 -4 b 268 0 164 -4 240 0 b 464 -4 299 0 383 -4 b 485 8 476 -4 485 0 b 466 20 485 13 480 20 b 405 25 449 20 423 22 b 359 86 370 30 363 52 b 353 338 353 137 353 230 l 353 806 b 363 829 353 819 356 826 b 415 834 374 833 397 834 b 534 790 442 834 491 829 b 605 615 601 731 605 654 b 445 423 605 494 511 423 b 405 408 419 423 405 418 b 420 395 405 400 413 395 b 455 394 426 394 450 394 b 756 680 626 394 756 513 b 696 822 756 744 722 797 b 473 888 677 838 623 888 b 274 886 419 888 323 886 b 102 888 240 886 164 888 b 74 877 84 888 74 886 b 95 865 74 869 83 865 b 142 861 112 865 133 863 b 194 797 181 850 191 837 b 196 547 196 759 196 726 l 196 338 "},"":{"x_min":78.984375,"x_max":654.484375,"ha":776,"o":"m 360 0 b 654 286 468 0 654 72 b 428 619 654 438 564 526 l 470 995 b 563 954 492 995 538 980 b 604 847 600 916 602 883 b 617 820 604 826 608 820 b 632 840 625 820 629 825 b 649 993 638 866 649 962 b 625 1027 649 1015 644 1020 b 476 1054 601 1037 538 1054 l 492 1180 b 481 1187 493 1187 488 1188 l 440 1177 b 425 1165 435 1176 427 1173 l 412 1054 b 123 804 288 1054 123 975 b 345 473 123 672 195 590 l 302 63 b 168 126 262 63 206 83 b 129 252 136 162 126 215 b 119 290 130 281 129 290 b 99 256 110 290 104 279 b 78 88 95 238 78 168 b 125 29 78 51 87 45 b 296 0 176 8 268 0 l 283 -118 b 292 -131 281 -129 284 -133 l 334 -123 b 348 -112 341 -122 346 -119 l 360 0 m 368 659 b 247 840 304 712 247 763 b 405 995 247 970 355 995 l 368 659 m 406 431 b 526 241 474 384 526 326 b 370 63 526 141 459 69 l 406 431 "},"":{"x_min":74.859375,"x_max":718.671875,"ha":818,"o":"m 519 812 b 651 761 586 812 632 784 b 684 669 671 736 681 709 b 696 654 686 659 688 654 b 710 669 705 654 709 658 b 718 812 713 705 718 780 b 709 841 718 834 718 837 b 529 877 642 868 566 877 l 548 1027 b 533 1036 549 1034 544 1037 l 490 1030 b 476 1016 479 1029 477 1025 l 461 877 b 181 783 340 877 255 848 b 74 527 141 750 74 661 b 381 168 74 326 202 200 l 356 -40 b 368 -48 355 -47 359 -50 l 419 -41 b 430 -26 426 -40 428 -36 l 449 159 b 510 158 468 158 481 158 b 677 181 545 158 617 163 b 696 205 690 186 694 190 b 714 356 703 241 714 333 b 703 373 714 368 711 373 b 686 351 695 373 690 368 b 515 231 660 250 598 231 b 458 237 499 231 481 233 l 519 812 m 390 252 b 223 565 329 275 223 380 b 451 812 223 704 323 820 l 390 252 "}}}
